M48
; DRILL file {KiCad 9.0.3} date 2025-08-23T16:53:47-0500
; FORMAT={-:-/ absolute / inch / decimal}
; #@! TF.CreationDate,2025-08-23T16:53:47-05:00
; #@! TF.GenerationSoftware,Kicad,Pcbnew,9.0.3
; #@! TF.FileFunction,Plated,1,2,PTH
FMAT,2
INCH
; #@! TA.AperFunction,Plated,PTH,ViaDrill
T1C0.0079
; #@! TA.AperFunction,Plated,PTH,ViaDrill
T2C0.0118
; #@! TA.AperFunction,Plated,PTH,ComponentDrill
T3C0.0394
; #@! TA.AperFunction,Plated,PTH,ComponentDrill
T4C0.0400
; #@! TA.AperFunction,Plated,PTH,ComponentDrill
T5C0.0413
; #@! TA.AperFunction,Plated,PTH,ComponentDrill
T6C0.1220
; #@! TA.AperFunction,Plated,PTH,ComponentDrill
T7C0.1260
; #@! TA.AperFunction,Plated,PTH,ComponentDrill
T8C0.2130
%
G90
G05
T1
X5.6693Y-2.9232
X5.7222Y-2.9537
X5.748Y-2.9331
X5.7776Y-3.2874
X5.7874Y-2.9921
X5.8083Y-3.2886
X5.8276Y-3.1201
X5.8398Y-3.2897
X5.8591Y-3.1201
X5.8713Y-3.2915
X5.8906Y-3.1201
X5.922Y-3.1201
X5.9535Y-3.1201
T2
X4.8228Y-3.2579
X4.8228Y-3.3563
X4.8228Y-4.3701
X4.8622Y-2.9134
X4.8622Y-3.0118
X4.8622Y-4.1929
X4.8819Y-4.311
X4.9213Y-4.1339
X4.9311Y-3.2579
X4.9311Y-3.3563
X4.9409Y-4.252
X4.9606Y-2.9134
X4.9606Y-3.0118
X4.9803Y-4.0748
X5.0Y-4.1929
X5.0295Y-3.2579
X5.0295Y-3.3563
X5.0394Y-4.0157
X5.0591Y-4.1339
X5.0689Y-2.9134
X5.0689Y-3.0118
X5.0984Y-3.9567
X5.1181Y-4.0748
X5.1378Y-3.2579
X5.1378Y-3.3563
X5.1575Y-3.8976
X5.1772Y-4.0157
X5.2165Y-3.8386
X5.2362Y-3.9567
X5.2756Y-3.7795
X5.2953Y-3.8976
X5.3346Y-3.7205
X5.3543Y-3.8386
X5.3937Y-3.6614
X5.4134Y-3.7795
X5.4528Y-3.6024
X5.4724Y-3.7205
X5.5118Y-3.5433
X5.5315Y-3.6614
X5.5709Y-2.7559
X5.5709Y-2.8248
X5.5709Y-2.8937
X5.5709Y-3.4843
X5.5906Y-3.6024
X5.6299Y-3.4252
X5.6496Y-3.5433
X5.689Y-3.3661
X5.7087Y-3.4843
X5.7677Y-3.4252
X5.8268Y-3.3661
X5.8563Y-2.8937
X5.8563Y-2.9626
X5.8661Y-3.376
X5.8661Y-3.4843
X5.8661Y-3.5827
X5.8661Y-3.6909
X5.8661Y-3.7894
X5.8661Y-3.8976
X5.8661Y-3.9862
X5.8661Y-4.0945
X5.8661Y-4.1929
X5.8661Y-4.3012
X5.8661Y-4.3996
X5.8661Y-4.5079
X5.8661Y-4.6063
X5.8661Y-4.7146
X5.8661Y-4.8031
X5.8661Y-4.9114
X5.8661Y-5.0098
X5.8661Y-5.1181
X5.9843Y-2.9724
X5.9843Y-3.4843
X5.9843Y-3.5827
X5.9843Y-3.6909
X5.9843Y-3.7894
X5.9843Y-3.8976
X5.9843Y-3.9862
X5.9843Y-4.0945
X5.9843Y-4.1929
X5.9843Y-4.3012
X5.9843Y-4.3996
X5.9843Y-4.5079
X5.9843Y-4.6063
X5.9843Y-4.7146
X5.9843Y-4.8031
X5.9843Y-4.9114
X5.9843Y-5.0098
X5.9843Y-5.1181
X5.9941Y-3.1398
X6.0531Y-2.9724
X6.0827Y-3.1201
X6.0992Y-3.2709
T3
X5.6661Y-5.3051
X5.7579Y-2.4606
X5.7579Y-2.7067
X5.7661Y-5.3051
X5.8661Y-5.3051
X5.9547Y-2.4606
X5.9547Y-2.7067
X5.9661Y-5.3051
X6.0661Y-5.3051
T4
X4.585Y-2.9232
X4.585Y-3.0232
X4.585Y-3.1232
X4.585Y-3.2232
X4.585Y-3.3232
X4.585Y-4.1374
X4.585Y-4.2374
X4.585Y-4.3374
X4.585Y-4.4374
X4.585Y-4.5374
X4.685Y-2.9232
X4.685Y-3.0232
X4.685Y-3.1232
X4.685Y-3.2232
X4.685Y-3.3232
X4.685Y-4.1374
X4.685Y-4.2374
X4.685Y-4.3374
X4.685Y-4.4374
X4.685Y-4.5374
T5
X4.7305Y-5.2501
X4.7851Y-5.3619
X4.8396Y-5.2501
X4.8941Y-5.3619
X4.9487Y-5.2501
X5.0032Y-5.3619
X5.0577Y-5.2501
X5.1122Y-5.3619
X5.1668Y-5.2501
T6
X4.4567Y-5.306
X5.4406Y-5.306
T7
X5.2539Y-3.135
X5.2543Y-4.9646
X6.4646Y-3.135
X6.4646Y-4.9646
T8
X5.3248Y-2.7559
X6.3878Y-2.7559
M30
