%TF.GenerationSoftware,KiCad,Pcbnew,9.0.3*%
%TF.CreationDate,2025-08-23T16:53:47-05:00*%
%TF.ProjectId,PeripheralSOMBreakout,50657269-7068-4657-9261-6c534f4d4272,rev?*%
%TF.SameCoordinates,Original*%
%TF.FileFunction,Copper,L1,Top*%
%TF.FilePolarity,Positive*%
%FSLAX46Y46*%
G04 Gerber Fmt 4.6, Leading zero omitted, Abs format (unit mm)*
G04 Created by KiCad (PCBNEW 9.0.3) date 2025-08-23 16:53:47*
%MOMM*%
%LPD*%
G01*
G04 APERTURE LIST*
G04 Aperture macros list*
%AMRoundRect*
0 Rectangle with rounded corners*
0 $1 Rounding radius*
0 $2 $3 $4 $5 $6 $7 $8 $9 X,Y pos of 4 corners*
0 Add a 4 corners polygon primitive as box body*
4,1,4,$2,$3,$4,$5,$6,$7,$8,$9,$2,$3,0*
0 Add four circle primitives for the rounded corners*
1,1,$1+$1,$2,$3*
1,1,$1+$1,$4,$5*
1,1,$1+$1,$6,$7*
1,1,$1+$1,$8,$9*
0 Add four rect primitives between the rounded corners*
20,1,$1+$1,$2,$3,$4,$5,0*
20,1,$1+$1,$4,$5,$6,$7,0*
20,1,$1+$1,$6,$7,$8,$9,0*
20,1,$1+$1,$8,$9,$2,$3,0*%
G04 Aperture macros list end*
%TA.AperFunction,ComponentPad*%
%ADD10C,4.116000*%
%TD*%
%TA.AperFunction,ComponentPad*%
%ADD11R,1.575000X1.575000*%
%TD*%
%TA.AperFunction,ComponentPad*%
%ADD12C,1.575000*%
%TD*%
%TA.AperFunction,ComponentPad*%
%ADD13C,8.115000*%
%TD*%
%TA.AperFunction,ComponentPad*%
%ADD14R,1.700000X1.700000*%
%TD*%
%TA.AperFunction,ComponentPad*%
%ADD15C,1.524000*%
%TD*%
%TA.AperFunction,SMDPad,CuDef*%
%ADD16RoundRect,0.237500X0.237500X-0.250000X0.237500X0.250000X-0.237500X0.250000X-0.237500X-0.250000X0*%
%TD*%
%TA.AperFunction,ComponentPad*%
%ADD17C,1.700000*%
%TD*%
%TA.AperFunction,SMDPad,CuDef*%
%ADD18RoundRect,0.237500X0.250000X0.237500X-0.250000X0.237500X-0.250000X-0.237500X0.250000X-0.237500X0*%
%TD*%
%TA.AperFunction,SMDPad,CuDef*%
%ADD19R,0.550000X1.800000*%
%TD*%
%TA.AperFunction,ComponentPad*%
%ADD20C,3.600000*%
%TD*%
%TA.AperFunction,ConnectorPad*%
%ADD21C,6.400000*%
%TD*%
%TA.AperFunction,ViaPad*%
%ADD22C,0.600000*%
%TD*%
%TA.AperFunction,ViaPad*%
%ADD23C,0.500000*%
%TD*%
%TA.AperFunction,Conductor*%
%ADD24C,0.150000*%
%TD*%
%TA.AperFunction,Conductor*%
%ADD25C,0.250000*%
%TD*%
G04 APERTURE END LIST*
D10*
%TO.P,J7,0,PAD*%
%TO.N,unconnected-(J7-PAD-Pad0)*%
X113200750Y-134772500D03*
%TO.N,unconnected-(J7-PAD-Pad0)_1*%
X138190750Y-134772500D03*
D11*
%TO.P,J7,1,1*%
%TO.N,unconnected-(J7-Pad1)*%
X131235750Y-133352500D03*
D12*
%TO.P,J7,2,2*%
%TO.N,/CAN_L*%
X128465750Y-133352500D03*
%TO.P,J7,3,3*%
%TO.N,unconnected-(J7-Pad3)*%
X125695750Y-133352500D03*
%TO.P,J7,4,4*%
%TO.N,unconnected-(J7-Pad4)*%
X122925750Y-133352500D03*
%TO.P,J7,5,5*%
%TO.N,unconnected-(J7-Pad5)*%
X120155750Y-133352500D03*
%TO.P,J7,6,6*%
%TO.N,unconnected-(J7-Pad6)*%
X129850750Y-136192500D03*
%TO.P,J7,7,7*%
%TO.N,/CAN_H*%
X127080750Y-136192500D03*
%TO.P,J7,8,8*%
%TO.N,unconnected-(J7-Pad8)*%
X124310750Y-136192500D03*
%TO.P,J7,9,9*%
%TO.N,unconnected-(J7-Pad9)*%
X121540750Y-136192500D03*
%TD*%
D13*
%TO.P,J3,1,Pin_1*%
%TO.N,GND*%
X162250000Y-70000000D03*
%TD*%
D14*
%TO.P,TP3,1,1*%
%TO.N,GND*%
X151250000Y-62500000D03*
%TD*%
D15*
%TO.P,J5,1,CH0*%
%TO.N,/SPI2_MISO*%
X116460000Y-115250000D03*
%TO.P,J5,2,CH1*%
%TO.N,/SPI2_NSS*%
X119000000Y-115250000D03*
%TO.P,J5,3,CH2*%
%TO.N,/SPI2_SCK*%
X116460000Y-112710000D03*
%TO.P,J5,4,CH3*%
%TO.N,/SPI2_MOSI*%
X119000000Y-112710000D03*
%TO.P,J5,5,CH4*%
%TO.N,unconnected-(J5-CH4-Pad5)*%
X116460000Y-110170000D03*
%TO.P,J5,6,CH5*%
%TO.N,unconnected-(J5-CH5-Pad6)*%
X119000000Y-110170000D03*
%TO.P,J5,7,CH6*%
%TO.N,unconnected-(J5-CH6-Pad7)*%
X116460000Y-107630000D03*
%TO.P,J5,8,CH7*%
%TO.N,unconnected-(J5-CH7-Pad8)*%
X119000000Y-107630000D03*
%TO.P,J5,9,GND*%
%TO.N,GND*%
X116460000Y-105090000D03*
%TO.P,J5,10,GND*%
X119000000Y-105090000D03*
%TD*%
D16*
%TO.P,R2,1*%
%TO.N,+3.3V*%
X152500000Y-86082500D03*
%TO.P,R2,2*%
%TO.N,/I2C1_SCL*%
X152500000Y-84257500D03*
%TD*%
D13*
%TO.P,J2,1,Pin_1*%
%TO.N,+24V*%
X135250000Y-70000000D03*
%TD*%
D14*
%TO.P,J6,1,Pin_1*%
%TO.N,/ADC1_IN11*%
X143920000Y-134750000D03*
D17*
%TO.P,J6,2,Pin_2*%
%TO.N,/ADC1_IN10*%
X146460000Y-134750000D03*
%TO.P,J6,3,Pin_3*%
%TO.N,/ADC1_IN9*%
X149000000Y-134750000D03*
%TO.P,J6,4,Pin_4*%
%TO.N,/ADC1_IN7*%
X151540000Y-134750000D03*
%TO.P,J6,5,Pin_5*%
%TO.N,/OPAMP1_VINP*%
X154080000Y-134750000D03*
%TD*%
D14*
%TO.P,TP1,1,1*%
%TO.N,+3.3V*%
X146250000Y-62500000D03*
%TD*%
D18*
%TO.P,R1,1*%
%TO.N,+3.3V*%
X156162500Y-84250000D03*
%TO.P,R1,2*%
%TO.N,/I2C1_SDA*%
X154337500Y-84250000D03*
%TD*%
D15*
%TO.P,J4,1,CH0*%
%TO.N,/I2C1_SDA*%
X116460000Y-84410000D03*
%TO.P,J4,2,CH1*%
%TO.N,/I2C1_SCL*%
X119000000Y-84410000D03*
%TO.P,J4,3,CH2*%
%TO.N,/CAN_L*%
X116460000Y-81870000D03*
%TO.P,J4,4,CH3*%
%TO.N,/CAN_H*%
X119000000Y-81870000D03*
%TO.P,J4,5,CH4*%
%TO.N,/SPI1_MISO*%
X116460000Y-79330000D03*
%TO.P,J4,6,CH5*%
%TO.N,/SPI1_MOSI*%
X119000000Y-79330000D03*
%TO.P,J4,7,CH6*%
%TO.N,/SPI1_SCK*%
X116460000Y-76790000D03*
%TO.P,J4,8,CH7*%
%TO.N,/SPI1_NSS*%
X119000000Y-76790000D03*
%TO.P,J4,9,GND*%
%TO.N,GND*%
X116460000Y-74250000D03*
%TO.P,J4,10,GND*%
X119000000Y-74250000D03*
%TD*%
D14*
%TO.P,TP4,1,1*%
%TO.N,GNDA*%
X151250000Y-68750000D03*
%TD*%
%TO.P,TP2,1,1*%
%TO.N,VDDA*%
X146250000Y-68750000D03*
%TD*%
D19*
%TO.P,J1,1,GND*%
%TO.N,GND*%
X153620000Y-77480000D03*
%TO.P,J1,2,+3.3v*%
%TO.N,+3.3V*%
X153620000Y-81780000D03*
%TO.P,J1,3,GND*%
%TO.N,GND*%
X152820000Y-77480000D03*
%TO.P,J1,4,I2C1_SDA*%
%TO.N,/I2C1_SDA*%
X152820000Y-81780000D03*
%TO.P,J1,5,GND*%
%TO.N,GND*%
X152020000Y-77480000D03*
%TO.P,J1,6,I2C1_SCL*%
%TO.N,/I2C1_SCL*%
X152020000Y-81780000D03*
%TO.P,J1,7,OPAMP1_VINP*%
%TO.N,/OPAMP1_VINP*%
X151220000Y-77480000D03*
%TO.P,J1,8,VDDA*%
%TO.N,VDDA*%
X151220000Y-81780000D03*
%TO.P,J1,9,ADC1_IN7*%
%TO.N,/ADC1_IN7*%
X150420000Y-77480000D03*
%TO.P,J1,10,GNDA*%
%TO.N,GNDA*%
X150420000Y-81780000D03*
%TO.P,J1,11,ADC1_IN9*%
%TO.N,/ADC1_IN9*%
X149620003Y-77480000D03*
%TO.P,J1,12,SPI2_NSS*%
%TO.N,/SPI2_NSS*%
X149620003Y-81780000D03*
%TO.P,J1,13,ADC1_IN10*%
%TO.N,/ADC1_IN10*%
X148820000Y-77480000D03*
%TO.P,J1,14,SPI2_MISO*%
%TO.N,/SPI2_MISO*%
X148820000Y-81780000D03*
%TO.P,J1,15,ADC1_IN11*%
%TO.N,/ADC1_IN11*%
X148020000Y-77480000D03*
%TO.P,J1,16,SPI2_MOSI*%
%TO.N,/SPI2_MOSI*%
X148020000Y-81780000D03*
%TO.P,J1,17,SPI1_MOSI*%
%TO.N,/SPI1_MOSI*%
X147220000Y-77480000D03*
%TO.P,J1,18,SPI2_SCK*%
%TO.N,/SPI2_SCK*%
X147220000Y-81780000D03*
%TO.P,J1,19,SPI1_NSS*%
%TO.N,/SPI1_NSS*%
X146420000Y-77480000D03*
%TO.P,J1,20,CAN_L*%
%TO.N,/CAN_L*%
X146420000Y-81780000D03*
%TO.P,J1,21,SPI1_MISO*%
%TO.N,/SPI1_MISO*%
X145620000Y-77480000D03*
%TO.P,J1,22,CAN_H*%
%TO.N,/CAN_H*%
X145620000Y-81780000D03*
%TO.P,J1,23,SPI1_SCK*%
%TO.N,/SPI1_SCK*%
X144820000Y-77480000D03*
%TO.P,J1,24,+24V_In*%
%TO.N,+24V*%
X144820000Y-81780000D03*
D20*
%TO.P,J1,25,MNT*%
%TO.N,unconnected-(J1-MNT-Pad25)_1*%
X133450000Y-79630000D03*
D21*
%TO.N,unconnected-(J1-MNT-Pad25)_2*%
X133450000Y-79630000D03*
D20*
%TO.P,J1,26,MNT*%
%TO.N,unconnected-(J1-MNT-Pad26)_2*%
X164200000Y-79630000D03*
D21*
%TO.N,unconnected-(J1-MNT-Pad26)*%
X164200000Y-79630000D03*
D20*
%TO.P,J1,27,MNT*%
%TO.N,unconnected-(J1-MNT-Pad27)*%
X164200000Y-126100000D03*
D21*
%TO.N,unconnected-(J1-MNT-Pad27)_1*%
X164200000Y-126100000D03*
D20*
%TO.P,J1,28,MNT*%
%TO.N,unconnected-(J1-MNT-Pad28)_1*%
X133460000Y-126100000D03*
D21*
%TO.N,unconnected-(J1-MNT-Pad28)_2*%
X133460000Y-126100000D03*
%TD*%
D22*
%TO.N,GND*%
X137500000Y-96000000D03*
X143500000Y-90000000D03*
X148750000Y-75250000D03*
X152000000Y-99000000D03*
X131500000Y-102000000D03*
X152000000Y-101250000D03*
X152000000Y-114500000D03*
X153750000Y-75500000D03*
X122500000Y-85250000D03*
X130500000Y-85250000D03*
X148750000Y-73500000D03*
X124000000Y-109500000D03*
X125250000Y-82750000D03*
X136000000Y-97500000D03*
X129500000Y-100500000D03*
X152000000Y-127250000D03*
X149000000Y-124750000D03*
X130000000Y-103500000D03*
X152000000Y-122000000D03*
X149000000Y-99000000D03*
X127750000Y-82750000D03*
X148000000Y-85500000D03*
X152000000Y-130000000D03*
X126500000Y-103500000D03*
X149000000Y-122000000D03*
X123500000Y-106500000D03*
X128500000Y-105000000D03*
X149000000Y-96250000D03*
X149000000Y-114500000D03*
X126000000Y-76500000D03*
X130500000Y-82750000D03*
X128750000Y-74000000D03*
X144500000Y-85500000D03*
X127750000Y-85250000D03*
X122500000Y-82750000D03*
X127000000Y-106500000D03*
X152000000Y-109250000D03*
X139000000Y-94500000D03*
X152000000Y-88500000D03*
X154500000Y-79250000D03*
X152000000Y-91000000D03*
X141500000Y-71750000D03*
X149000000Y-88500000D03*
X152000000Y-106500000D03*
X149000000Y-85750000D03*
X140500000Y-93000000D03*
X152000000Y-104000000D03*
X142000000Y-91500000D03*
X134500000Y-99000000D03*
X149000000Y-111750000D03*
X141500000Y-70000000D03*
X149000000Y-106500000D03*
X123500000Y-74000000D03*
X149000000Y-104000000D03*
X125000000Y-105000000D03*
X152000000Y-124750000D03*
X125250000Y-85250000D03*
X125500000Y-108000000D03*
X128000000Y-102000000D03*
X152250000Y-79750000D03*
X137000000Y-93000000D03*
X152000000Y-96250000D03*
X141500000Y-73500000D03*
X149000000Y-101250000D03*
X122500000Y-111000000D03*
X152000000Y-119750000D03*
X141500000Y-88500000D03*
X123500000Y-76500000D03*
X143000000Y-87000000D03*
X146500000Y-87000000D03*
X149000000Y-127250000D03*
X133000000Y-100500000D03*
X149000000Y-91000000D03*
X140000000Y-90000000D03*
X126000000Y-74000000D03*
X152000000Y-93750000D03*
X135500000Y-94500000D03*
X128750000Y-76500000D03*
X131000000Y-99000000D03*
X134000000Y-96000000D03*
X132500000Y-97500000D03*
X152000000Y-117000000D03*
X149000000Y-119750000D03*
X149000000Y-130000000D03*
X149000000Y-117000000D03*
X138500000Y-91500000D03*
X152000000Y-75500000D03*
X145000000Y-88500000D03*
X149000000Y-109250000D03*
X152000000Y-111750000D03*
X149000000Y-93750000D03*
%TO.N,+3.3V*%
X154920000Y-83080000D03*
D23*
%TO.N,/SPI1_MISO*%
X145343068Y-75025000D03*
%TO.N,/SPI1_MOSI*%
X147000000Y-76000000D03*
%TO.N,/ADC1_IN7*%
X150420000Y-79250000D03*
%TO.N,/SPI2_MOSI*%
X147531588Y-83531585D03*
%TO.N,/SPI2_SCK*%
X146750000Y-83500000D03*
%TO.N,/SPI1_SCK*%
X144000000Y-74250000D03*
%TO.N,/SPI1_NSS*%
X146000000Y-74500000D03*
%TO.N,/SPI2_NSS*%
X149129773Y-83605273D03*
%TO.N,/ADC1_IN11*%
X148020000Y-79250000D03*
%TO.N,/ADC1_IN10*%
X148820000Y-79250000D03*
%TO.N,/OPAMP1_VINP*%
X151220000Y-79250000D03*
%TO.N,/SPI2_MISO*%
X148331137Y-83558525D03*
%TO.N,/ADC1_IN9*%
X149620003Y-79250000D03*
%TD*%
D24*
%TO.N,/CAN_H*%
X127080750Y-132463888D02*
X127080750Y-136192500D01*
X114700000Y-120083139D02*
X127080750Y-132463888D01*
X114700000Y-81900000D02*
X114700000Y-120083139D01*
X117730000Y-80600000D02*
X116000000Y-80600000D01*
X116000000Y-80600000D02*
X114700000Y-81900000D01*
X119000000Y-81870000D02*
X117730000Y-80600000D01*
%TO.N,/CAN_L*%
X115051000Y-83279000D02*
X115051000Y-119937750D01*
X116460000Y-81870000D02*
X115051000Y-83279000D01*
X115051000Y-119937750D02*
X128465750Y-133352500D01*
%TO.N,VDDA*%
X150750000Y-80000000D02*
X145248194Y-80000000D01*
X143101000Y-69899000D02*
X144250000Y-68750000D01*
X145248194Y-80000000D02*
X143101000Y-77852806D01*
X151220000Y-81780000D02*
X151220000Y-80470000D01*
X151220000Y-80470000D02*
X150750000Y-80000000D01*
X144250000Y-68750000D02*
X146250000Y-68750000D01*
X143101000Y-77852806D02*
X143101000Y-69899000D01*
D25*
%TO.N,+3.3V*%
X154920000Y-83080000D02*
X153620000Y-81780000D01*
X152500000Y-86082500D02*
X154330000Y-86082500D01*
X156162500Y-84250000D02*
X156090000Y-84250000D01*
X156090000Y-84250000D02*
X154920000Y-83080000D01*
X154330000Y-86082500D02*
X156162500Y-84250000D01*
D24*
%TO.N,GNDA*%
X150420000Y-81780000D02*
X150420000Y-80750000D01*
X149750000Y-67250000D02*
X151250000Y-68750000D01*
X142750000Y-77998194D02*
X142750000Y-69749000D01*
X142750000Y-69749000D02*
X145249000Y-67250000D01*
X145102805Y-80351000D02*
X142750000Y-77998194D01*
X150021000Y-80351000D02*
X145102805Y-80351000D01*
X145249000Y-67250000D02*
X149750000Y-67250000D01*
X150420000Y-80750000D02*
X150021000Y-80351000D01*
%TO.N,/SPI1_MISO*%
X145620000Y-77480000D02*
X145620000Y-75301932D01*
X145620000Y-75301932D02*
X145343068Y-75025000D01*
%TO.N,/SPI1_MOSI*%
X147220000Y-76220000D02*
X147000000Y-76000000D01*
X147220000Y-77480000D02*
X147220000Y-76220000D01*
%TO.N,/ADC1_IN7*%
X150420000Y-79250000D02*
X150420000Y-77480000D01*
%TO.N,/SPI2_MOSI*%
X148020000Y-83043173D02*
X147531588Y-83531585D01*
X148020000Y-81780000D02*
X148020000Y-83043173D01*
%TO.N,/SPI2_SCK*%
X147220000Y-81780000D02*
X147220000Y-83030000D01*
X147220000Y-83030000D02*
X146750000Y-83500000D01*
%TO.N,/SPI1_SCK*%
X144820000Y-75070000D02*
X144000000Y-74250000D01*
X144820000Y-77480000D02*
X144820000Y-75070000D01*
%TO.N,/SPI1_NSS*%
X146420000Y-74920000D02*
X146420000Y-77480000D01*
X146000000Y-74500000D02*
X146420000Y-74920000D01*
%TO.N,/I2C1_SCL*%
X152500000Y-84257500D02*
X119152500Y-84257500D01*
X152020000Y-81780000D02*
X152020000Y-83777500D01*
X152020000Y-83777500D02*
X152500000Y-84257500D01*
X119152500Y-84257500D02*
X119000000Y-84410000D01*
%TO.N,/I2C1_SDA*%
X151500000Y-84608500D02*
X120750000Y-84608500D01*
X151912500Y-85021000D02*
X151500000Y-84608500D01*
X117800000Y-85750000D02*
X116460000Y-84410000D01*
X119608500Y-85750000D02*
X117800000Y-85750000D01*
X152820000Y-82732500D02*
X154337500Y-84250000D01*
X152820000Y-81780000D02*
X152820000Y-82732500D01*
X153566500Y-85021000D02*
X151912500Y-85021000D01*
X120750000Y-84608500D02*
X119608500Y-85750000D01*
X154337500Y-84250000D02*
X153566500Y-85021000D01*
%TO.N,/SPI2_NSS*%
X149620003Y-83115043D02*
X149129773Y-83605273D01*
X149620003Y-81780000D02*
X149620003Y-83115043D01*
%TO.N,/ADC1_IN11*%
X148020000Y-79250000D02*
X148020000Y-77480000D01*
%TO.N,/ADC1_IN10*%
X148820000Y-79250000D02*
X148820000Y-77480000D01*
%TO.N,/OPAMP1_VINP*%
X151220000Y-79250000D02*
X151220000Y-77480000D01*
%TO.N,/SPI2_MISO*%
X148820000Y-81780000D02*
X148820000Y-83069662D01*
X148820000Y-83069662D02*
X148331137Y-83558525D01*
%TO.N,/ADC1_IN9*%
X149620003Y-79250000D02*
X149620003Y-77480000D01*
%TO.N,/CAN_L*%
X145276000Y-83851000D02*
X121354612Y-83851000D01*
X117700511Y-83110511D02*
X116460000Y-81870000D01*
X120614123Y-83110511D02*
X117700511Y-83110511D01*
X121354612Y-83851000D02*
X120614123Y-83110511D01*
X146420000Y-82707000D02*
X145276000Y-83851000D01*
X146420000Y-81780000D02*
X146420000Y-82707000D01*
%TO.N,/CAN_H*%
X145620000Y-82830000D02*
X144950000Y-83500000D01*
X145620000Y-81780000D02*
X145620000Y-82830000D01*
X144950000Y-83500000D02*
X121500000Y-83500000D01*
X121500000Y-83500000D02*
X119870000Y-81870000D01*
X119870000Y-81870000D02*
X119000000Y-81870000D01*
%TD*%
%TA.AperFunction,Conductor*%
%TO.N,+24V*%
G36*
X140193039Y-65269685D02*
G01*
X140238794Y-65322489D01*
X140250000Y-65374000D01*
X140250000Y-79750000D01*
X141000000Y-80500000D01*
X144740116Y-80500000D01*
X144807155Y-80519685D01*
X144827797Y-80536319D01*
X144842339Y-80550861D01*
X144842340Y-80550862D01*
X144902943Y-80611465D01*
X144902945Y-80611466D01*
X144902949Y-80611469D01*
X144977160Y-80654314D01*
X144977167Y-80654318D01*
X145014341Y-80664278D01*
X145074001Y-80700643D01*
X145104530Y-80763490D01*
X145103865Y-80808243D01*
X145094500Y-80855326D01*
X145094500Y-82625612D01*
X145094106Y-82635488D01*
X145094075Y-82635876D01*
X145069114Y-82701135D01*
X145012834Y-82742539D01*
X144970469Y-82750000D01*
X138124000Y-82750000D01*
X138056961Y-82730315D01*
X138011206Y-82677511D01*
X138000000Y-82626000D01*
X138000000Y-76000000D01*
X137000000Y-74750000D01*
X130624000Y-74750000D01*
X130556961Y-74730315D01*
X130511206Y-74677511D01*
X130500000Y-74626000D01*
X130500000Y-65374000D01*
X130519685Y-65306961D01*
X130572489Y-65261206D01*
X130624000Y-65250000D01*
X140126000Y-65250000D01*
X140193039Y-65269685D01*
G37*
%TD.AperFunction*%
%TD*%
%TA.AperFunction,Conductor*%
%TO.N,GND*%
G36*
X167003243Y-59800669D02*
G01*
X167327952Y-59817687D01*
X167340860Y-59819044D01*
X167658794Y-59869400D01*
X167671478Y-59872095D01*
X167982429Y-59955414D01*
X167994770Y-59959425D01*
X168295282Y-60074780D01*
X168307138Y-60080058D01*
X168593976Y-60226210D01*
X168605192Y-60232686D01*
X168875165Y-60408008D01*
X168885666Y-60415637D01*
X169135836Y-60618221D01*
X169145481Y-60626906D01*
X169373093Y-60854518D01*
X169381778Y-60864163D01*
X169584362Y-61114333D01*
X169591991Y-61124834D01*
X169767310Y-61394802D01*
X169773792Y-61406029D01*
X169843389Y-61542620D01*
X169919940Y-61692859D01*
X169925219Y-61704717D01*
X170040574Y-62005229D01*
X170044585Y-62017572D01*
X170127902Y-62328515D01*
X170130600Y-62341211D01*
X170180955Y-62659139D01*
X170182312Y-62672047D01*
X170199330Y-62996756D01*
X170199500Y-63003246D01*
X170199500Y-137121876D01*
X170199330Y-137128367D01*
X170182309Y-137453075D01*
X170180952Y-137465982D01*
X170130597Y-137783906D01*
X170127898Y-137796603D01*
X170044578Y-138107545D01*
X170040568Y-138119888D01*
X169925209Y-138420405D01*
X169919930Y-138432262D01*
X169773793Y-138719069D01*
X169767303Y-138730310D01*
X169591979Y-139000281D01*
X169584350Y-139010781D01*
X169381774Y-139260940D01*
X169373089Y-139270586D01*
X169145463Y-139498210D01*
X169135817Y-139506894D01*
X168885663Y-139709463D01*
X168875163Y-139717092D01*
X168605197Y-139892409D01*
X168593957Y-139898899D01*
X168307137Y-140045041D01*
X168295279Y-140050320D01*
X167994760Y-140165678D01*
X167982416Y-140169689D01*
X167671483Y-140253003D01*
X167658787Y-140255701D01*
X167340857Y-140306055D01*
X167327950Y-140307412D01*
X167002746Y-140324456D01*
X166996256Y-140324626D01*
X112253246Y-140324626D01*
X112246756Y-140324456D01*
X111922046Y-140307438D01*
X111909138Y-140306081D01*
X111591205Y-140255726D01*
X111578510Y-140253028D01*
X111267572Y-140169713D01*
X111255227Y-140165702D01*
X111255164Y-140165678D01*
X110954711Y-140050345D01*
X110942854Y-140045066D01*
X110656029Y-139898922D01*
X110644789Y-139892432D01*
X110374826Y-139717117D01*
X110364326Y-139709488D01*
X110114153Y-139506904D01*
X110104507Y-139498219D01*
X109876894Y-139270607D01*
X109868209Y-139260962D01*
X109665627Y-139010797D01*
X109657998Y-139000297D01*
X109496751Y-138752001D01*
X109482673Y-138730322D01*
X109476186Y-138719086D01*
X109330039Y-138432258D01*
X109324769Y-138420422D01*
X109209403Y-138119888D01*
X109205394Y-138107549D01*
X109189890Y-138049689D01*
X109122073Y-137796599D01*
X109119380Y-137783928D01*
X109069018Y-137465967D01*
X109067664Y-137453093D01*
X109050672Y-137128920D01*
X109050503Y-137122505D01*
X109050503Y-134621199D01*
X110892250Y-134621199D01*
X110892250Y-134923800D01*
X110892251Y-134923816D01*
X110931748Y-135223828D01*
X111010073Y-135516139D01*
X111125874Y-135795707D01*
X111125878Y-135795717D01*
X111277183Y-136057785D01*
X111461402Y-136297864D01*
X111461408Y-136297871D01*
X111675378Y-136511841D01*
X111675385Y-136511847D01*
X111915464Y-136696066D01*
X112177532Y-136847371D01*
X112177533Y-136847371D01*
X112177536Y-136847373D01*
X112457115Y-136963178D01*
X112749418Y-137041501D01*
X113049443Y-137081000D01*
X113049450Y-137081000D01*
X113352050Y-137081000D01*
X113352057Y-137081000D01*
X113652082Y-137041501D01*
X113944385Y-136963178D01*
X114223964Y-136847373D01*
X114486036Y-136696066D01*
X114726116Y-136511846D01*
X114940096Y-136297866D01*
X115099397Y-136090261D01*
X120502750Y-136090261D01*
X120502750Y-136294738D01*
X120542638Y-136495265D01*
X120542640Y-136495273D01*
X120620885Y-136684174D01*
X120620890Y-136684183D01*
X120734482Y-136854185D01*
X120734485Y-136854189D01*
X120879060Y-136998764D01*
X120879064Y-136998767D01*
X121049066Y-137112359D01*
X121049072Y-137112362D01*
X121049073Y-137112363D01*
X121237977Y-137190610D01*
X121438511Y-137230499D01*
X121438514Y-137230500D01*
X121438516Y-137230500D01*
X121642986Y-137230500D01*
X121642987Y-137230499D01*
X121843523Y-137190610D01*
X122032427Y-137112363D01*
X122202436Y-136998767D01*
X122347017Y-136854186D01*
X122460613Y-136684177D01*
X122538860Y-136495273D01*
X122578750Y-136294734D01*
X122578750Y-136090266D01*
X122578750Y-136090263D01*
X122578749Y-136090261D01*
X123272750Y-136090261D01*
X123272750Y-136294738D01*
X123312638Y-136495265D01*
X123312640Y-136495273D01*
X123390885Y-136684174D01*
X123390890Y-136684183D01*
X123504482Y-136854185D01*
X123504485Y-136854189D01*
X123649060Y-136998764D01*
X123649064Y-136998767D01*
X123819066Y-137112359D01*
X123819072Y-137112362D01*
X123819073Y-137112363D01*
X124007977Y-137190610D01*
X124208511Y-137230499D01*
X124208514Y-137230500D01*
X124208516Y-137230500D01*
X124412986Y-137230500D01*
X124412987Y-137230499D01*
X124613523Y-137190610D01*
X124802427Y-137112363D01*
X124972436Y-136998767D01*
X125117017Y-136854186D01*
X125230613Y-136684177D01*
X125308860Y-136495273D01*
X125348750Y-136294734D01*
X125348750Y-136090266D01*
X125348750Y-136090263D01*
X125348749Y-136090261D01*
X125342289Y-136057785D01*
X125308860Y-135889727D01*
X125230613Y-135700823D01*
X125230612Y-135700822D01*
X125230609Y-135700816D01*
X125117017Y-135530814D01*
X125117014Y-135530810D01*
X124972439Y-135386235D01*
X124972435Y-135386232D01*
X124802433Y-135272640D01*
X124802424Y-135272635D01*
X124613523Y-135194390D01*
X124613515Y-135194388D01*
X124412987Y-135154500D01*
X124412984Y-135154500D01*
X124208516Y-135154500D01*
X124208513Y-135154500D01*
X124007984Y-135194388D01*
X124007976Y-135194390D01*
X123819075Y-135272635D01*
X123819066Y-135272640D01*
X123649064Y-135386232D01*
X123649060Y-135386235D01*
X123504485Y-135530810D01*
X123504482Y-135530814D01*
X123390890Y-135700816D01*
X123390885Y-135700825D01*
X123312640Y-135889726D01*
X123312638Y-135889734D01*
X123272750Y-136090261D01*
X122578749Y-136090261D01*
X122572289Y-136057785D01*
X122538860Y-135889727D01*
X122460613Y-135700823D01*
X122460612Y-135700822D01*
X122460609Y-135700816D01*
X122347017Y-135530814D01*
X122347014Y-135530810D01*
X122202439Y-135386235D01*
X122202435Y-135386232D01*
X122032433Y-135272640D01*
X122032424Y-135272635D01*
X121843523Y-135194390D01*
X121843515Y-135194388D01*
X121642987Y-135154500D01*
X121642984Y-135154500D01*
X121438516Y-135154500D01*
X121438513Y-135154500D01*
X121237984Y-135194388D01*
X121237976Y-135194390D01*
X121049075Y-135272635D01*
X121049066Y-135272640D01*
X120879064Y-135386232D01*
X120879060Y-135386235D01*
X120734485Y-135530810D01*
X120734482Y-135530814D01*
X120620890Y-135700816D01*
X120620885Y-135700825D01*
X120542640Y-135889726D01*
X120542638Y-135889734D01*
X120502750Y-136090261D01*
X115099397Y-136090261D01*
X115124316Y-136057786D01*
X115275623Y-135795714D01*
X115391428Y-135516135D01*
X115469751Y-135223832D01*
X115509250Y-134923807D01*
X115509250Y-134621193D01*
X115469751Y-134321168D01*
X115391428Y-134028865D01*
X115275623Y-133749286D01*
X115124316Y-133487214D01*
X115099393Y-133454734D01*
X114995750Y-133319663D01*
X114995748Y-133319661D01*
X114942495Y-133250261D01*
X119117750Y-133250261D01*
X119117750Y-133454738D01*
X119157638Y-133655265D01*
X119157640Y-133655273D01*
X119235885Y-133844174D01*
X119235890Y-133844183D01*
X119349482Y-134014185D01*
X119349485Y-134014189D01*
X119494060Y-134158764D01*
X119494064Y-134158767D01*
X119664066Y-134272359D01*
X119664072Y-134272362D01*
X119664073Y-134272363D01*
X119852977Y-134350610D01*
X120053511Y-134390499D01*
X120053514Y-134390500D01*
X120053516Y-134390500D01*
X120257986Y-134390500D01*
X120257987Y-134390499D01*
X120458523Y-134350610D01*
X120647427Y-134272363D01*
X120817436Y-134158767D01*
X120962017Y-134014186D01*
X121075613Y-133844177D01*
X121153860Y-133655273D01*
X121193750Y-133454734D01*
X121193750Y-133250266D01*
X121193750Y-133250263D01*
X121193749Y-133250261D01*
X121887750Y-133250261D01*
X121887750Y-133454738D01*
X121927638Y-133655265D01*
X121927640Y-133655273D01*
X122005885Y-133844174D01*
X122005890Y-133844183D01*
X122119482Y-134014185D01*
X122119485Y-134014189D01*
X122264060Y-134158764D01*
X122264064Y-134158767D01*
X122434066Y-134272359D01*
X122434072Y-134272362D01*
X122434073Y-134272363D01*
X122622977Y-134350610D01*
X122823511Y-134390499D01*
X122823514Y-134390500D01*
X122823516Y-134390500D01*
X123027986Y-134390500D01*
X123027987Y-134390499D01*
X123228523Y-134350610D01*
X123417427Y-134272363D01*
X123587436Y-134158767D01*
X123732017Y-134014186D01*
X123845613Y-133844177D01*
X123923860Y-133655273D01*
X123963750Y-133454734D01*
X123963750Y-133250266D01*
X123963750Y-133250263D01*
X123963749Y-133250261D01*
X123923861Y-133049734D01*
X123923860Y-133049727D01*
X123845613Y-132860823D01*
X123845612Y-132860822D01*
X123845609Y-132860816D01*
X123732017Y-132690814D01*
X123732014Y-132690810D01*
X123587439Y-132546235D01*
X123587435Y-132546232D01*
X123417433Y-132432640D01*
X123417424Y-132432635D01*
X123228523Y-132354390D01*
X123228515Y-132354388D01*
X123027987Y-132314500D01*
X123027984Y-132314500D01*
X122823516Y-132314500D01*
X122823513Y-132314500D01*
X122622984Y-132354388D01*
X122622976Y-132354390D01*
X122434075Y-132432635D01*
X122434066Y-132432640D01*
X122264064Y-132546232D01*
X122264060Y-132546235D01*
X122119485Y-132690810D01*
X122119482Y-132690814D01*
X122005890Y-132860816D01*
X122005885Y-132860825D01*
X121927640Y-133049726D01*
X121927638Y-133049734D01*
X121887750Y-133250261D01*
X121193749Y-133250261D01*
X121153861Y-133049734D01*
X121153860Y-133049727D01*
X121075613Y-132860823D01*
X121075612Y-132860822D01*
X121075609Y-132860816D01*
X120962017Y-132690814D01*
X120962014Y-132690810D01*
X120817439Y-132546235D01*
X120817435Y-132546232D01*
X120647433Y-132432640D01*
X120647424Y-132432635D01*
X120458523Y-132354390D01*
X120458515Y-132354388D01*
X120257987Y-132314500D01*
X120257984Y-132314500D01*
X120053516Y-132314500D01*
X120053513Y-132314500D01*
X119852984Y-132354388D01*
X119852976Y-132354390D01*
X119664075Y-132432635D01*
X119664066Y-132432640D01*
X119494064Y-132546232D01*
X119494060Y-132546235D01*
X119349485Y-132690810D01*
X119349482Y-132690814D01*
X119235890Y-132860816D01*
X119235885Y-132860825D01*
X119157640Y-133049726D01*
X119157638Y-133049734D01*
X119117750Y-133250261D01*
X114942495Y-133250261D01*
X114940096Y-133247134D01*
X114940094Y-133247132D01*
X114940091Y-133247128D01*
X114726121Y-133033158D01*
X114726114Y-133033152D01*
X114486035Y-132848933D01*
X114223967Y-132697628D01*
X114223957Y-132697624D01*
X113944389Y-132581823D01*
X113652078Y-132503498D01*
X113352066Y-132464001D01*
X113352063Y-132464000D01*
X113352057Y-132464000D01*
X113049443Y-132464000D01*
X113049437Y-132464000D01*
X113049433Y-132464001D01*
X112749421Y-132503498D01*
X112457110Y-132581823D01*
X112177542Y-132697624D01*
X112177532Y-132697628D01*
X111915464Y-132848933D01*
X111675385Y-133033152D01*
X111675378Y-133033158D01*
X111461408Y-133247128D01*
X111461402Y-133247135D01*
X111277183Y-133487214D01*
X111125878Y-133749282D01*
X111125874Y-133749292D01*
X111010073Y-134028860D01*
X110931748Y-134321171D01*
X110892251Y-134621183D01*
X110892250Y-134621199D01*
X109050503Y-134621199D01*
X109050500Y-81857145D01*
X114374500Y-81857145D01*
X114374500Y-120125991D01*
X114396682Y-120208779D01*
X114418108Y-120245889D01*
X114439535Y-120283001D01*
X123673805Y-129517270D01*
X126507913Y-132351377D01*
X126541398Y-132412700D01*
X126536414Y-132482392D01*
X126494542Y-132538325D01*
X126429078Y-132562742D01*
X126360805Y-132547890D01*
X126351341Y-132542160D01*
X126187433Y-132432640D01*
X126187424Y-132432635D01*
X125998523Y-132354390D01*
X125998515Y-132354388D01*
X125797987Y-132314500D01*
X125797984Y-132314500D01*
X125593516Y-132314500D01*
X125593513Y-132314500D01*
X125392984Y-132354388D01*
X125392976Y-132354390D01*
X125204075Y-132432635D01*
X125204066Y-132432640D01*
X125034064Y-132546232D01*
X125034060Y-132546235D01*
X124889485Y-132690810D01*
X124889482Y-132690814D01*
X124775890Y-132860816D01*
X124775885Y-132860825D01*
X124697640Y-133049726D01*
X124697638Y-133049734D01*
X124657750Y-133250261D01*
X124657750Y-133454738D01*
X124697638Y-133655265D01*
X124697640Y-133655273D01*
X124775885Y-133844174D01*
X124775890Y-133844183D01*
X124889482Y-134014185D01*
X124889485Y-134014189D01*
X125034060Y-134158764D01*
X125034064Y-134158767D01*
X125204066Y-134272359D01*
X125204072Y-134272362D01*
X125204073Y-134272363D01*
X125392977Y-134350610D01*
X125593511Y-134390499D01*
X125593514Y-134390500D01*
X125593516Y-134390500D01*
X125797986Y-134390500D01*
X125797987Y-134390499D01*
X125998523Y-134350610D01*
X126187427Y-134272363D01*
X126357436Y-134158767D01*
X126502017Y-134014186D01*
X126528147Y-133975078D01*
X126581759Y-133930274D01*
X126651084Y-133921566D01*
X126714112Y-133951720D01*
X126750831Y-134011163D01*
X126755250Y-134043969D01*
X126755250Y-134530720D01*
X126741419Y-134587631D01*
X126203755Y-135628453D01*
X126201764Y-135633261D01*
X126201367Y-135633096D01*
X126189030Y-135658701D01*
X126160886Y-135700822D01*
X126082640Y-135889726D01*
X126082638Y-135889734D01*
X126042750Y-136090261D01*
X126042750Y-136294738D01*
X126082638Y-136495265D01*
X126082640Y-136495273D01*
X126160885Y-136684174D01*
X126160890Y-136684183D01*
X126274482Y-136854185D01*
X126274485Y-136854189D01*
X126419060Y-136998764D01*
X126419064Y-136998767D01*
X126589066Y-137112359D01*
X126589072Y-137112362D01*
X126589073Y-137112363D01*
X126777977Y-137190610D01*
X126978511Y-137230499D01*
X126978514Y-137230500D01*
X126978516Y-137230500D01*
X127182986Y-137230500D01*
X127182987Y-137230499D01*
X127383523Y-137190610D01*
X127572427Y-137112363D01*
X127742436Y-136998767D01*
X127887017Y-136854186D01*
X128000613Y-136684177D01*
X128078860Y-136495273D01*
X128118750Y-136294734D01*
X128118750Y-136090266D01*
X128118750Y-136090263D01*
X128118749Y-136090261D01*
X128812750Y-136090261D01*
X128812750Y-136294738D01*
X128852638Y-136495265D01*
X128852640Y-136495273D01*
X128930885Y-136684174D01*
X128930890Y-136684183D01*
X129044482Y-136854185D01*
X129044485Y-136854189D01*
X129189060Y-136998764D01*
X129189064Y-136998767D01*
X129359066Y-137112359D01*
X129359072Y-137112362D01*
X129359073Y-137112363D01*
X129547977Y-137190610D01*
X129748511Y-137230499D01*
X129748514Y-137230500D01*
X129748516Y-137230500D01*
X129952986Y-137230500D01*
X129952987Y-137230499D01*
X130153523Y-137190610D01*
X130342427Y-137112363D01*
X130512436Y-136998767D01*
X130657017Y-136854186D01*
X130770613Y-136684177D01*
X130848860Y-136495273D01*
X130888750Y-136294734D01*
X130888750Y-136090266D01*
X130888750Y-136090263D01*
X130888749Y-136090261D01*
X130882289Y-136057785D01*
X130848860Y-135889727D01*
X130770613Y-135700823D01*
X130770612Y-135700822D01*
X130770609Y-135700816D01*
X130657017Y-135530814D01*
X130657014Y-135530810D01*
X130512439Y-135386235D01*
X130512435Y-135386232D01*
X130342433Y-135272640D01*
X130342424Y-135272635D01*
X130153523Y-135194390D01*
X130153515Y-135194388D01*
X129952987Y-135154500D01*
X129952984Y-135154500D01*
X129748516Y-135154500D01*
X129748513Y-135154500D01*
X129547984Y-135194388D01*
X129547976Y-135194390D01*
X129359075Y-135272635D01*
X129359066Y-135272640D01*
X129189064Y-135386232D01*
X129189060Y-135386235D01*
X129044485Y-135530810D01*
X129044482Y-135530814D01*
X128930890Y-135700816D01*
X128930885Y-135700825D01*
X128852640Y-135889726D01*
X128852638Y-135889734D01*
X128812750Y-136090261D01*
X128118749Y-136090261D01*
X128112289Y-136057785D01*
X128078860Y-135889727D01*
X128000613Y-135700823D01*
X127972610Y-135658914D01*
X127960920Y-135633734D01*
X127959990Y-135634105D01*
X127957740Y-135628448D01*
X127957739Y-135628445D01*
X127899725Y-135516139D01*
X127464721Y-134674047D01*
X127464720Y-134674045D01*
X127437421Y-134621199D01*
X135882250Y-134621199D01*
X135882250Y-134923800D01*
X135882251Y-134923816D01*
X135921748Y-135223828D01*
X136000073Y-135516139D01*
X136115874Y-135795707D01*
X136115878Y-135795717D01*
X136267183Y-136057785D01*
X136451402Y-136297864D01*
X136451408Y-136297871D01*
X136665378Y-136511841D01*
X136665385Y-136511847D01*
X136905464Y-136696066D01*
X137167532Y-136847371D01*
X137167533Y-136847371D01*
X137167536Y-136847373D01*
X137447115Y-136963178D01*
X137739418Y-137041501D01*
X138039443Y-137081000D01*
X138039450Y-137081000D01*
X138342050Y-137081000D01*
X138342057Y-137081000D01*
X138642082Y-137041501D01*
X138934385Y-136963178D01*
X139213964Y-136847373D01*
X139476036Y-136696066D01*
X139716116Y-136511846D01*
X139930096Y-136297866D01*
X140114316Y-136057786D01*
X140265623Y-135795714D01*
X140381428Y-135516135D01*
X140459751Y-135223832D01*
X140499250Y-134923807D01*
X140499250Y-134621193D01*
X140459751Y-134321168D01*
X140381428Y-134028865D01*
X140375348Y-134014186D01*
X140334963Y-133916686D01*
X140317829Y-133875321D01*
X142819500Y-133875321D01*
X142819500Y-135624678D01*
X142834032Y-135697735D01*
X142834033Y-135697739D01*
X142834034Y-135697740D01*
X142889399Y-135780601D01*
X142972260Y-135835966D01*
X142972264Y-135835967D01*
X143045321Y-135850499D01*
X143045324Y-135850500D01*
X143045326Y-135850500D01*
X144794676Y-135850500D01*
X144794677Y-135850499D01*
X144867740Y-135835966D01*
X144950601Y-135780601D01*
X145005966Y-135697740D01*
X145020500Y-135624674D01*
X145020500Y-134663389D01*
X145359500Y-134663389D01*
X145359500Y-134836611D01*
X145386598Y-135007701D01*
X145440127Y-135172445D01*
X145518768Y-135326788D01*
X145620586Y-135466928D01*
X145743072Y-135589414D01*
X145883212Y-135691232D01*
X146037555Y-135769873D01*
X146202299Y-135823402D01*
X146373389Y-135850500D01*
X146373390Y-135850500D01*
X146546610Y-135850500D01*
X146546611Y-135850500D01*
X146717701Y-135823402D01*
X146882445Y-135769873D01*
X147036788Y-135691232D01*
X147176928Y-135589414D01*
X147299414Y-135466928D01*
X147401232Y-135326788D01*
X147479873Y-135172445D01*
X147533402Y-135007701D01*
X147560500Y-134836611D01*
X147560500Y-134663389D01*
X147899500Y-134663389D01*
X147899500Y-134836611D01*
X147926598Y-135007701D01*
X147980127Y-135172445D01*
X148058768Y-135326788D01*
X148160586Y-135466928D01*
X148283072Y-135589414D01*
X148423212Y-135691232D01*
X148577555Y-135769873D01*
X148742299Y-135823402D01*
X148913389Y-135850500D01*
X148913390Y-135850500D01*
X149086610Y-135850500D01*
X149086611Y-135850500D01*
X149257701Y-135823402D01*
X149422445Y-135769873D01*
X149576788Y-135691232D01*
X149716928Y-135589414D01*
X149839414Y-135466928D01*
X149941232Y-135326788D01*
X150019873Y-135172445D01*
X150073402Y-135007701D01*
X150100500Y-134836611D01*
X150100500Y-134663389D01*
X150439500Y-134663389D01*
X150439500Y-134836611D01*
X150466598Y-135007701D01*
X150520127Y-135172445D01*
X150598768Y-135326788D01*
X150700586Y-135466928D01*
X150823072Y-135589414D01*
X150963212Y-135691232D01*
X151117555Y-135769873D01*
X151282299Y-135823402D01*
X151453389Y-135850500D01*
X151453390Y-135850500D01*
X151626610Y-135850500D01*
X151626611Y-135850500D01*
X151797701Y-135823402D01*
X151962445Y-135769873D01*
X152116788Y-135691232D01*
X152256928Y-135589414D01*
X152379414Y-135466928D01*
X152481232Y-135326788D01*
X152559873Y-135172445D01*
X152613402Y-135007701D01*
X152640500Y-134836611D01*
X152640500Y-134663389D01*
X152979500Y-134663389D01*
X152979500Y-134836611D01*
X153006598Y-135007701D01*
X153060127Y-135172445D01*
X153138768Y-135326788D01*
X153240586Y-135466928D01*
X153363072Y-135589414D01*
X153503212Y-135691232D01*
X153657555Y-135769873D01*
X153822299Y-135823402D01*
X153993389Y-135850500D01*
X153993390Y-135850500D01*
X154166610Y-135850500D01*
X154166611Y-135850500D01*
X154337701Y-135823402D01*
X154502445Y-135769873D01*
X154656788Y-135691232D01*
X154796928Y-135589414D01*
X154919414Y-135466928D01*
X155021232Y-135326788D01*
X155099873Y-135172445D01*
X155153402Y-135007701D01*
X155180500Y-134836611D01*
X155180500Y-134663389D01*
X155153402Y-134492299D01*
X155099873Y-134327555D01*
X155021232Y-134173212D01*
X154919414Y-134033072D01*
X154796928Y-133910586D01*
X154656788Y-133808768D01*
X154502445Y-133730127D01*
X154337701Y-133676598D01*
X154337699Y-133676597D01*
X154337698Y-133676597D01*
X154203010Y-133655265D01*
X154166611Y-133649500D01*
X153993389Y-133649500D01*
X153956990Y-133655265D01*
X153822302Y-133676597D01*
X153657552Y-133730128D01*
X153503211Y-133808768D01*
X153423256Y-133866859D01*
X153363072Y-133910586D01*
X153363070Y-133910588D01*
X153363069Y-133910588D01*
X153240588Y-134033069D01*
X153240588Y-134033070D01*
X153240586Y-134033072D01*
X153232669Y-134043969D01*
X153138768Y-134173211D01*
X153060128Y-134327552D01*
X153006597Y-134492302D01*
X152995739Y-134560857D01*
X152979500Y-134663389D01*
X152640500Y-134663389D01*
X152613402Y-134492299D01*
X152559873Y-134327555D01*
X152481232Y-134173212D01*
X152379414Y-134033072D01*
X152256928Y-133910586D01*
X152116788Y-133808768D01*
X151962445Y-133730127D01*
X151797701Y-133676598D01*
X151797699Y-133676597D01*
X151797698Y-133676597D01*
X151663010Y-133655265D01*
X151626611Y-133649500D01*
X151453389Y-133649500D01*
X151416990Y-133655265D01*
X151282302Y-133676597D01*
X151117552Y-133730128D01*
X150963211Y-133808768D01*
X150883256Y-133866859D01*
X150823072Y-133910586D01*
X150823070Y-133910588D01*
X150823069Y-133910588D01*
X150700588Y-134033069D01*
X150700588Y-134033070D01*
X150700586Y-134033072D01*
X150692669Y-134043969D01*
X150598768Y-134173211D01*
X150520128Y-134327552D01*
X150466597Y-134492302D01*
X150455739Y-134560857D01*
X150439500Y-134663389D01*
X150100500Y-134663389D01*
X150073402Y-134492299D01*
X150019873Y-134327555D01*
X149941232Y-134173212D01*
X149839414Y-134033072D01*
X149716928Y-133910586D01*
X149576788Y-133808768D01*
X149422445Y-133730127D01*
X149257701Y-133676598D01*
X149257699Y-133676597D01*
X149257698Y-133676597D01*
X149123010Y-133655265D01*
X149086611Y-133649500D01*
X148913389Y-133649500D01*
X148876990Y-133655265D01*
X148742302Y-133676597D01*
X148577552Y-133730128D01*
X148423211Y-133808768D01*
X148343256Y-133866859D01*
X148283072Y-133910586D01*
X148283070Y-133910588D01*
X148283069Y-133910588D01*
X148160588Y-134033069D01*
X148160588Y-134033070D01*
X148160586Y-134033072D01*
X148152669Y-134043969D01*
X148058768Y-134173211D01*
X147980128Y-134327552D01*
X147926597Y-134492302D01*
X147915739Y-134560857D01*
X147899500Y-134663389D01*
X147560500Y-134663389D01*
X147533402Y-134492299D01*
X147479873Y-134327555D01*
X147401232Y-134173212D01*
X147299414Y-134033072D01*
X147176928Y-133910586D01*
X147036788Y-133808768D01*
X146882445Y-133730127D01*
X146717701Y-133676598D01*
X146717699Y-133676597D01*
X146717698Y-133676597D01*
X146583010Y-133655265D01*
X146546611Y-133649500D01*
X146373389Y-133649500D01*
X146336990Y-133655265D01*
X146202302Y-133676597D01*
X146037552Y-133730128D01*
X145883211Y-133808768D01*
X145803256Y-133866859D01*
X145743072Y-133910586D01*
X145743070Y-133910588D01*
X145743069Y-133910588D01*
X145620588Y-134033069D01*
X145620588Y-134033070D01*
X145620586Y-134033072D01*
X145612669Y-134043969D01*
X145518768Y-134173211D01*
X145440128Y-134327552D01*
X145386597Y-134492302D01*
X145375739Y-134560857D01*
X145359500Y-134663389D01*
X145020500Y-134663389D01*
X145020500Y-133875326D01*
X145020500Y-133875323D01*
X145020499Y-133875321D01*
X145005967Y-133802264D01*
X145005966Y-133802260D01*
X144950601Y-133719399D01*
X144867740Y-133664034D01*
X144867739Y-133664033D01*
X144867735Y-133664032D01*
X144794677Y-133649500D01*
X144794674Y-133649500D01*
X143045326Y-133649500D01*
X143045323Y-133649500D01*
X142972264Y-133664032D01*
X142972260Y-133664033D01*
X142889399Y-133719399D01*
X142834033Y-133802260D01*
X142834032Y-133802264D01*
X142819500Y-133875321D01*
X140317829Y-133875321D01*
X140265625Y-133749292D01*
X140265621Y-133749282D01*
X140114316Y-133487214D01*
X139930097Y-133247135D01*
X139930091Y-133247128D01*
X139716121Y-133033158D01*
X139716114Y-133033152D01*
X139476035Y-132848933D01*
X139213967Y-132697628D01*
X139213957Y-132697624D01*
X138934389Y-132581823D01*
X138642078Y-132503498D01*
X138342066Y-132464001D01*
X138342063Y-132464000D01*
X138342057Y-132464000D01*
X138039443Y-132464000D01*
X138039437Y-132464000D01*
X138039433Y-132464001D01*
X137739421Y-132503498D01*
X137447110Y-132581823D01*
X137167542Y-132697624D01*
X137167532Y-132697628D01*
X136905464Y-132848933D01*
X136665385Y-133033152D01*
X136665378Y-133033158D01*
X136451408Y-133247128D01*
X136451402Y-133247135D01*
X136267183Y-133487214D01*
X136115878Y-133749282D01*
X136115874Y-133749292D01*
X136000073Y-134028860D01*
X135921748Y-134321171D01*
X135882251Y-134621183D01*
X135882250Y-134621199D01*
X127437421Y-134621199D01*
X127420081Y-134587632D01*
X127406250Y-134530721D01*
X127406250Y-134043969D01*
X127425935Y-133976930D01*
X127478739Y-133931175D01*
X127547897Y-133921231D01*
X127611453Y-133950256D01*
X127633351Y-133975077D01*
X127647112Y-133995672D01*
X127659484Y-134014188D01*
X127804060Y-134158764D01*
X127804064Y-134158767D01*
X127974066Y-134272359D01*
X127974072Y-134272362D01*
X127974073Y-134272363D01*
X128162977Y-134350610D01*
X128363511Y-134390499D01*
X128363514Y-134390500D01*
X128363516Y-134390500D01*
X128567986Y-134390500D01*
X128567987Y-134390499D01*
X128768523Y-134350610D01*
X128957427Y-134272363D01*
X129127436Y-134158767D01*
X129272017Y-134014186D01*
X129385613Y-133844177D01*
X129463860Y-133655273D01*
X129503750Y-133454734D01*
X129503750Y-133250266D01*
X129503750Y-133250263D01*
X129503749Y-133250261D01*
X129463861Y-133049734D01*
X129463860Y-133049727D01*
X129385613Y-132860823D01*
X129385612Y-132860822D01*
X129385609Y-132860816D01*
X129272017Y-132690814D01*
X129272014Y-132690810D01*
X129127439Y-132546235D01*
X129127435Y-132546232D01*
X129118589Y-132540321D01*
X130197750Y-132540321D01*
X130197750Y-134164678D01*
X130212282Y-134237735D01*
X130212283Y-134237739D01*
X130212284Y-134237740D01*
X130267649Y-134320601D01*
X130350510Y-134375966D01*
X130350514Y-134375967D01*
X130423571Y-134390499D01*
X130423574Y-134390500D01*
X130423576Y-134390500D01*
X132047926Y-134390500D01*
X132047927Y-134390499D01*
X132120990Y-134375966D01*
X132203851Y-134320601D01*
X132259216Y-134237740D01*
X132273750Y-134164674D01*
X132273750Y-132540326D01*
X132273750Y-132540323D01*
X132273749Y-132540321D01*
X132259217Y-132467264D01*
X132259216Y-132467260D01*
X132236082Y-132432637D01*
X132203851Y-132384399D01*
X132138592Y-132340795D01*
X132120989Y-132329033D01*
X132120985Y-132329032D01*
X132047927Y-132314500D01*
X132047924Y-132314500D01*
X130423576Y-132314500D01*
X130423573Y-132314500D01*
X130350514Y-132329032D01*
X130350510Y-132329033D01*
X130267649Y-132384399D01*
X130212283Y-132467260D01*
X130212282Y-132467264D01*
X130197750Y-132540321D01*
X129118589Y-132540321D01*
X128957433Y-132432640D01*
X128957424Y-132432635D01*
X128768521Y-132354389D01*
X128768519Y-132354388D01*
X128719089Y-132344556D01*
X128693016Y-132335024D01*
X128692624Y-132335937D01*
X128687032Y-132333528D01*
X127570880Y-131977743D01*
X127520858Y-131947281D01*
X121504068Y-125930491D01*
X130009500Y-125930491D01*
X130009500Y-126269508D01*
X130042729Y-126606901D01*
X130108870Y-126939410D01*
X130207284Y-127263841D01*
X130337024Y-127577060D01*
X130337026Y-127577065D01*
X130496831Y-127876039D01*
X130496842Y-127876057D01*
X130685184Y-128157930D01*
X130685194Y-128157944D01*
X130900269Y-128420014D01*
X131139985Y-128659730D01*
X131139990Y-128659734D01*
X131139991Y-128659735D01*
X131402061Y-128874810D01*
X131683949Y-129063162D01*
X131683958Y-129063167D01*
X131683960Y-129063168D01*
X131982934Y-129222973D01*
X131982936Y-129222973D01*
X131982942Y-129222977D01*
X132296160Y-129352716D01*
X132620586Y-129451129D01*
X132953096Y-129517270D01*
X133290488Y-129550500D01*
X133290491Y-129550500D01*
X133629509Y-129550500D01*
X133629512Y-129550500D01*
X133966904Y-129517270D01*
X134299414Y-129451129D01*
X134623840Y-129352716D01*
X134937058Y-129222977D01*
X135236051Y-129063162D01*
X135517939Y-128874810D01*
X135780009Y-128659735D01*
X136019735Y-128420009D01*
X136234810Y-128157939D01*
X136423162Y-127876051D01*
X136582977Y-127577058D01*
X136712716Y-127263840D01*
X136811129Y-126939414D01*
X136877270Y-126606904D01*
X136910500Y-126269512D01*
X136910500Y-125930491D01*
X160749500Y-125930491D01*
X160749500Y-126269508D01*
X160782729Y-126606901D01*
X160848870Y-126939410D01*
X160947284Y-127263841D01*
X161077024Y-127577060D01*
X161077026Y-127577065D01*
X161236831Y-127876039D01*
X161236842Y-127876057D01*
X161425184Y-128157930D01*
X161425194Y-128157944D01*
X161640269Y-128420014D01*
X161879985Y-128659730D01*
X161879990Y-128659734D01*
X161879991Y-128659735D01*
X162142061Y-128874810D01*
X162423949Y-129063162D01*
X162423958Y-129063167D01*
X162423960Y-129063168D01*
X162722934Y-129222973D01*
X162722936Y-129222973D01*
X162722942Y-129222977D01*
X163036160Y-129352716D01*
X163360586Y-129451129D01*
X163693096Y-129517270D01*
X164030488Y-129550500D01*
X164030491Y-129550500D01*
X164369509Y-129550500D01*
X164369512Y-129550500D01*
X164706904Y-129517270D01*
X165039414Y-129451129D01*
X165363840Y-129352716D01*
X165677058Y-129222977D01*
X165976051Y-129063162D01*
X166257939Y-128874810D01*
X166520009Y-128659735D01*
X166759735Y-128420009D01*
X166974810Y-128157939D01*
X167163162Y-127876051D01*
X167322977Y-127577058D01*
X167452716Y-127263840D01*
X167551129Y-126939414D01*
X167617270Y-126606904D01*
X167650500Y-126269512D01*
X167650500Y-125930488D01*
X167617270Y-125593096D01*
X167551129Y-125260586D01*
X167452716Y-124936160D01*
X167322977Y-124622942D01*
X167163162Y-124323949D01*
X166974810Y-124042061D01*
X166759735Y-123779991D01*
X166759734Y-123779990D01*
X166759730Y-123779985D01*
X166520014Y-123540269D01*
X166257944Y-123325194D01*
X166257943Y-123325193D01*
X166257939Y-123325190D01*
X165976051Y-123136838D01*
X165976046Y-123136835D01*
X165976039Y-123136831D01*
X165677065Y-122977026D01*
X165677060Y-122977024D01*
X165363841Y-122847284D01*
X165173382Y-122789509D01*
X165039414Y-122748871D01*
X165039411Y-122748870D01*
X165039410Y-122748870D01*
X164706901Y-122682729D01*
X164469199Y-122659318D01*
X164369512Y-122649500D01*
X164030488Y-122649500D01*
X163939738Y-122658437D01*
X163693098Y-122682729D01*
X163360589Y-122748870D01*
X163036158Y-122847284D01*
X162722939Y-122977024D01*
X162722934Y-122977026D01*
X162423960Y-123136831D01*
X162423942Y-123136842D01*
X162142069Y-123325184D01*
X162142055Y-123325194D01*
X161879985Y-123540269D01*
X161640269Y-123779985D01*
X161425194Y-124042055D01*
X161425184Y-124042069D01*
X161236842Y-124323942D01*
X161236831Y-124323960D01*
X161077026Y-124622934D01*
X161077024Y-124622939D01*
X160947284Y-124936158D01*
X160848870Y-125260589D01*
X160782729Y-125593098D01*
X160749500Y-125930491D01*
X136910500Y-125930491D01*
X136910500Y-125930488D01*
X136877270Y-125593096D01*
X136811129Y-125260586D01*
X136712716Y-124936160D01*
X136582977Y-124622942D01*
X136423162Y-124323949D01*
X136234810Y-124042061D01*
X136019735Y-123779991D01*
X136019734Y-123779990D01*
X136019730Y-123779985D01*
X135780014Y-123540269D01*
X135517944Y-123325194D01*
X135517943Y-123325193D01*
X135517939Y-123325190D01*
X135236051Y-123136838D01*
X135236046Y-123136835D01*
X135236039Y-123136831D01*
X134937065Y-122977026D01*
X134937060Y-122977024D01*
X134623841Y-122847284D01*
X134433382Y-122789509D01*
X134299414Y-122748871D01*
X134299411Y-122748870D01*
X134299410Y-122748870D01*
X133966901Y-122682729D01*
X133729199Y-122659318D01*
X133629512Y-122649500D01*
X133290488Y-122649500D01*
X133199738Y-122658437D01*
X132953098Y-122682729D01*
X132620589Y-122748870D01*
X132296158Y-122847284D01*
X131982939Y-122977024D01*
X131982934Y-122977026D01*
X131683960Y-123136831D01*
X131683942Y-123136842D01*
X131402069Y-123325184D01*
X131402055Y-123325194D01*
X131139985Y-123540269D01*
X130900269Y-123779985D01*
X130685194Y-124042055D01*
X130685184Y-124042069D01*
X130496842Y-124323942D01*
X130496831Y-124323960D01*
X130337026Y-124622934D01*
X130337024Y-124622939D01*
X130207284Y-124936158D01*
X130108870Y-125260589D01*
X130042729Y-125593098D01*
X130009500Y-125930491D01*
X121504068Y-125930491D01*
X115412819Y-119839242D01*
X115379334Y-119777919D01*
X115376500Y-119751561D01*
X115376500Y-115859653D01*
X115396185Y-115792614D01*
X115448989Y-115746859D01*
X115518147Y-115736915D01*
X115581703Y-115765940D01*
X115603602Y-115790762D01*
X115673539Y-115895430D01*
X115673542Y-115895434D01*
X115814565Y-116036457D01*
X115814569Y-116036460D01*
X115980394Y-116147262D01*
X115980407Y-116147269D01*
X116164660Y-116223588D01*
X116164665Y-116223590D01*
X116164669Y-116223590D01*
X116164670Y-116223591D01*
X116360274Y-116262500D01*
X116360277Y-116262500D01*
X116559725Y-116262500D01*
X116691324Y-116236322D01*
X116755335Y-116223590D01*
X116939599Y-116147266D01*
X117105431Y-116036460D01*
X117246460Y-115895431D01*
X117357266Y-115729599D01*
X117433590Y-115545335D01*
X117472500Y-115349725D01*
X117987499Y-115349725D01*
X118026408Y-115545329D01*
X118026411Y-115545339D01*
X118102730Y-115729592D01*
X118102737Y-115729605D01*
X118213539Y-115895430D01*
X118213542Y-115895434D01*
X118354565Y-116036457D01*
X118354569Y-116036460D01*
X118520394Y-116147262D01*
X118520407Y-116147269D01*
X118704660Y-116223588D01*
X118704665Y-116223590D01*
X118704669Y-116223590D01*
X118704670Y-116223591D01*
X118900274Y-116262500D01*
X118900277Y-116262500D01*
X119099725Y-116262500D01*
X119231324Y-116236322D01*
X119295335Y-116223590D01*
X119479599Y-116147266D01*
X119645431Y-116036460D01*
X119786460Y-115895431D01*
X119897266Y-115729599D01*
X119973590Y-115545335D01*
X120012500Y-115349723D01*
X120012500Y-115150277D01*
X120012500Y-115150274D01*
X119973591Y-114954670D01*
X119973590Y-114954669D01*
X119973590Y-114954665D01*
X119973588Y-114954660D01*
X119897269Y-114770407D01*
X119897262Y-114770394D01*
X119786460Y-114604569D01*
X119786457Y-114604565D01*
X119645434Y-114463542D01*
X119645430Y-114463539D01*
X119479605Y-114352737D01*
X119479592Y-114352730D01*
X119295339Y-114276411D01*
X119295329Y-114276408D01*
X119099725Y-114237500D01*
X119099723Y-114237500D01*
X118900277Y-114237500D01*
X118900275Y-114237500D01*
X118704670Y-114276408D01*
X118704660Y-114276411D01*
X118520407Y-114352730D01*
X118520394Y-114352737D01*
X118354569Y-114463539D01*
X118354565Y-114463542D01*
X118213542Y-114604565D01*
X118213539Y-114604569D01*
X118102737Y-114770394D01*
X118102730Y-114770407D01*
X118026411Y-114954660D01*
X118026408Y-114954670D01*
X117987500Y-115150274D01*
X117987500Y-115150277D01*
X117987500Y-115349723D01*
X117987500Y-115349725D01*
X117987499Y-115349725D01*
X117472500Y-115349725D01*
X117472500Y-115349723D01*
X117472500Y-115150277D01*
X117472500Y-115150274D01*
X117433591Y-114954670D01*
X117433590Y-114954669D01*
X117433590Y-114954665D01*
X117433588Y-114954660D01*
X117357269Y-114770407D01*
X117357262Y-114770394D01*
X117246460Y-114604569D01*
X117246457Y-114604565D01*
X117105434Y-114463542D01*
X117105430Y-114463539D01*
X116939605Y-114352737D01*
X116939592Y-114352730D01*
X116755339Y-114276411D01*
X116755329Y-114276408D01*
X116559725Y-114237500D01*
X116559723Y-114237500D01*
X116360277Y-114237500D01*
X116360275Y-114237500D01*
X116164670Y-114276408D01*
X116164660Y-114276411D01*
X115980407Y-114352730D01*
X115980394Y-114352737D01*
X115814569Y-114463539D01*
X115814565Y-114463542D01*
X115673542Y-114604565D01*
X115673539Y-114604569D01*
X115603602Y-114709237D01*
X115549989Y-114754042D01*
X115480664Y-114762749D01*
X115417637Y-114732594D01*
X115380918Y-114673151D01*
X115376500Y-114640346D01*
X115376500Y-113319653D01*
X115396185Y-113252614D01*
X115448989Y-113206859D01*
X115518147Y-113196915D01*
X115581703Y-113225940D01*
X115603602Y-113250762D01*
X115673539Y-113355430D01*
X115673542Y-113355434D01*
X115814565Y-113496457D01*
X115814569Y-113496460D01*
X115980394Y-113607262D01*
X115980407Y-113607269D01*
X116164660Y-113683588D01*
X116164665Y-113683590D01*
X116164669Y-113683590D01*
X116164670Y-113683591D01*
X116360274Y-113722500D01*
X116360277Y-113722500D01*
X116559725Y-113722500D01*
X116691324Y-113696322D01*
X116755335Y-113683590D01*
X116939599Y-113607266D01*
X117105431Y-113496460D01*
X117246460Y-113355431D01*
X117357266Y-113189599D01*
X117433590Y-113005335D01*
X117472500Y-112809725D01*
X117987499Y-112809725D01*
X118026408Y-113005329D01*
X118026411Y-113005339D01*
X118102730Y-113189592D01*
X118102737Y-113189605D01*
X118213539Y-113355430D01*
X118213542Y-113355434D01*
X118354565Y-113496457D01*
X118354569Y-113496460D01*
X118520394Y-113607262D01*
X118520407Y-113607269D01*
X118704660Y-113683588D01*
X118704665Y-113683590D01*
X118704669Y-113683590D01*
X118704670Y-113683591D01*
X118900274Y-113722500D01*
X118900277Y-113722500D01*
X119099725Y-113722500D01*
X119231324Y-113696322D01*
X119295335Y-113683590D01*
X119479599Y-113607266D01*
X119645431Y-113496460D01*
X119786460Y-113355431D01*
X119897266Y-113189599D01*
X119973590Y-113005335D01*
X120012500Y-112809723D01*
X120012500Y-112610277D01*
X120012500Y-112610274D01*
X119973591Y-112414670D01*
X119973590Y-112414669D01*
X119973590Y-112414665D01*
X119973588Y-112414660D01*
X119897269Y-112230407D01*
X119897262Y-112230394D01*
X119786460Y-112064569D01*
X119786457Y-112064565D01*
X119645434Y-111923542D01*
X119645430Y-111923539D01*
X119479605Y-111812737D01*
X119479592Y-111812730D01*
X119295339Y-111736411D01*
X119295329Y-111736408D01*
X119099725Y-111697500D01*
X119099723Y-111697500D01*
X118900277Y-111697500D01*
X118900275Y-111697500D01*
X118704670Y-111736408D01*
X118704660Y-111736411D01*
X118520407Y-111812730D01*
X118520394Y-111812737D01*
X118354569Y-111923539D01*
X118354565Y-111923542D01*
X118213542Y-112064565D01*
X118213539Y-112064569D01*
X118102737Y-112230394D01*
X118102730Y-112230407D01*
X118026411Y-112414660D01*
X118026408Y-112414670D01*
X117987500Y-112610274D01*
X117987500Y-112610277D01*
X117987500Y-112809723D01*
X117987500Y-112809725D01*
X117987499Y-112809725D01*
X117472500Y-112809725D01*
X117472500Y-112809723D01*
X117472500Y-112610277D01*
X117472500Y-112610274D01*
X117433591Y-112414670D01*
X117433590Y-112414669D01*
X117433590Y-112414665D01*
X117433588Y-112414660D01*
X117357269Y-112230407D01*
X117357262Y-112230394D01*
X117246460Y-112064569D01*
X117246457Y-112064565D01*
X117105434Y-111923542D01*
X117105430Y-111923539D01*
X116939605Y-111812737D01*
X116939592Y-111812730D01*
X116755339Y-111736411D01*
X116755329Y-111736408D01*
X116559725Y-111697500D01*
X116559723Y-111697500D01*
X116360277Y-111697500D01*
X116360275Y-111697500D01*
X116164670Y-111736408D01*
X116164660Y-111736411D01*
X115980407Y-111812730D01*
X115980394Y-111812737D01*
X115814569Y-111923539D01*
X115814565Y-111923542D01*
X115673542Y-112064565D01*
X115673539Y-112064569D01*
X115603602Y-112169237D01*
X115549989Y-112214042D01*
X115480664Y-112222749D01*
X115417637Y-112192594D01*
X115380918Y-112133151D01*
X115376500Y-112100346D01*
X115376500Y-110779653D01*
X115396185Y-110712614D01*
X115448989Y-110666859D01*
X115518147Y-110656915D01*
X115581703Y-110685940D01*
X115603602Y-110710762D01*
X115673539Y-110815430D01*
X115673542Y-110815434D01*
X115814565Y-110956457D01*
X115814569Y-110956460D01*
X115980394Y-111067262D01*
X115980407Y-111067269D01*
X116164660Y-111143588D01*
X116164665Y-111143590D01*
X116164669Y-111143590D01*
X116164670Y-111143591D01*
X116360274Y-111182500D01*
X116360277Y-111182500D01*
X116559725Y-111182500D01*
X116691324Y-111156322D01*
X116755335Y-111143590D01*
X116939599Y-111067266D01*
X117105431Y-110956460D01*
X117246460Y-110815431D01*
X117357266Y-110649599D01*
X117433590Y-110465335D01*
X117472500Y-110269725D01*
X117987499Y-110269725D01*
X118026408Y-110465329D01*
X118026411Y-110465339D01*
X118102730Y-110649592D01*
X118102737Y-110649605D01*
X118213539Y-110815430D01*
X118213542Y-110815434D01*
X118354565Y-110956457D01*
X118354569Y-110956460D01*
X118520394Y-111067262D01*
X118520407Y-111067269D01*
X118704660Y-111143588D01*
X118704665Y-111143590D01*
X118704669Y-111143590D01*
X118704670Y-111143591D01*
X118900274Y-111182500D01*
X118900277Y-111182500D01*
X119099725Y-111182500D01*
X119231324Y-111156322D01*
X119295335Y-111143590D01*
X119479599Y-111067266D01*
X119645431Y-110956460D01*
X119786460Y-110815431D01*
X119897266Y-110649599D01*
X119973590Y-110465335D01*
X120012500Y-110269723D01*
X120012500Y-110070277D01*
X120012500Y-110070274D01*
X119973591Y-109874670D01*
X119973590Y-109874669D01*
X119973590Y-109874665D01*
X119973588Y-109874660D01*
X119897269Y-109690407D01*
X119897262Y-109690394D01*
X119786460Y-109524569D01*
X119786457Y-109524565D01*
X119645434Y-109383542D01*
X119645430Y-109383539D01*
X119479605Y-109272737D01*
X119479592Y-109272730D01*
X119295339Y-109196411D01*
X119295329Y-109196408D01*
X119099725Y-109157500D01*
X119099723Y-109157500D01*
X118900277Y-109157500D01*
X118900275Y-109157500D01*
X118704670Y-109196408D01*
X118704660Y-109196411D01*
X118520407Y-109272730D01*
X118520394Y-109272737D01*
X118354569Y-109383539D01*
X118354565Y-109383542D01*
X118213542Y-109524565D01*
X118213539Y-109524569D01*
X118102737Y-109690394D01*
X118102730Y-109690407D01*
X118026411Y-109874660D01*
X118026408Y-109874670D01*
X117987500Y-110070274D01*
X117987500Y-110070277D01*
X117987500Y-110269723D01*
X117987500Y-110269725D01*
X117987499Y-110269725D01*
X117472500Y-110269725D01*
X117472500Y-110269723D01*
X117472500Y-110070277D01*
X117472500Y-110070274D01*
X117433591Y-109874670D01*
X117433590Y-109874669D01*
X117433590Y-109874665D01*
X117433588Y-109874660D01*
X117357269Y-109690407D01*
X117357262Y-109690394D01*
X117246460Y-109524569D01*
X117246457Y-109524565D01*
X117105434Y-109383542D01*
X117105430Y-109383539D01*
X116939605Y-109272737D01*
X116939592Y-109272730D01*
X116755339Y-109196411D01*
X116755329Y-109196408D01*
X116559725Y-109157500D01*
X116559723Y-109157500D01*
X116360277Y-109157500D01*
X116360275Y-109157500D01*
X116164670Y-109196408D01*
X116164660Y-109196411D01*
X115980407Y-109272730D01*
X115980394Y-109272737D01*
X115814569Y-109383539D01*
X115814565Y-109383542D01*
X115673542Y-109524565D01*
X115673539Y-109524569D01*
X115603602Y-109629237D01*
X115549989Y-109674042D01*
X115480664Y-109682749D01*
X115417637Y-109652594D01*
X115380918Y-109593151D01*
X115376500Y-109560346D01*
X115376500Y-108239653D01*
X115396185Y-108172614D01*
X115448989Y-108126859D01*
X115518147Y-108116915D01*
X115581703Y-108145940D01*
X115603602Y-108170762D01*
X115673539Y-108275430D01*
X115673542Y-108275434D01*
X115814565Y-108416457D01*
X115814569Y-108416460D01*
X115980394Y-108527262D01*
X115980407Y-108527269D01*
X116164660Y-108603588D01*
X116164665Y-108603590D01*
X116164669Y-108603590D01*
X116164670Y-108603591D01*
X116360274Y-108642500D01*
X116360277Y-108642500D01*
X116559725Y-108642500D01*
X116691324Y-108616322D01*
X116755335Y-108603590D01*
X116939599Y-108527266D01*
X117105431Y-108416460D01*
X117246460Y-108275431D01*
X117357266Y-108109599D01*
X117433590Y-107925335D01*
X117472500Y-107729725D01*
X117987499Y-107729725D01*
X118026408Y-107925329D01*
X118026411Y-107925339D01*
X118102730Y-108109592D01*
X118102737Y-108109605D01*
X118213539Y-108275430D01*
X118213542Y-108275434D01*
X118354565Y-108416457D01*
X118354569Y-108416460D01*
X118520394Y-108527262D01*
X118520407Y-108527269D01*
X118704660Y-108603588D01*
X118704665Y-108603590D01*
X118704669Y-108603590D01*
X118704670Y-108603591D01*
X118900274Y-108642500D01*
X118900277Y-108642500D01*
X119099725Y-108642500D01*
X119231324Y-108616322D01*
X119295335Y-108603590D01*
X119479599Y-108527266D01*
X119645431Y-108416460D01*
X119786460Y-108275431D01*
X119897266Y-108109599D01*
X119973590Y-107925335D01*
X120012500Y-107729723D01*
X120012500Y-107530277D01*
X120012500Y-107530274D01*
X119973591Y-107334670D01*
X119973590Y-107334669D01*
X119973590Y-107334665D01*
X119973588Y-107334660D01*
X119897269Y-107150407D01*
X119897262Y-107150394D01*
X119786460Y-106984569D01*
X119786457Y-106984565D01*
X119645434Y-106843542D01*
X119645430Y-106843539D01*
X119479605Y-106732737D01*
X119479592Y-106732730D01*
X119295339Y-106656411D01*
X119295329Y-106656408D01*
X119099725Y-106617500D01*
X119099723Y-106617500D01*
X118900277Y-106617500D01*
X118900275Y-106617500D01*
X118704670Y-106656408D01*
X118704660Y-106656411D01*
X118520407Y-106732730D01*
X118520394Y-106732737D01*
X118354569Y-106843539D01*
X118354565Y-106843542D01*
X118213542Y-106984565D01*
X118213539Y-106984569D01*
X118102737Y-107150394D01*
X118102730Y-107150407D01*
X118026411Y-107334660D01*
X118026408Y-107334670D01*
X117987500Y-107530274D01*
X117987500Y-107530277D01*
X117987500Y-107729723D01*
X117987500Y-107729725D01*
X117987499Y-107729725D01*
X117472500Y-107729725D01*
X117472500Y-107729723D01*
X117472500Y-107530277D01*
X117472500Y-107530274D01*
X117433591Y-107334670D01*
X117433590Y-107334669D01*
X117433590Y-107334665D01*
X117433588Y-107334660D01*
X117357269Y-107150407D01*
X117357262Y-107150394D01*
X117246460Y-106984569D01*
X117246457Y-106984565D01*
X117105434Y-106843542D01*
X117105430Y-106843539D01*
X116939605Y-106732737D01*
X116939592Y-106732730D01*
X116755339Y-106656411D01*
X116755329Y-106656408D01*
X116559725Y-106617500D01*
X116559723Y-106617500D01*
X116360277Y-106617500D01*
X116360275Y-106617500D01*
X116164670Y-106656408D01*
X116164660Y-106656411D01*
X115980407Y-106732730D01*
X115980394Y-106732737D01*
X115814569Y-106843539D01*
X115814565Y-106843542D01*
X115673542Y-106984565D01*
X115673539Y-106984569D01*
X115603602Y-107089237D01*
X115549989Y-107134042D01*
X115480664Y-107142749D01*
X115417637Y-107112594D01*
X115380918Y-107053151D01*
X115376500Y-107020346D01*
X115376500Y-105871309D01*
X115396185Y-105804270D01*
X115412819Y-105783628D01*
X115970504Y-105225942D01*
X115986619Y-105286081D01*
X116053498Y-105401920D01*
X116148080Y-105496502D01*
X116263919Y-105563381D01*
X116324057Y-105579494D01*
X115761283Y-106142268D01*
X115761283Y-106142269D01*
X115798567Y-106169358D01*
X115975562Y-106259542D01*
X116164477Y-106320924D01*
X116360679Y-106352000D01*
X116559321Y-106352000D01*
X116755520Y-106320924D01*
X116755523Y-106320924D01*
X116944437Y-106259542D01*
X117121425Y-106169362D01*
X117158716Y-106142268D01*
X116595942Y-105579494D01*
X116656081Y-105563381D01*
X116771920Y-105496502D01*
X116866502Y-105401920D01*
X116933381Y-105286081D01*
X116949495Y-105225942D01*
X117512268Y-105788715D01*
X117539362Y-105751425D01*
X117619515Y-105594117D01*
X117667489Y-105543321D01*
X117735310Y-105526526D01*
X117801445Y-105549063D01*
X117840485Y-105594117D01*
X117920641Y-105751432D01*
X117947730Y-105788715D01*
X117947731Y-105788716D01*
X118510504Y-105225942D01*
X118526619Y-105286081D01*
X118593498Y-105401920D01*
X118688080Y-105496502D01*
X118803919Y-105563381D01*
X118864057Y-105579494D01*
X118301283Y-106142268D01*
X118301283Y-106142269D01*
X118338567Y-106169358D01*
X118515562Y-106259542D01*
X118704477Y-106320924D01*
X118900679Y-106352000D01*
X119099321Y-106352000D01*
X119295520Y-106320924D01*
X119295523Y-106320924D01*
X119484437Y-106259542D01*
X119661425Y-106169362D01*
X119698716Y-106142268D01*
X119135942Y-105579494D01*
X119196081Y-105563381D01*
X119311920Y-105496502D01*
X119406502Y-105401920D01*
X119473381Y-105286081D01*
X119489495Y-105225942D01*
X120052268Y-105788715D01*
X120079362Y-105751425D01*
X120169542Y-105574437D01*
X120230924Y-105385523D01*
X120230924Y-105385520D01*
X120262000Y-105189321D01*
X120262000Y-104990678D01*
X120230924Y-104794479D01*
X120230924Y-104794476D01*
X120169542Y-104605562D01*
X120079358Y-104428567D01*
X120052268Y-104391283D01*
X119489494Y-104954057D01*
X119473381Y-104893919D01*
X119406502Y-104778080D01*
X119311920Y-104683498D01*
X119196081Y-104616619D01*
X119135942Y-104600504D01*
X119698716Y-104037731D01*
X119698715Y-104037730D01*
X119661432Y-104010641D01*
X119484437Y-103920457D01*
X119295522Y-103859075D01*
X119099321Y-103828000D01*
X118900679Y-103828000D01*
X118704479Y-103859075D01*
X118704476Y-103859075D01*
X118515562Y-103920457D01*
X118338564Y-104010643D01*
X118301283Y-104037729D01*
X118301282Y-104037730D01*
X118864058Y-104600504D01*
X118803919Y-104616619D01*
X118688080Y-104683498D01*
X118593498Y-104778080D01*
X118526619Y-104893919D01*
X118510504Y-104954057D01*
X117947730Y-104391282D01*
X117947729Y-104391283D01*
X117920643Y-104428564D01*
X117840485Y-104585882D01*
X117792510Y-104636678D01*
X117724689Y-104653473D01*
X117658554Y-104630935D01*
X117619515Y-104585882D01*
X117539358Y-104428567D01*
X117512268Y-104391283D01*
X116949494Y-104954057D01*
X116933381Y-104893919D01*
X116866502Y-104778080D01*
X116771920Y-104683498D01*
X116656081Y-104616619D01*
X116595942Y-104600504D01*
X117158716Y-104037731D01*
X117158715Y-104037730D01*
X117121432Y-104010641D01*
X116944437Y-103920457D01*
X116755522Y-103859075D01*
X116559321Y-103828000D01*
X116360679Y-103828000D01*
X116164479Y-103859075D01*
X116164476Y-103859075D01*
X115975562Y-103920457D01*
X115798564Y-104010643D01*
X115761283Y-104037729D01*
X115761282Y-104037730D01*
X116324058Y-104600504D01*
X116263919Y-104616619D01*
X116148080Y-104683498D01*
X116053498Y-104778080D01*
X115986619Y-104893919D01*
X115970504Y-104954057D01*
X115412819Y-104396371D01*
X115398115Y-104369443D01*
X115381523Y-104343625D01*
X115380631Y-104337424D01*
X115379334Y-104335048D01*
X115376500Y-104308690D01*
X115376500Y-85019653D01*
X115396185Y-84952614D01*
X115448989Y-84906859D01*
X115518147Y-84896915D01*
X115581703Y-84925940D01*
X115603602Y-84950762D01*
X115673539Y-85055430D01*
X115673542Y-85055434D01*
X115814565Y-85196457D01*
X115814569Y-85196460D01*
X115980394Y-85307262D01*
X115980407Y-85307269D01*
X116075121Y-85346500D01*
X116164665Y-85383590D01*
X116184297Y-85387495D01*
X116211257Y-85392858D01*
X116237234Y-85402380D01*
X116237653Y-85401415D01*
X116243237Y-85403832D01*
X116243242Y-85403835D01*
X116243247Y-85403836D01*
X116243248Y-85403837D01*
X116328310Y-85431117D01*
X117319138Y-85748883D01*
X117368951Y-85779278D01*
X117600138Y-86010465D01*
X117674361Y-86053318D01*
X117757147Y-86075500D01*
X117757149Y-86075500D01*
X119651351Y-86075500D01*
X119651353Y-86075500D01*
X119734139Y-86053318D01*
X119808362Y-86010465D01*
X120848507Y-84970318D01*
X120909830Y-84936834D01*
X120936188Y-84934000D01*
X151313811Y-84934000D01*
X151380850Y-84953685D01*
X151401492Y-84970319D01*
X151712638Y-85281465D01*
X151786861Y-85324318D01*
X151815187Y-85331907D01*
X151874847Y-85368271D01*
X151905377Y-85431117D01*
X151897083Y-85500493D01*
X151882361Y-85525993D01*
X151829789Y-85596219D01*
X151780748Y-85727700D01*
X151774500Y-85785809D01*
X151774500Y-86379190D01*
X151780748Y-86437299D01*
X151819854Y-86542144D01*
X151829788Y-86568778D01*
X151913884Y-86681116D01*
X152004055Y-86748618D01*
X152011729Y-86754363D01*
X152026222Y-86765212D01*
X152118594Y-86799665D01*
X152157700Y-86814251D01*
X152215809Y-86820499D01*
X152215826Y-86820500D01*
X152784174Y-86820500D01*
X152784190Y-86820499D01*
X152810140Y-86817708D01*
X152842299Y-86814251D01*
X152952237Y-86773246D01*
X152961419Y-86770309D01*
X152964108Y-86768817D01*
X152967095Y-86767703D01*
X152973778Y-86765212D01*
X152975988Y-86763556D01*
X152990186Y-86754369D01*
X153497037Y-86473535D01*
X153557134Y-86458000D01*
X154379435Y-86458000D01*
X154379436Y-86458000D01*
X154427186Y-86445205D01*
X154474938Y-86432410D01*
X154560562Y-86382975D01*
X154630475Y-86313062D01*
X155620440Y-85323095D01*
X155660013Y-85296491D01*
X156271604Y-85039092D01*
X156399633Y-84985210D01*
X156447734Y-84975500D01*
X156459174Y-84975500D01*
X156459190Y-84975499D01*
X156517299Y-84969251D01*
X156648778Y-84920212D01*
X156761116Y-84836116D01*
X156845212Y-84723778D01*
X156894251Y-84592299D01*
X156898350Y-84554174D01*
X156900499Y-84534190D01*
X156900500Y-84534173D01*
X156900500Y-83965826D01*
X156900499Y-83965809D01*
X156894251Y-83907700D01*
X156872610Y-83849679D01*
X156845212Y-83776222D01*
X156761116Y-83663884D01*
X156667066Y-83593478D01*
X156648780Y-83579789D01*
X156648778Y-83579788D01*
X156616707Y-83567826D01*
X156517299Y-83530748D01*
X156459190Y-83524500D01*
X156459174Y-83524500D01*
X156426560Y-83524500D01*
X156384020Y-83516975D01*
X155672851Y-83257234D01*
X155616633Y-83215745D01*
X155605370Y-83197955D01*
X155561595Y-83113749D01*
X155402141Y-82807025D01*
X155395488Y-82795027D01*
X155394856Y-82793956D01*
X155391353Y-82788361D01*
X155387726Y-82782568D01*
X155383436Y-82777162D01*
X155383864Y-82776821D01*
X155370627Y-82759511D01*
X155360509Y-82741985D01*
X155258015Y-82639491D01*
X155258012Y-82639489D01*
X155258011Y-82639488D01*
X155219349Y-82617166D01*
X155203793Y-82606531D01*
X155192975Y-82597859D01*
X154743243Y-82364061D01*
X154712758Y-82341721D01*
X154403872Y-82032834D01*
X154383891Y-82006674D01*
X154161838Y-81618081D01*
X154145500Y-81556560D01*
X154145500Y-80855323D01*
X154145499Y-80855321D01*
X154130967Y-80782264D01*
X154130966Y-80782260D01*
X154075601Y-80699399D01*
X154020000Y-80662248D01*
X153992739Y-80644033D01*
X153992735Y-80644032D01*
X153919677Y-80629500D01*
X153919674Y-80629500D01*
X153320326Y-80629500D01*
X153244190Y-80644644D01*
X153195810Y-80644644D01*
X153119674Y-80629500D01*
X152520326Y-80629500D01*
X152444190Y-80644644D01*
X152395810Y-80644644D01*
X152319674Y-80629500D01*
X151720326Y-80629500D01*
X151720324Y-80629500D01*
X151718121Y-80629938D01*
X151716945Y-80629832D01*
X151714261Y-80630097D01*
X151714210Y-80629587D01*
X151700610Y-80628369D01*
X151683383Y-80631869D01*
X151666534Y-80625318D01*
X151648530Y-80623706D01*
X151634529Y-80612874D01*
X151618262Y-80606550D01*
X151593653Y-80581251D01*
X151569216Y-80547649D01*
X151545706Y-80481853D01*
X151545500Y-80474717D01*
X151545500Y-80427149D01*
X151545500Y-80427147D01*
X151523318Y-80344362D01*
X151512428Y-80325500D01*
X151480469Y-80270144D01*
X151480463Y-80270136D01*
X151172508Y-79962181D01*
X151139023Y-79900858D01*
X151144007Y-79831166D01*
X151185879Y-79775233D01*
X151251343Y-79750816D01*
X151260189Y-79750500D01*
X151285890Y-79750500D01*
X151285892Y-79750500D01*
X151413186Y-79716392D01*
X151527314Y-79650500D01*
X151620500Y-79557314D01*
X151676403Y-79460488D01*
X160749500Y-79460488D01*
X160749500Y-79799512D01*
X160750494Y-79809605D01*
X160782729Y-80136901D01*
X160842611Y-80437945D01*
X160848871Y-80469414D01*
X160872603Y-80547649D01*
X160947284Y-80793841D01*
X161077024Y-81107060D01*
X161077026Y-81107065D01*
X161236831Y-81406039D01*
X161236835Y-81406046D01*
X161236838Y-81406051D01*
X161380823Y-81621540D01*
X161425184Y-81687930D01*
X161425194Y-81687944D01*
X161640269Y-81950014D01*
X161879985Y-82189730D01*
X161879990Y-82189734D01*
X161879991Y-82189735D01*
X162142061Y-82404810D01*
X162423949Y-82593162D01*
X162423958Y-82593167D01*
X162423960Y-82593168D01*
X162722934Y-82752973D01*
X162722936Y-82752973D01*
X162722942Y-82752977D01*
X163036160Y-82882716D01*
X163360586Y-82981129D01*
X163693096Y-83047270D01*
X164030488Y-83080500D01*
X164030491Y-83080500D01*
X164369509Y-83080500D01*
X164369512Y-83080500D01*
X164706904Y-83047270D01*
X165039414Y-82981129D01*
X165363840Y-82882716D01*
X165677058Y-82752977D01*
X165976051Y-82593162D01*
X166257939Y-82404810D01*
X166520009Y-82189735D01*
X166759735Y-81950009D01*
X166974810Y-81687939D01*
X167163162Y-81406051D01*
X167322977Y-81107058D01*
X167452716Y-80793840D01*
X167551129Y-80469414D01*
X167617270Y-80136904D01*
X167650500Y-79799512D01*
X167650500Y-79460488D01*
X167617270Y-79123096D01*
X167551129Y-78790586D01*
X167452716Y-78466160D01*
X167322977Y-78152942D01*
X167307418Y-78123834D01*
X167163168Y-77853960D01*
X167163167Y-77853958D01*
X167163162Y-77853949D01*
X166974810Y-77572061D01*
X166759735Y-77309991D01*
X166759734Y-77309990D01*
X166759730Y-77309985D01*
X166520014Y-77070269D01*
X166257944Y-76855194D01*
X166257943Y-76855193D01*
X166257939Y-76855190D01*
X165976051Y-76666838D01*
X165976046Y-76666835D01*
X165976039Y-76666831D01*
X165677065Y-76507026D01*
X165677060Y-76507024D01*
X165363841Y-76377284D01*
X165130660Y-76306550D01*
X165039414Y-76278871D01*
X165039411Y-76278870D01*
X165039410Y-76278870D01*
X164706901Y-76212729D01*
X164469199Y-76189318D01*
X164369512Y-76179500D01*
X164030488Y-76179500D01*
X163939738Y-76188437D01*
X163693098Y-76212729D01*
X163360589Y-76278870D01*
X163036158Y-76377284D01*
X162722939Y-76507024D01*
X162722934Y-76507026D01*
X162423960Y-76666831D01*
X162423942Y-76666842D01*
X162142069Y-76855184D01*
X162142055Y-76855194D01*
X161879985Y-77070269D01*
X161640269Y-77309985D01*
X161425194Y-77572055D01*
X161425184Y-77572069D01*
X161236842Y-77853942D01*
X161236831Y-77853960D01*
X161077026Y-78152934D01*
X161077024Y-78152939D01*
X160947284Y-78466158D01*
X160848870Y-78790589D01*
X160782729Y-79123098D01*
X160763741Y-79315891D01*
X160749500Y-79460488D01*
X151676403Y-79460488D01*
X151686392Y-79443186D01*
X151720500Y-79315892D01*
X151720500Y-79184108D01*
X151702076Y-79115349D01*
X151699020Y-79097320D01*
X151693048Y-79081656D01*
X151686392Y-79056814D01*
X151686389Y-79056808D01*
X151684171Y-79051453D01*
X151676702Y-78981984D01*
X151707977Y-78919505D01*
X151763350Y-78886649D01*
X151770000Y-78880000D01*
X152270000Y-78880000D01*
X152342828Y-78880000D01*
X152342841Y-78879999D01*
X152406743Y-78873128D01*
X152433257Y-78873128D01*
X152497158Y-78879999D01*
X152497172Y-78880000D01*
X152570000Y-78880000D01*
X153070000Y-78880000D01*
X153142828Y-78880000D01*
X153142841Y-78879999D01*
X153206743Y-78873128D01*
X153233257Y-78873128D01*
X153297158Y-78879999D01*
X153297172Y-78880000D01*
X153370000Y-78880000D01*
X153870000Y-78880000D01*
X153942828Y-78880000D01*
X153942844Y-78879999D01*
X154002372Y-78873598D01*
X154002379Y-78873596D01*
X154137086Y-78823354D01*
X154137093Y-78823350D01*
X154252187Y-78737190D01*
X154252190Y-78737187D01*
X154338350Y-78622093D01*
X154338354Y-78622086D01*
X154388596Y-78487379D01*
X154388598Y-78487372D01*
X154394999Y-78427844D01*
X154395000Y-78427827D01*
X154395000Y-77730000D01*
X153870000Y-77730000D01*
X153870000Y-78880000D01*
X153370000Y-78880000D01*
X153370000Y-77730000D01*
X153070000Y-77730000D01*
X153070000Y-78880000D01*
X152570000Y-78880000D01*
X152570000Y-77730000D01*
X152270000Y-77730000D01*
X152270000Y-78880000D01*
X151770000Y-78880000D01*
X151770000Y-77230000D01*
X152270000Y-77230000D01*
X152570000Y-77230000D01*
X153070000Y-77230000D01*
X153370000Y-77230000D01*
X153870000Y-77230000D01*
X154395000Y-77230000D01*
X154395000Y-76532172D01*
X154394999Y-76532155D01*
X154388598Y-76472627D01*
X154388596Y-76472620D01*
X154338354Y-76337913D01*
X154338350Y-76337906D01*
X154252190Y-76222812D01*
X154252187Y-76222809D01*
X154137093Y-76136649D01*
X154137086Y-76136645D01*
X154002379Y-76086403D01*
X154002372Y-76086401D01*
X153942844Y-76080000D01*
X153870000Y-76080000D01*
X153870000Y-77230000D01*
X153370000Y-77230000D01*
X153370000Y-76080000D01*
X153297172Y-76080000D01*
X153297153Y-76080001D01*
X153233255Y-76086871D01*
X153206745Y-76086871D01*
X153142846Y-76080001D01*
X153142828Y-76080000D01*
X153070000Y-76080000D01*
X153070000Y-77230000D01*
X152570000Y-77230000D01*
X152570000Y-76080000D01*
X152497172Y-76080000D01*
X152497153Y-76080001D01*
X152433255Y-76086871D01*
X152406745Y-76086871D01*
X152342846Y-76080001D01*
X152342828Y-76080000D01*
X152270000Y-76080000D01*
X152270000Y-77230000D01*
X151770000Y-77230000D01*
X151770000Y-76080000D01*
X151697155Y-76080000D01*
X151637627Y-76086401D01*
X151637620Y-76086403D01*
X151502913Y-76136645D01*
X151502906Y-76136649D01*
X151387814Y-76222808D01*
X151387809Y-76222813D01*
X151345141Y-76279811D01*
X151289207Y-76321682D01*
X151245874Y-76329500D01*
X150920326Y-76329500D01*
X150844190Y-76344644D01*
X150795810Y-76344644D01*
X150719674Y-76329500D01*
X150120326Y-76329500D01*
X150120321Y-76329500D01*
X150044192Y-76344643D01*
X149995810Y-76344643D01*
X149919681Y-76329500D01*
X149919677Y-76329500D01*
X149320329Y-76329500D01*
X149320326Y-76329500D01*
X149244192Y-76344644D01*
X149195809Y-76344644D01*
X149119676Y-76329500D01*
X149119674Y-76329500D01*
X148520326Y-76329500D01*
X148444190Y-76344644D01*
X148395810Y-76344644D01*
X148319674Y-76329500D01*
X147720326Y-76329500D01*
X147720324Y-76329500D01*
X147718121Y-76329938D01*
X147716945Y-76329832D01*
X147714261Y-76330097D01*
X147714210Y-76329587D01*
X147700610Y-76328369D01*
X147683383Y-76331869D01*
X147666534Y-76325318D01*
X147648530Y-76323706D01*
X147634529Y-76312874D01*
X147618262Y-76306550D01*
X147593653Y-76281251D01*
X147591921Y-76278870D01*
X147584466Y-76268619D01*
X147569216Y-76247649D01*
X147546889Y-76185163D01*
X147546561Y-76185207D01*
X147546360Y-76183684D01*
X147545706Y-76181853D01*
X147545589Y-76177831D01*
X147545500Y-76177152D01*
X147545500Y-76177147D01*
X147536566Y-76143805D01*
X147523318Y-76094361D01*
X147523316Y-76094358D01*
X147522814Y-76093145D01*
X147514116Y-76059245D01*
X147500554Y-75935931D01*
X147500500Y-75935518D01*
X147500500Y-75934108D01*
X147500138Y-75932757D01*
X147499175Y-75925408D01*
X147499029Y-75924449D01*
X147497222Y-75914035D01*
X147494138Y-75906509D01*
X147489107Y-75891591D01*
X147466393Y-75806817D01*
X147466392Y-75806815D01*
X147466392Y-75806814D01*
X147400500Y-75692686D01*
X147307314Y-75599500D01*
X147247584Y-75565015D01*
X147193187Y-75533608D01*
X147112543Y-75512000D01*
X147065892Y-75499500D01*
X146934108Y-75499500D01*
X146934103Y-75499500D01*
X146901591Y-75508212D01*
X146831742Y-75506548D01*
X146773880Y-75467385D01*
X146746377Y-75403156D01*
X146745500Y-75388437D01*
X146745500Y-74972855D01*
X146745501Y-74972842D01*
X146745501Y-74877148D01*
X146741851Y-74863526D01*
X146723318Y-74794361D01*
X146694530Y-74744500D01*
X146680465Y-74720138D01*
X146634738Y-74674411D01*
X146630906Y-74669750D01*
X146627753Y-74662345D01*
X146613526Y-74641695D01*
X146611550Y-74637285D01*
X146474728Y-74331857D01*
X146468119Y-74313259D01*
X146466391Y-74306812D01*
X146456711Y-74290047D01*
X146450927Y-74278728D01*
X146446679Y-74269243D01*
X146437348Y-74250510D01*
X146436424Y-74248831D01*
X146425567Y-74230888D01*
X146425562Y-74230883D01*
X146421033Y-74225082D01*
X146421688Y-74224570D01*
X146410323Y-74209701D01*
X146400499Y-74192685D01*
X146358492Y-74150678D01*
X146307314Y-74099500D01*
X146228366Y-74053919D01*
X146193187Y-74033608D01*
X146129539Y-74016554D01*
X146065892Y-73999500D01*
X145934108Y-73999500D01*
X145806812Y-74033608D01*
X145692686Y-74099500D01*
X145692683Y-74099502D01*
X145599502Y-74192683D01*
X145599500Y-74192686D01*
X145549824Y-74278728D01*
X145533608Y-74306814D01*
X145500954Y-74428682D01*
X145499906Y-74432594D01*
X145463541Y-74492254D01*
X145400694Y-74522783D01*
X145380131Y-74524500D01*
X145277176Y-74524500D01*
X145149880Y-74558608D01*
X145035754Y-74624500D01*
X145022969Y-74637285D01*
X144961645Y-74670768D01*
X144891953Y-74665782D01*
X144847609Y-74637282D01*
X144639009Y-74428682D01*
X144613526Y-74391695D01*
X144470682Y-74072824D01*
X144466392Y-74056814D01*
X144453529Y-74034536D01*
X144446679Y-74019243D01*
X144437348Y-74000510D01*
X144436424Y-73998831D01*
X144425567Y-73980888D01*
X144425562Y-73980883D01*
X144421033Y-73975082D01*
X144421688Y-73974570D01*
X144410323Y-73959701D01*
X144407308Y-73954479D01*
X144400500Y-73942686D01*
X144307314Y-73849500D01*
X144205877Y-73790935D01*
X144193187Y-73783608D01*
X144125837Y-73765562D01*
X144065892Y-73749500D01*
X143934108Y-73749500D01*
X143806812Y-73783608D01*
X143692686Y-73849500D01*
X143692683Y-73849502D01*
X143638181Y-73904005D01*
X143576858Y-73937490D01*
X143507166Y-73932506D01*
X143451233Y-73890634D01*
X143426816Y-73825170D01*
X143426500Y-73816324D01*
X143426500Y-70085189D01*
X143446185Y-70018150D01*
X143462819Y-69997508D01*
X143836966Y-69623361D01*
X144330049Y-69130277D01*
X144391370Y-69096794D01*
X144461061Y-69101778D01*
X144501271Y-69126328D01*
X145219605Y-69781280D01*
X145230716Y-69788162D01*
X145302260Y-69835966D01*
X145375326Y-69850500D01*
X145396643Y-69850500D01*
X145399477Y-69851031D01*
X145402155Y-69850500D01*
X145407352Y-69850500D01*
X145408656Y-69850983D01*
X145409452Y-69850978D01*
X145414330Y-69850500D01*
X147124676Y-69850500D01*
X147124677Y-69850499D01*
X147197740Y-69835966D01*
X147280601Y-69780601D01*
X147335966Y-69697740D01*
X147350500Y-69624674D01*
X147350500Y-67875326D01*
X147350500Y-67875323D01*
X147350499Y-67875321D01*
X147335967Y-67802264D01*
X147335966Y-67802260D01*
X147313335Y-67768390D01*
X147292458Y-67701712D01*
X147310943Y-67634332D01*
X147362922Y-67587643D01*
X147416438Y-67575500D01*
X149470665Y-67575500D01*
X149537704Y-67595185D01*
X149583459Y-67647989D01*
X149586818Y-67656089D01*
X150136302Y-69126330D01*
X150141653Y-69140646D01*
X150149500Y-69184057D01*
X150149500Y-69624678D01*
X150164032Y-69697735D01*
X150164033Y-69697739D01*
X150164034Y-69697740D01*
X150219399Y-69780601D01*
X150302260Y-69835966D01*
X150302264Y-69835967D01*
X150375321Y-69850499D01*
X150375324Y-69850500D01*
X150375326Y-69850500D01*
X152124676Y-69850500D01*
X152124677Y-69850499D01*
X152197740Y-69835966D01*
X152250055Y-69801011D01*
X157692500Y-69801011D01*
X157692500Y-70198988D01*
X157727185Y-70595442D01*
X157796291Y-70987357D01*
X157796294Y-70987370D01*
X157899290Y-71371761D01*
X158035412Y-71745750D01*
X158203592Y-72106415D01*
X158203600Y-72106430D01*
X158402576Y-72451067D01*
X158402585Y-72451082D01*
X158630846Y-72777072D01*
X158853739Y-73042705D01*
X160168314Y-71728130D01*
X160229860Y-71805307D01*
X160444693Y-72020140D01*
X160521867Y-72081684D01*
X159207292Y-73396259D01*
X159207293Y-73396260D01*
X159472920Y-73619148D01*
X159798917Y-73847414D01*
X159798932Y-73847423D01*
X160143569Y-74046399D01*
X160143584Y-74046407D01*
X160504249Y-74214587D01*
X160878238Y-74350709D01*
X161262629Y-74453705D01*
X161262642Y-74453708D01*
X161654557Y-74522814D01*
X162051011Y-74557499D01*
X162051014Y-74557500D01*
X162448986Y-74557500D01*
X162448988Y-74557499D01*
X162845442Y-74522814D01*
X163237357Y-74453708D01*
X163237370Y-74453705D01*
X163621761Y-74350709D01*
X163995750Y-74214587D01*
X164356415Y-74046407D01*
X164356430Y-74046399D01*
X164701067Y-73847423D01*
X164701082Y-73847414D01*
X165027079Y-73619148D01*
X165292705Y-73396260D01*
X165292706Y-73396259D01*
X163978131Y-72081685D01*
X164055307Y-72020140D01*
X164270140Y-71805307D01*
X164331685Y-71728131D01*
X165646259Y-73042706D01*
X165646260Y-73042705D01*
X165869148Y-72777079D01*
X166097414Y-72451082D01*
X166097423Y-72451067D01*
X166296399Y-72106430D01*
X166296407Y-72106415D01*
X166464587Y-71745750D01*
X166600709Y-71371761D01*
X166703705Y-70987370D01*
X166703708Y-70987357D01*
X166772814Y-70595442D01*
X166807499Y-70198988D01*
X166807500Y-70198986D01*
X166807500Y-69801014D01*
X166807499Y-69801011D01*
X166772814Y-69404557D01*
X166703708Y-69012642D01*
X166703705Y-69012629D01*
X166600709Y-68628238D01*
X166464587Y-68254249D01*
X166296407Y-67893584D01*
X166296399Y-67893569D01*
X166097423Y-67548932D01*
X166097414Y-67548917D01*
X165869148Y-67222920D01*
X165646260Y-66957293D01*
X165646259Y-66957292D01*
X164331684Y-68271867D01*
X164270140Y-68194693D01*
X164055307Y-67979860D01*
X163978131Y-67918314D01*
X165292706Y-66603739D01*
X165027072Y-66380846D01*
X164701082Y-66152585D01*
X164701067Y-66152576D01*
X164356430Y-65953600D01*
X164356415Y-65953592D01*
X163995750Y-65785412D01*
X163621761Y-65649290D01*
X163237370Y-65546294D01*
X163237357Y-65546291D01*
X162845442Y-65477185D01*
X162448988Y-65442500D01*
X162051011Y-65442500D01*
X161654557Y-65477185D01*
X161262642Y-65546291D01*
X161262629Y-65546294D01*
X160878238Y-65649290D01*
X160504249Y-65785412D01*
X160143584Y-65953592D01*
X160143569Y-65953600D01*
X159798932Y-66152576D01*
X159798917Y-66152585D01*
X159472927Y-66380846D01*
X159207293Y-66603739D01*
X160521868Y-67918314D01*
X160444693Y-67979860D01*
X160229860Y-68194693D01*
X160168314Y-68271868D01*
X158853739Y-66957293D01*
X158630846Y-67222927D01*
X158402585Y-67548917D01*
X158402576Y-67548932D01*
X158203600Y-67893569D01*
X158203592Y-67893584D01*
X158035412Y-68254249D01*
X157899290Y-68628238D01*
X157796294Y-69012629D01*
X157796291Y-69012642D01*
X157727185Y-69404557D01*
X157692500Y-69801011D01*
X152250055Y-69801011D01*
X152280601Y-69780601D01*
X152335966Y-69697740D01*
X152350500Y-69624674D01*
X152350500Y-67875326D01*
X152350500Y-67875323D01*
X152350499Y-67875321D01*
X152335967Y-67802264D01*
X152335966Y-67802260D01*
X152313335Y-67768390D01*
X152280601Y-67719399D01*
X152197740Y-67664034D01*
X152197739Y-67664033D01*
X152197735Y-67664032D01*
X152124677Y-67649500D01*
X152124674Y-67649500D01*
X151684059Y-67649500D01*
X151640648Y-67641653D01*
X150007356Y-67031231D01*
X149963086Y-67002759D01*
X149949864Y-66989537D01*
X149949862Y-66989535D01*
X149894016Y-66957292D01*
X149875640Y-66946682D01*
X149834246Y-66935591D01*
X149792853Y-66924500D01*
X149792852Y-66924500D01*
X145299465Y-66924500D01*
X145299449Y-66924499D01*
X145291853Y-66924499D01*
X145206147Y-66924499D01*
X145150956Y-66939287D01*
X145123360Y-66946682D01*
X145104984Y-66957292D01*
X145086250Y-66968108D01*
X145049138Y-66989535D01*
X145049135Y-66989537D01*
X142489537Y-69549135D01*
X142489533Y-69549141D01*
X142446681Y-69623361D01*
X142446682Y-69623362D01*
X142424500Y-69706147D01*
X142424500Y-78041046D01*
X142446682Y-78123834D01*
X142463486Y-78152939D01*
X142489535Y-78198056D01*
X142489537Y-78198058D01*
X144324297Y-80032819D01*
X144357782Y-80094142D01*
X144352798Y-80163834D01*
X144310926Y-80219767D01*
X144245462Y-80244184D01*
X144236616Y-80244500D01*
X141157194Y-80244500D01*
X141090155Y-80224815D01*
X141069513Y-80208181D01*
X140541819Y-79680487D01*
X140508334Y-79619164D01*
X140505500Y-79592806D01*
X140505500Y-65374000D01*
X140499661Y-65319687D01*
X140488455Y-65268176D01*
X140481219Y-65241802D01*
X140477332Y-65234976D01*
X140431894Y-65155181D01*
X140431890Y-65155176D01*
X140431888Y-65155172D01*
X140396097Y-65113867D01*
X140386136Y-65102371D01*
X140353359Y-65070743D01*
X140265022Y-65024534D01*
X140265022Y-65024533D01*
X140197990Y-65004851D01*
X140197978Y-65004848D01*
X140126001Y-64994500D01*
X140126000Y-64994500D01*
X130624000Y-64994500D01*
X130623997Y-64994500D01*
X130569687Y-65000338D01*
X130518181Y-65011543D01*
X130518172Y-65011546D01*
X130491807Y-65018779D01*
X130491796Y-65018783D01*
X130405181Y-65068105D01*
X130405173Y-65068111D01*
X130352371Y-65113863D01*
X130320743Y-65146640D01*
X130274534Y-65234977D01*
X130274533Y-65234977D01*
X130254851Y-65302009D01*
X130254848Y-65302021D01*
X130244500Y-65373998D01*
X130244500Y-74626002D01*
X130250338Y-74680312D01*
X130261543Y-74731818D01*
X130261546Y-74731827D01*
X130268779Y-74758192D01*
X130268783Y-74758203D01*
X130318105Y-74844818D01*
X130318110Y-74844825D01*
X130318112Y-74844828D01*
X130334314Y-74863526D01*
X130363863Y-74897628D01*
X130363866Y-74897631D01*
X130363867Y-74897632D01*
X130396641Y-74929257D01*
X130484976Y-74975465D01*
X130484977Y-74975465D01*
X130484977Y-74975466D01*
X130535105Y-74990184D01*
X130552015Y-74995150D01*
X130552019Y-74995150D01*
X130552021Y-74995151D01*
X130563652Y-74996823D01*
X130624000Y-75005500D01*
X136817602Y-75005500D01*
X136884641Y-75025185D01*
X136914430Y-75052038D01*
X137717328Y-76055660D01*
X137743836Y-76120306D01*
X137744500Y-76133122D01*
X137744500Y-82626002D01*
X137750338Y-82680312D01*
X137761543Y-82731818D01*
X137761546Y-82731827D01*
X137768779Y-82758192D01*
X137768783Y-82758203D01*
X137818105Y-82844818D01*
X137818110Y-82844825D01*
X137818112Y-82844828D01*
X137834639Y-82863901D01*
X137863863Y-82897628D01*
X137896641Y-82929257D01*
X137918374Y-82940626D01*
X137968652Y-82989142D01*
X137984719Y-83057139D01*
X137961473Y-83123029D01*
X137906295Y-83165891D01*
X137860897Y-83174500D01*
X134487896Y-83174500D01*
X134420857Y-83154815D01*
X134375102Y-83102011D01*
X134365158Y-83032853D01*
X134394183Y-82969297D01*
X134451899Y-82931839D01*
X134613840Y-82882716D01*
X134927058Y-82752977D01*
X135226051Y-82593162D01*
X135507939Y-82404810D01*
X135770009Y-82189735D01*
X136009735Y-81950009D01*
X136224810Y-81687939D01*
X136413162Y-81406051D01*
X136572977Y-81107058D01*
X136702716Y-80793840D01*
X136801129Y-80469414D01*
X136867270Y-80136904D01*
X136900500Y-79799512D01*
X136900500Y-79460488D01*
X136867270Y-79123096D01*
X136801129Y-78790586D01*
X136702716Y-78466160D01*
X136572977Y-78152942D01*
X136557418Y-78123834D01*
X136413168Y-77853960D01*
X136413167Y-77853958D01*
X136413162Y-77853949D01*
X136224810Y-77572061D01*
X136009735Y-77309991D01*
X136009734Y-77309990D01*
X136009730Y-77309985D01*
X135770014Y-77070269D01*
X135507944Y-76855194D01*
X135507943Y-76855193D01*
X135507939Y-76855190D01*
X135226051Y-76666838D01*
X135226046Y-76666835D01*
X135226039Y-76666831D01*
X134927065Y-76507026D01*
X134927060Y-76507024D01*
X134613841Y-76377284D01*
X134380660Y-76306550D01*
X134289414Y-76278871D01*
X134289411Y-76278870D01*
X134289410Y-76278870D01*
X133956901Y-76212729D01*
X133719199Y-76189318D01*
X133619512Y-76179500D01*
X133280488Y-76179500D01*
X133189738Y-76188437D01*
X132943098Y-76212729D01*
X132610589Y-76278870D01*
X132286158Y-76377284D01*
X131972939Y-76507024D01*
X131972934Y-76507026D01*
X131673960Y-76666831D01*
X131673942Y-76666842D01*
X131392069Y-76855184D01*
X131392055Y-76855194D01*
X131129985Y-77070269D01*
X130890269Y-77309985D01*
X130675194Y-77572055D01*
X130675184Y-77572069D01*
X130486842Y-77853942D01*
X130486831Y-77853960D01*
X130327026Y-78152934D01*
X130327024Y-78152939D01*
X130197284Y-78466158D01*
X130098870Y-78790589D01*
X130032729Y-79123098D01*
X130013741Y-79315891D01*
X129999500Y-79460488D01*
X129999500Y-79799512D01*
X130000494Y-79809605D01*
X130032729Y-80136901D01*
X130092611Y-80437945D01*
X130098871Y-80469414D01*
X130122603Y-80547649D01*
X130197284Y-80793841D01*
X130327024Y-81107060D01*
X130327026Y-81107065D01*
X130486831Y-81406039D01*
X130486835Y-81406046D01*
X130486838Y-81406051D01*
X130630823Y-81621540D01*
X130675184Y-81687930D01*
X130675194Y-81687944D01*
X130890269Y-81950014D01*
X131129985Y-82189730D01*
X131129990Y-82189734D01*
X131129991Y-82189735D01*
X131392061Y-82404810D01*
X131673949Y-82593162D01*
X131673958Y-82593167D01*
X131673960Y-82593168D01*
X131972934Y-82752973D01*
X131972936Y-82752973D01*
X131972942Y-82752977D01*
X132286160Y-82882716D01*
X132448100Y-82931839D01*
X132506538Y-82970137D01*
X132534994Y-83033949D01*
X132524434Y-83103016D01*
X132478210Y-83155409D01*
X132412104Y-83174500D01*
X121686189Y-83174500D01*
X121619150Y-83154815D01*
X121598508Y-83138181D01*
X120579280Y-82118953D01*
X120560439Y-82094747D01*
X120558538Y-82091557D01*
X120557439Y-82089712D01*
X120557437Y-82089709D01*
X120557436Y-82089708D01*
X119830101Y-81283064D01*
X119827898Y-81280982D01*
X119809971Y-81259755D01*
X119786460Y-81224569D01*
X119786457Y-81224565D01*
X119645434Y-81083542D01*
X119645430Y-81083539D01*
X119479605Y-80972737D01*
X119479592Y-80972730D01*
X119295337Y-80896410D01*
X119295332Y-80896409D01*
X119248738Y-80887140D01*
X119222766Y-80877619D01*
X119222349Y-80878584D01*
X119216758Y-80876164D01*
X118140859Y-80531114D01*
X118091046Y-80500719D01*
X117929864Y-80339537D01*
X117929862Y-80339535D01*
X117892750Y-80318108D01*
X117855640Y-80296682D01*
X117814246Y-80285591D01*
X117772853Y-80274500D01*
X117772852Y-80274500D01*
X117246754Y-80274500D01*
X117179715Y-80254815D01*
X117133960Y-80202011D01*
X117124016Y-80132853D01*
X117153041Y-80069297D01*
X117159073Y-80062819D01*
X117246457Y-79975434D01*
X117246460Y-79975431D01*
X117357266Y-79809599D01*
X117433590Y-79625335D01*
X117466380Y-79460491D01*
X117472500Y-79429725D01*
X117987499Y-79429725D01*
X118026408Y-79625329D01*
X118026411Y-79625339D01*
X118102730Y-79809592D01*
X118102737Y-79809605D01*
X118213539Y-79975430D01*
X118213542Y-79975434D01*
X118354565Y-80116457D01*
X118354569Y-80116460D01*
X118520394Y-80227262D01*
X118520407Y-80227269D01*
X118687987Y-80296682D01*
X118704665Y-80303590D01*
X118704669Y-80303590D01*
X118704670Y-80303591D01*
X118900274Y-80342500D01*
X118900277Y-80342500D01*
X119099725Y-80342500D01*
X119279001Y-80306839D01*
X119295335Y-80303590D01*
X119438755Y-80244184D01*
X119479592Y-80227269D01*
X119479592Y-80227268D01*
X119479599Y-80227266D01*
X119645431Y-80116460D01*
X119786460Y-79975431D01*
X119897266Y-79809599D01*
X119973590Y-79625335D01*
X120006380Y-79460491D01*
X120012500Y-79429725D01*
X120012500Y-79230274D01*
X119973591Y-79034670D01*
X119973590Y-79034669D01*
X119973590Y-79034665D01*
X119913690Y-78890052D01*
X119897269Y-78850407D01*
X119897262Y-78850394D01*
X119786460Y-78684569D01*
X119786457Y-78684565D01*
X119645434Y-78543542D01*
X119645430Y-78543539D01*
X119479605Y-78432737D01*
X119479592Y-78432730D01*
X119295339Y-78356411D01*
X119295329Y-78356408D01*
X119099725Y-78317500D01*
X119099723Y-78317500D01*
X118900277Y-78317500D01*
X118900275Y-78317500D01*
X118704670Y-78356408D01*
X118704660Y-78356411D01*
X118520407Y-78432730D01*
X118520394Y-78432737D01*
X118354569Y-78543539D01*
X118354565Y-78543542D01*
X118213542Y-78684565D01*
X118213539Y-78684569D01*
X118102737Y-78850394D01*
X118102730Y-78850407D01*
X118026411Y-79034660D01*
X118026408Y-79034670D01*
X117987500Y-79230274D01*
X117987500Y-79230277D01*
X117987500Y-79429723D01*
X117987500Y-79429725D01*
X117987499Y-79429725D01*
X117472500Y-79429725D01*
X117472500Y-79230274D01*
X117433591Y-79034670D01*
X117433590Y-79034669D01*
X117433590Y-79034665D01*
X117373690Y-78890052D01*
X117357269Y-78850407D01*
X117357262Y-78850394D01*
X117246460Y-78684569D01*
X117246457Y-78684565D01*
X117105434Y-78543542D01*
X117105430Y-78543539D01*
X116939605Y-78432737D01*
X116939592Y-78432730D01*
X116755339Y-78356411D01*
X116755329Y-78356408D01*
X116559725Y-78317500D01*
X116559723Y-78317500D01*
X116360277Y-78317500D01*
X116360275Y-78317500D01*
X116164670Y-78356408D01*
X116164660Y-78356411D01*
X115980407Y-78432730D01*
X115980394Y-78432737D01*
X115814569Y-78543539D01*
X115814565Y-78543542D01*
X115673542Y-78684565D01*
X115673539Y-78684569D01*
X115562737Y-78850394D01*
X115562730Y-78850407D01*
X115486411Y-79034660D01*
X115486408Y-79034670D01*
X115447500Y-79230274D01*
X115447500Y-79230277D01*
X115447500Y-79429723D01*
X115447500Y-79429725D01*
X115447499Y-79429725D01*
X115486408Y-79625329D01*
X115486411Y-79625339D01*
X115562730Y-79809592D01*
X115562737Y-79809605D01*
X115673539Y-79975430D01*
X115673542Y-79975434D01*
X115814564Y-80116456D01*
X115814567Y-80116458D01*
X115814569Y-80116460D01*
X115821177Y-80120875D01*
X115865982Y-80174486D01*
X115874691Y-80243811D01*
X115844537Y-80306839D01*
X115814290Y-80331364D01*
X115800138Y-80339534D01*
X114439537Y-81700135D01*
X114439535Y-81700138D01*
X114396682Y-81774361D01*
X114384852Y-81818512D01*
X114384852Y-81818513D01*
X114384851Y-81818512D01*
X114374500Y-81857145D01*
X109050500Y-81857145D01*
X109050500Y-76889725D01*
X115447499Y-76889725D01*
X115486408Y-77085329D01*
X115486411Y-77085339D01*
X115562730Y-77269592D01*
X115562737Y-77269605D01*
X115673539Y-77435430D01*
X115673542Y-77435434D01*
X115814565Y-77576457D01*
X115814569Y-77576460D01*
X115980394Y-77687262D01*
X115980407Y-77687269D01*
X116142232Y-77754298D01*
X116164665Y-77763590D01*
X116164669Y-77763590D01*
X116164670Y-77763591D01*
X116360274Y-77802500D01*
X116360277Y-77802500D01*
X116559725Y-77802500D01*
X116691324Y-77776322D01*
X116755335Y-77763590D01*
X116939599Y-77687266D01*
X117105431Y-77576460D01*
X117246460Y-77435431D01*
X117357266Y-77269599D01*
X117433590Y-77085335D01*
X117472500Y-76889725D01*
X117987499Y-76889725D01*
X118026408Y-77085329D01*
X118026411Y-77085339D01*
X118102730Y-77269592D01*
X118102737Y-77269605D01*
X118213539Y-77435430D01*
X118213542Y-77435434D01*
X118354565Y-77576457D01*
X118354569Y-77576460D01*
X118520394Y-77687262D01*
X118520407Y-77687269D01*
X118682232Y-77754298D01*
X118704665Y-77763590D01*
X118704669Y-77763590D01*
X118704670Y-77763591D01*
X118900274Y-77802500D01*
X118900277Y-77802500D01*
X119099725Y-77802500D01*
X119231324Y-77776322D01*
X119295335Y-77763590D01*
X119479599Y-77687266D01*
X119645431Y-77576460D01*
X119786460Y-77435431D01*
X119897266Y-77269599D01*
X119973590Y-77085335D01*
X120012500Y-76889723D01*
X120012500Y-76690277D01*
X120012500Y-76690274D01*
X119973591Y-76494670D01*
X119973590Y-76494669D01*
X119973590Y-76494665D01*
X119962511Y-76467917D01*
X119897269Y-76310407D01*
X119897262Y-76310394D01*
X119786460Y-76144569D01*
X119786457Y-76144565D01*
X119645434Y-76003542D01*
X119645430Y-76003539D01*
X119479605Y-75892737D01*
X119479592Y-75892730D01*
X119295339Y-75816411D01*
X119295329Y-75816408D01*
X119099725Y-75777500D01*
X119099723Y-75777500D01*
X118900277Y-75777500D01*
X118900275Y-75777500D01*
X118704670Y-75816408D01*
X118704660Y-75816411D01*
X118520407Y-75892730D01*
X118520394Y-75892737D01*
X118354569Y-76003539D01*
X118354565Y-76003542D01*
X118213542Y-76144565D01*
X118213539Y-76144569D01*
X118102737Y-76310394D01*
X118102730Y-76310407D01*
X118026411Y-76494660D01*
X118026408Y-76494670D01*
X117987500Y-76690274D01*
X117987500Y-76690277D01*
X117987500Y-76889723D01*
X117987500Y-76889725D01*
X117987499Y-76889725D01*
X117472500Y-76889725D01*
X117472500Y-76889723D01*
X117472500Y-76690277D01*
X117472500Y-76690274D01*
X117433591Y-76494670D01*
X117433590Y-76494669D01*
X117433590Y-76494665D01*
X117422511Y-76467917D01*
X117357269Y-76310407D01*
X117357262Y-76310394D01*
X117246460Y-76144569D01*
X117246457Y-76144565D01*
X117105434Y-76003542D01*
X117105430Y-76003539D01*
X116939605Y-75892737D01*
X116939592Y-75892730D01*
X116755339Y-75816411D01*
X116755329Y-75816408D01*
X116559725Y-75777500D01*
X116559723Y-75777500D01*
X116360277Y-75777500D01*
X116360275Y-75777500D01*
X116164670Y-75816408D01*
X116164660Y-75816411D01*
X115980407Y-75892730D01*
X115980394Y-75892737D01*
X115814569Y-76003539D01*
X115814565Y-76003542D01*
X115673542Y-76144565D01*
X115673539Y-76144569D01*
X115562737Y-76310394D01*
X115562730Y-76310407D01*
X115486411Y-76494660D01*
X115486408Y-76494670D01*
X115447500Y-76690274D01*
X115447500Y-76690277D01*
X115447500Y-76889723D01*
X115447500Y-76889725D01*
X115447499Y-76889725D01*
X109050500Y-76889725D01*
X109050500Y-74150678D01*
X115198000Y-74150678D01*
X115198000Y-74349321D01*
X115229075Y-74545520D01*
X115229075Y-74545523D01*
X115290457Y-74734437D01*
X115380641Y-74911432D01*
X115407730Y-74948715D01*
X115407731Y-74948716D01*
X115970504Y-74385942D01*
X115986619Y-74446081D01*
X116053498Y-74561920D01*
X116148080Y-74656502D01*
X116263919Y-74723381D01*
X116324057Y-74739494D01*
X115761283Y-75302268D01*
X115761283Y-75302269D01*
X115798567Y-75329358D01*
X115975562Y-75419542D01*
X116164477Y-75480924D01*
X116360679Y-75512000D01*
X116559321Y-75512000D01*
X116755520Y-75480924D01*
X116755523Y-75480924D01*
X116944437Y-75419542D01*
X117121425Y-75329362D01*
X117158716Y-75302268D01*
X116595942Y-74739494D01*
X116656081Y-74723381D01*
X116771920Y-74656502D01*
X116866502Y-74561920D01*
X116933381Y-74446081D01*
X116949495Y-74385942D01*
X117512268Y-74948715D01*
X117539362Y-74911425D01*
X117619515Y-74754117D01*
X117667489Y-74703321D01*
X117735310Y-74686526D01*
X117801445Y-74709063D01*
X117840485Y-74754117D01*
X117920641Y-74911432D01*
X117947730Y-74948715D01*
X117947731Y-74948716D01*
X118510504Y-74385942D01*
X118526619Y-74446081D01*
X118593498Y-74561920D01*
X118688080Y-74656502D01*
X118803919Y-74723381D01*
X118864057Y-74739494D01*
X118301283Y-75302268D01*
X118301283Y-75302269D01*
X118338567Y-75329358D01*
X118515562Y-75419542D01*
X118704477Y-75480924D01*
X118900679Y-75512000D01*
X119099321Y-75512000D01*
X119295520Y-75480924D01*
X119295523Y-75480924D01*
X119484437Y-75419542D01*
X119661425Y-75329362D01*
X119698716Y-75302268D01*
X119135942Y-74739494D01*
X119196081Y-74723381D01*
X119311920Y-74656502D01*
X119406502Y-74561920D01*
X119473381Y-74446081D01*
X119489495Y-74385942D01*
X120052268Y-74948715D01*
X120079362Y-74911425D01*
X120169542Y-74734437D01*
X120230924Y-74545523D01*
X120230924Y-74545520D01*
X120262000Y-74349321D01*
X120262000Y-74150678D01*
X120230924Y-73954479D01*
X120230924Y-73954476D01*
X120169542Y-73765562D01*
X120079358Y-73588567D01*
X120052268Y-73551283D01*
X119489494Y-74114057D01*
X119473381Y-74053919D01*
X119406502Y-73938080D01*
X119311920Y-73843498D01*
X119196081Y-73776619D01*
X119135942Y-73760504D01*
X119698716Y-73197731D01*
X119698715Y-73197730D01*
X119661432Y-73170641D01*
X119484437Y-73080457D01*
X119295522Y-73019075D01*
X119099321Y-72988000D01*
X118900679Y-72988000D01*
X118704479Y-73019075D01*
X118704476Y-73019075D01*
X118515562Y-73080457D01*
X118338564Y-73170643D01*
X118301283Y-73197729D01*
X118301282Y-73197730D01*
X118864058Y-73760504D01*
X118803919Y-73776619D01*
X118688080Y-73843498D01*
X118593498Y-73938080D01*
X118526619Y-74053919D01*
X118510504Y-74114057D01*
X117947730Y-73551282D01*
X117947729Y-73551283D01*
X117920643Y-73588564D01*
X117840485Y-73745882D01*
X117792510Y-73796678D01*
X117724689Y-73813473D01*
X117658554Y-73790935D01*
X117619515Y-73745882D01*
X117539358Y-73588567D01*
X117512268Y-73551283D01*
X116949494Y-74114057D01*
X116933381Y-74053919D01*
X116866502Y-73938080D01*
X116771920Y-73843498D01*
X116656081Y-73776619D01*
X116595942Y-73760504D01*
X117158716Y-73197731D01*
X117158715Y-73197730D01*
X117121432Y-73170641D01*
X116944437Y-73080457D01*
X116755522Y-73019075D01*
X116559321Y-72988000D01*
X116360679Y-72988000D01*
X116164479Y-73019075D01*
X116164476Y-73019075D01*
X115975562Y-73080457D01*
X115798564Y-73170643D01*
X115761283Y-73197729D01*
X115761282Y-73197730D01*
X116324058Y-73760504D01*
X116263919Y-73776619D01*
X116148080Y-73843498D01*
X116053498Y-73938080D01*
X115986619Y-74053919D01*
X115970504Y-74114057D01*
X115407730Y-73551282D01*
X115407729Y-73551283D01*
X115380643Y-73588564D01*
X115290457Y-73765562D01*
X115229075Y-73954476D01*
X115229075Y-73954479D01*
X115198000Y-74150678D01*
X109050500Y-74150678D01*
X109050500Y-72209568D01*
X109050500Y-63003245D01*
X109050670Y-62996755D01*
X109067687Y-62672047D01*
X109069044Y-62659139D01*
X109119401Y-62341201D01*
X109122094Y-62328525D01*
X109205416Y-62017564D01*
X109209425Y-62005229D01*
X109324784Y-61704707D01*
X109330059Y-61692860D01*
X109330060Y-61692859D01*
X109364472Y-61625321D01*
X145149500Y-61625321D01*
X145149500Y-63374678D01*
X145164032Y-63447735D01*
X145164033Y-63447739D01*
X145164034Y-63447740D01*
X145219399Y-63530601D01*
X145302260Y-63585966D01*
X145302264Y-63585967D01*
X145375321Y-63600499D01*
X145375324Y-63600500D01*
X145375326Y-63600500D01*
X147124676Y-63600500D01*
X147124677Y-63600499D01*
X147197740Y-63585966D01*
X147280601Y-63530601D01*
X147335966Y-63447740D01*
X147350500Y-63374674D01*
X147350500Y-61625326D01*
X147350047Y-61623048D01*
X147350047Y-61623045D01*
X147350046Y-61623042D01*
X147345891Y-61602155D01*
X149900000Y-61602155D01*
X149900000Y-62250000D01*
X150816988Y-62250000D01*
X150784075Y-62307007D01*
X150750000Y-62434174D01*
X150750000Y-62565826D01*
X150784075Y-62692993D01*
X150816988Y-62750000D01*
X149900000Y-62750000D01*
X149900000Y-63397844D01*
X149906401Y-63457372D01*
X149906403Y-63457379D01*
X149956645Y-63592086D01*
X149956649Y-63592093D01*
X150042809Y-63707187D01*
X150042812Y-63707190D01*
X150157906Y-63793350D01*
X150157913Y-63793354D01*
X150292620Y-63843596D01*
X150292627Y-63843598D01*
X150352155Y-63849999D01*
X150352172Y-63850000D01*
X151000000Y-63850000D01*
X151000000Y-62933012D01*
X151057007Y-62965925D01*
X151184174Y-63000000D01*
X151315826Y-63000000D01*
X151442993Y-62965925D01*
X151500000Y-62933012D01*
X151500000Y-63850000D01*
X152147828Y-63850000D01*
X152147844Y-63849999D01*
X152207372Y-63843598D01*
X152207379Y-63843596D01*
X152342086Y-63793354D01*
X152342093Y-63793350D01*
X152457187Y-63707190D01*
X152457190Y-63707187D01*
X152543350Y-63592093D01*
X152543354Y-63592086D01*
X152593596Y-63457379D01*
X152593598Y-63457372D01*
X152599999Y-63397844D01*
X152600000Y-63397827D01*
X152600000Y-62750000D01*
X151683012Y-62750000D01*
X151715925Y-62692993D01*
X151750000Y-62565826D01*
X151750000Y-62434174D01*
X151715925Y-62307007D01*
X151683012Y-62250000D01*
X152600000Y-62250000D01*
X152600000Y-61602172D01*
X152599999Y-61602155D01*
X152593598Y-61542627D01*
X152593596Y-61542620D01*
X152543354Y-61407913D01*
X152543350Y-61407906D01*
X152457190Y-61292812D01*
X152457187Y-61292809D01*
X152342093Y-61206649D01*
X152342086Y-61206645D01*
X152207379Y-61156403D01*
X152207372Y-61156401D01*
X152147844Y-61150000D01*
X151500000Y-61150000D01*
X151500000Y-62066988D01*
X151442993Y-62034075D01*
X151315826Y-62000000D01*
X151184174Y-62000000D01*
X151057007Y-62034075D01*
X151000000Y-62066988D01*
X151000000Y-61150000D01*
X150352155Y-61150000D01*
X150292627Y-61156401D01*
X150292620Y-61156403D01*
X150157913Y-61206645D01*
X150157906Y-61206649D01*
X150042812Y-61292809D01*
X150042809Y-61292812D01*
X149956649Y-61407906D01*
X149956645Y-61407913D01*
X149906403Y-61542620D01*
X149906401Y-61542627D01*
X149900000Y-61602155D01*
X147345891Y-61602155D01*
X147335967Y-61552264D01*
X147335966Y-61552260D01*
X147280601Y-61469399D01*
X147197740Y-61414034D01*
X147197739Y-61414033D01*
X147197735Y-61414032D01*
X147124677Y-61399500D01*
X147124674Y-61399500D01*
X145375326Y-61399500D01*
X145375323Y-61399500D01*
X145302264Y-61414032D01*
X145302260Y-61414033D01*
X145219399Y-61469399D01*
X145164033Y-61552260D01*
X145164032Y-61552264D01*
X145149500Y-61625321D01*
X109364472Y-61625321D01*
X109476214Y-61406014D01*
X109482680Y-61394815D01*
X109658015Y-61124823D01*
X109665630Y-61114342D01*
X109868229Y-60864153D01*
X109876896Y-60854528D01*
X110104528Y-60626896D01*
X110114153Y-60618229D01*
X110364342Y-60415630D01*
X110374823Y-60408015D01*
X110644815Y-60232680D01*
X110656014Y-60226214D01*
X110942868Y-60080054D01*
X110954707Y-60074784D01*
X111255236Y-59959422D01*
X111267564Y-59955416D01*
X111578525Y-59872094D01*
X111591201Y-59869401D01*
X111909141Y-59819043D01*
X111922045Y-59817687D01*
X112246756Y-59800669D01*
X112253246Y-59800500D01*
X112297595Y-59800500D01*
X166952405Y-59800500D01*
X166996754Y-59800500D01*
X167003243Y-59800669D01*
G37*
%TD.AperFunction*%
%TD*%
%TA.AperFunction,Conductor*%
%TO.N,/CAN_H*%
G36*
X127156898Y-134636059D02*
G01*
X127159020Y-134638962D01*
X127730738Y-135745708D01*
X127731490Y-135754631D01*
X127726853Y-135760799D01*
X127087260Y-136189140D01*
X127078480Y-136190897D01*
X127074240Y-136189140D01*
X126434646Y-135760799D01*
X126429678Y-135753348D01*
X126430760Y-135745710D01*
X127002480Y-134638961D01*
X127009322Y-134633185D01*
X127012875Y-134632632D01*
X127148625Y-134632632D01*
X127156898Y-134636059D01*
G37*
%TD.AperFunction*%
%TD*%
%TA.AperFunction,Conductor*%
%TO.N,/CAN_H*%
G36*
X117992552Y-80751869D02*
G01*
X119138731Y-81119458D01*
X119145562Y-81125248D01*
X119146636Y-81132869D01*
X119002227Y-81863019D01*
X118997260Y-81870470D01*
X118993019Y-81872227D01*
X118262869Y-82016636D01*
X118254088Y-82014879D01*
X118249458Y-82008731D01*
X117881869Y-80862552D01*
X117882606Y-80853628D01*
X117884734Y-80850709D01*
X117980707Y-80754736D01*
X117988979Y-80751310D01*
X117992552Y-80751869D01*
G37*
%TD.AperFunction*%
%TD*%
%TA.AperFunction,Conductor*%
%TO.N,/CAN_L*%
G36*
X116453020Y-81867772D02*
G01*
X116460470Y-81872739D01*
X116462227Y-81876980D01*
X116606636Y-82607130D01*
X116604879Y-82615911D01*
X116598731Y-82620541D01*
X115452552Y-82988130D01*
X115443628Y-82987393D01*
X115440706Y-82985262D01*
X115344737Y-82889293D01*
X115341310Y-82881020D01*
X115341869Y-82877447D01*
X115664087Y-81872739D01*
X115709458Y-81731267D01*
X115715248Y-81724437D01*
X115722866Y-81723363D01*
X116453020Y-81867772D01*
G37*
%TD.AperFunction*%
%TD*%
%TA.AperFunction,Conductor*%
%TO.N,/CAN_L*%
G36*
X127422573Y-132198636D02*
G01*
X128609433Y-132576960D01*
X128616274Y-132582736D01*
X128617357Y-132590376D01*
X128467977Y-133345519D01*
X128463009Y-133352970D01*
X128458769Y-133354727D01*
X127703626Y-133504107D01*
X127694846Y-133502350D01*
X127690210Y-133496183D01*
X127401475Y-132590376D01*
X127356803Y-132450233D01*
X127356250Y-132446680D01*
X127356250Y-132409089D01*
X127356250Y-132409088D01*
X127314406Y-132308069D01*
X127314406Y-132299117D01*
X127316939Y-132295324D01*
X127410753Y-132201510D01*
X127419025Y-132198084D01*
X127422573Y-132198636D01*
G37*
%TD.AperFunction*%
%TD*%
%TA.AperFunction,Conductor*%
%TO.N,VDDA*%
G36*
X151297315Y-80608427D02*
G01*
X151298504Y-80609818D01*
X151491569Y-80875282D01*
X151493664Y-80883989D01*
X151493297Y-80885579D01*
X151231190Y-81744337D01*
X151225498Y-81751250D01*
X151216585Y-81752112D01*
X151209672Y-81746420D01*
X151208810Y-81744337D01*
X151167569Y-81609217D01*
X150946702Y-80885577D01*
X150947564Y-80876666D01*
X150948422Y-80875294D01*
X151141496Y-80609818D01*
X151149133Y-80605143D01*
X151150958Y-80605000D01*
X151289042Y-80605000D01*
X151297315Y-80608427D01*
G37*
%TD.AperFunction*%
%TD*%
%TA.AperFunction,Conductor*%
%TO.N,VDDA*%
G36*
X145407898Y-67907889D02*
G01*
X146019961Y-68519233D01*
X146242712Y-68741722D01*
X146246144Y-68749993D01*
X146242722Y-68758268D01*
X146242712Y-68758278D01*
X145407900Y-69592109D01*
X145399625Y-69595531D01*
X145391749Y-69592477D01*
X144553817Y-68828480D01*
X144550012Y-68820373D01*
X144550000Y-68819834D01*
X144550000Y-68680165D01*
X144553427Y-68671892D01*
X144553799Y-68671536D01*
X145391750Y-67907521D01*
X145400171Y-67904480D01*
X145407898Y-67907889D01*
G37*
%TD.AperFunction*%
%TD*%
%TA.AperFunction,Conductor*%
%TO.N,+3.3V*%
G36*
X153894450Y-81670022D02*
G01*
X153900097Y-81675012D01*
X154173408Y-82153306D01*
X154174538Y-82162189D01*
X154171523Y-82167384D01*
X154001066Y-82337842D01*
X153907374Y-82431533D01*
X153899101Y-82434960D01*
X153890828Y-82431533D01*
X153888294Y-82427743D01*
X153851000Y-82337842D01*
X153623791Y-81790138D01*
X153623787Y-81781184D01*
X153630115Y-81774849D01*
X153885496Y-81669994D01*
X153894450Y-81670022D01*
G37*
%TD.AperFunction*%
%TD*%
%TA.AperFunction,Conductor*%
%TO.N,+3.3V*%
G36*
X154595805Y-82575377D02*
G01*
X155075123Y-82824556D01*
X155080883Y-82831412D01*
X155080107Y-82840333D01*
X155079475Y-82841404D01*
X154922015Y-83078734D01*
X154918734Y-83082015D01*
X154681404Y-83239475D01*
X154672616Y-83241194D01*
X154665187Y-83236194D01*
X154664560Y-83235132D01*
X154415377Y-82755806D01*
X154414602Y-82746887D01*
X154417484Y-82742140D01*
X154582139Y-82577485D01*
X154590411Y-82574059D01*
X154595805Y-82575377D01*
G37*
%TD.AperFunction*%
%TD*%
%TA.AperFunction,Conductor*%
%TO.N,+3.3V*%
G36*
X152837589Y-85618177D02*
G01*
X153443971Y-85954159D01*
X153449546Y-85961165D01*
X153450000Y-85964392D01*
X153450000Y-86200607D01*
X153446573Y-86208880D01*
X153443970Y-86210841D01*
X152837590Y-86546821D01*
X152828693Y-86547833D01*
X152822343Y-86543307D01*
X152503715Y-86089220D01*
X152501768Y-86080480D01*
X152503715Y-86075780D01*
X152822343Y-85621692D01*
X152829900Y-85616888D01*
X152837589Y-85618177D01*
G37*
%TD.AperFunction*%
%TD*%
%TA.AperFunction,Conductor*%
%TO.N,+3.3V*%
G36*
X155480052Y-83458826D02*
G01*
X156334564Y-83770920D01*
X156341159Y-83776977D01*
X156341540Y-83785924D01*
X156341474Y-83786101D01*
X156165024Y-84245970D01*
X156158860Y-84252467D01*
X156158507Y-84252617D01*
X155685327Y-84445001D01*
X155676372Y-84444943D01*
X155670308Y-84439088D01*
X155299706Y-83640458D01*
X155299333Y-83631512D01*
X155302045Y-83627263D01*
X155467766Y-83461542D01*
X155476038Y-83458116D01*
X155480052Y-83458826D01*
G37*
%TD.AperFunction*%
%TD*%
%TA.AperFunction,Conductor*%
%TO.N,+3.3V*%
G36*
X155174812Y-82923805D02*
G01*
X155175444Y-82924876D01*
X155424621Y-83404191D01*
X155425397Y-83413112D01*
X155422513Y-83417861D01*
X155257861Y-83582513D01*
X155249588Y-83585940D01*
X155244191Y-83584621D01*
X154764876Y-83335444D01*
X154759116Y-83328587D01*
X154759892Y-83319666D01*
X154760516Y-83318607D01*
X154917985Y-83081263D01*
X154921263Y-83077985D01*
X155158596Y-82920523D01*
X155167383Y-82918805D01*
X155174812Y-82923805D01*
G37*
%TD.AperFunction*%
%TD*%
%TA.AperFunction,Conductor*%
%TO.N,+3.3V*%
G36*
X156158446Y-84247503D02*
G01*
X156164983Y-84253621D01*
X156165145Y-84253996D01*
X156354826Y-84714262D01*
X156354810Y-84723217D01*
X156348548Y-84729504D01*
X155511817Y-85081657D01*
X155502862Y-85081708D01*
X155499005Y-85079146D01*
X155333309Y-84913450D01*
X155329882Y-84905177D01*
X155330765Y-84900718D01*
X155407636Y-84714262D01*
X155670678Y-84076230D01*
X155677000Y-84069888D01*
X155685610Y-84069738D01*
X156158446Y-84247503D01*
G37*
%TD.AperFunction*%
%TD*%
%TA.AperFunction,Conductor*%
%TO.N,GNDA*%
G36*
X150378106Y-80603379D02*
G01*
X150378713Y-80604034D01*
X150460534Y-80699679D01*
X150611024Y-80875596D01*
X150613798Y-80884111D01*
X150613570Y-80885667D01*
X150430175Y-81736765D01*
X150425083Y-81744130D01*
X150416273Y-81745737D01*
X150408908Y-81740645D01*
X150407550Y-81737725D01*
X150407256Y-81736765D01*
X150146620Y-80885293D01*
X150147476Y-80876381D01*
X150148057Y-80875405D01*
X150263796Y-80701465D01*
X150265255Y-80699684D01*
X150361561Y-80603378D01*
X150369833Y-80599952D01*
X150378106Y-80603379D01*
G37*
%TD.AperFunction*%
%TD*%
%TA.AperFunction,Conductor*%
%TO.N,GNDA*%
G36*
X149859040Y-67248561D02*
G01*
X151590742Y-67895762D01*
X151597292Y-67901869D01*
X151597606Y-67910818D01*
X151597460Y-67911189D01*
X151252562Y-68746215D01*
X151246236Y-68752553D01*
X151246215Y-68752562D01*
X150411189Y-69097460D01*
X150402234Y-69097451D01*
X150395908Y-69091113D01*
X150395762Y-69090742D01*
X149748561Y-67359040D01*
X149748875Y-67350091D01*
X149751245Y-67346674D01*
X149846672Y-67251247D01*
X149854944Y-67247821D01*
X149859040Y-67248561D01*
G37*
%TD.AperFunction*%
%TD*%
%TA.AperFunction,Conductor*%
%TO.N,/SPI1_MISO*%
G36*
X145697315Y-76308427D02*
G01*
X145698504Y-76309818D01*
X145891569Y-76575282D01*
X145893664Y-76583989D01*
X145893297Y-76585579D01*
X145631190Y-77444337D01*
X145625498Y-77451250D01*
X145616585Y-77452112D01*
X145609672Y-77446420D01*
X145608810Y-77444337D01*
X145567569Y-77309217D01*
X145346702Y-76585577D01*
X145347564Y-76576666D01*
X145348422Y-76575294D01*
X145541496Y-76309818D01*
X145549133Y-76305143D01*
X145550958Y-76305000D01*
X145689042Y-76305000D01*
X145697315Y-76308427D01*
G37*
%TD.AperFunction*%
%TD*%
%TA.AperFunction,Conductor*%
%TO.N,/SPI1_MISO*%
G36*
X145586130Y-74980133D02*
G01*
X145590945Y-74987012D01*
X145651867Y-75232021D01*
X145691389Y-75390964D01*
X145690060Y-75399819D01*
X145682858Y-75405141D01*
X145680035Y-75405487D01*
X145547794Y-75405487D01*
X145542508Y-75404225D01*
X145215924Y-75238817D01*
X145210091Y-75232021D01*
X145210772Y-75223093D01*
X145211460Y-75221910D01*
X145340361Y-75028069D01*
X145347796Y-75023079D01*
X145347831Y-75023071D01*
X145577355Y-74978352D01*
X145586130Y-74980133D01*
G37*
%TD.AperFunction*%
%TD*%
%TA.AperFunction,Conductor*%
%TO.N,/SPI1_MOSI*%
G36*
X147241493Y-75955439D02*
G01*
X147246439Y-75962904D01*
X147246585Y-75963863D01*
X147293573Y-76391090D01*
X147291071Y-76399688D01*
X147283222Y-76403999D01*
X147281943Y-76404069D01*
X147148650Y-76404069D01*
X147141998Y-76401994D01*
X146870561Y-76214401D01*
X146865703Y-76206878D01*
X146867469Y-76198298D01*
X146997293Y-76003069D01*
X147004728Y-75998079D01*
X147004763Y-75998071D01*
X147232717Y-75953658D01*
X147241493Y-75955439D01*
G37*
%TD.AperFunction*%
%TD*%
%TA.AperFunction,Conductor*%
%TO.N,/SPI1_MOSI*%
G36*
X147297315Y-76308427D02*
G01*
X147298504Y-76309818D01*
X147491569Y-76575282D01*
X147493664Y-76583989D01*
X147493297Y-76585579D01*
X147231190Y-77444337D01*
X147225498Y-77451250D01*
X147216585Y-77452112D01*
X147209672Y-77446420D01*
X147208810Y-77444337D01*
X147167569Y-77309217D01*
X146946702Y-76585577D01*
X146947564Y-76576666D01*
X146948422Y-76575294D01*
X147141496Y-76309818D01*
X147149133Y-76305143D01*
X147150958Y-76305000D01*
X147289042Y-76305000D01*
X147297315Y-76308427D01*
G37*
%TD.AperFunction*%
%TD*%
%TA.AperFunction,Conductor*%
%TO.N,/ADC1_IN7*%
G36*
X150430328Y-77513579D02*
G01*
X150431190Y-77515662D01*
X150693297Y-78374420D01*
X150692435Y-78383333D01*
X150691569Y-78384717D01*
X150498504Y-78650182D01*
X150490867Y-78654857D01*
X150489042Y-78655000D01*
X150350958Y-78655000D01*
X150342685Y-78651573D01*
X150341496Y-78650182D01*
X150148429Y-78384715D01*
X150146335Y-78376010D01*
X150146698Y-78374434D01*
X150408810Y-77515661D01*
X150414502Y-77508749D01*
X150423415Y-77507887D01*
X150430328Y-77513579D01*
G37*
%TD.AperFunction*%
%TD*%
%TA.AperFunction,Conductor*%
%TO.N,/ADC1_IN7*%
G36*
X150495213Y-78758231D02*
G01*
X150497872Y-78762336D01*
X150660281Y-79188337D01*
X150660027Y-79197288D01*
X150653517Y-79203437D01*
X150651677Y-79203971D01*
X150422328Y-79250527D01*
X150417672Y-79250527D01*
X150188322Y-79203971D01*
X150180896Y-79198967D01*
X150179184Y-79190177D01*
X150179718Y-79188337D01*
X150342128Y-78762336D01*
X150348277Y-78755826D01*
X150353060Y-78754804D01*
X150486940Y-78754804D01*
X150495213Y-78758231D01*
G37*
%TD.AperFunction*%
%TD*%
%TA.AperFunction,Conductor*%
%TO.N,/SPI2_MOSI*%
G36*
X147834411Y-83134096D02*
G01*
X147929076Y-83228761D01*
X147932503Y-83237034D01*
X147931481Y-83241817D01*
X147745094Y-83657887D01*
X147738584Y-83664036D01*
X147729633Y-83663782D01*
X147727954Y-83662858D01*
X147532861Y-83533603D01*
X147529569Y-83530311D01*
X147400314Y-83335218D01*
X147398602Y-83326429D01*
X147403606Y-83319002D01*
X147405285Y-83318078D01*
X147586199Y-83237034D01*
X147821355Y-83131690D01*
X147830306Y-83131437D01*
X147834411Y-83134096D01*
G37*
%TD.AperFunction*%
%TD*%
%TA.AperFunction,Conductor*%
%TO.N,/SPI2_MOSI*%
G36*
X148030328Y-81813579D02*
G01*
X148031190Y-81815662D01*
X148293297Y-82674420D01*
X148292435Y-82683333D01*
X148291569Y-82684717D01*
X148098504Y-82950182D01*
X148090867Y-82954857D01*
X148089042Y-82955000D01*
X147950958Y-82955000D01*
X147942685Y-82951573D01*
X147941496Y-82950182D01*
X147748429Y-82684715D01*
X147746335Y-82676010D01*
X147746698Y-82674434D01*
X148008810Y-81815661D01*
X148014502Y-81808749D01*
X148023415Y-81807887D01*
X148030328Y-81813579D01*
G37*
%TD.AperFunction*%
%TD*%
%TA.AperFunction,Conductor*%
%TO.N,/SPI2_SCK*%
G36*
X147230328Y-81813579D02*
G01*
X147231190Y-81815662D01*
X147493297Y-82674420D01*
X147492435Y-82683333D01*
X147491569Y-82684717D01*
X147298504Y-82950182D01*
X147290867Y-82954857D01*
X147289042Y-82955000D01*
X147150958Y-82955000D01*
X147142685Y-82951573D01*
X147141496Y-82950182D01*
X146948429Y-82684715D01*
X146946335Y-82676010D01*
X146946698Y-82674434D01*
X147208810Y-81815661D01*
X147214502Y-81808749D01*
X147223415Y-81807887D01*
X147230328Y-81813579D01*
G37*
%TD.AperFunction*%
%TD*%
%TA.AperFunction,Conductor*%
%TO.N,/SPI2_SCK*%
G36*
X147052823Y-83102511D02*
G01*
X147147488Y-83197176D01*
X147150915Y-83205449D01*
X147149893Y-83210232D01*
X146963506Y-83626302D01*
X146956996Y-83632451D01*
X146948045Y-83632197D01*
X146946366Y-83631273D01*
X146751273Y-83502018D01*
X146747981Y-83498726D01*
X146618726Y-83303633D01*
X146617014Y-83294844D01*
X146622018Y-83287417D01*
X146623697Y-83286493D01*
X146804611Y-83205449D01*
X147039767Y-83100105D01*
X147048718Y-83099852D01*
X147052823Y-83102511D01*
G37*
%TD.AperFunction*%
%TD*%
%TA.AperFunction,Conductor*%
%TO.N,/SPI1_SCK*%
G36*
X144212582Y-74122018D02*
G01*
X144213506Y-74123697D01*
X144399893Y-74539767D01*
X144400147Y-74548718D01*
X144397488Y-74552823D01*
X144302823Y-74647488D01*
X144294550Y-74650915D01*
X144289767Y-74649893D01*
X143873697Y-74463506D01*
X143867548Y-74456996D01*
X143867802Y-74448045D01*
X143868722Y-74446372D01*
X143997981Y-74251272D01*
X144001273Y-74247981D01*
X144196367Y-74118725D01*
X144205155Y-74117014D01*
X144212582Y-74122018D01*
G37*
%TD.AperFunction*%
%TD*%
%TA.AperFunction,Conductor*%
%TO.N,/SPI1_SCK*%
G36*
X144897315Y-76308427D02*
G01*
X144898504Y-76309818D01*
X145091569Y-76575282D01*
X145093664Y-76583989D01*
X145093297Y-76585579D01*
X144831190Y-77444337D01*
X144825498Y-77451250D01*
X144816585Y-77452112D01*
X144809672Y-77446420D01*
X144808810Y-77444337D01*
X144767569Y-77309217D01*
X144546702Y-76585577D01*
X144547564Y-76576666D01*
X144548422Y-76575294D01*
X144741496Y-76309818D01*
X144749133Y-76305143D01*
X144750958Y-76305000D01*
X144889042Y-76305000D01*
X144897315Y-76308427D01*
G37*
%TD.AperFunction*%
%TD*%
%TA.AperFunction,Conductor*%
%TO.N,/SPI1_NSS*%
G36*
X146497315Y-76308427D02*
G01*
X146498504Y-76309818D01*
X146691569Y-76575282D01*
X146693664Y-76583989D01*
X146693297Y-76585579D01*
X146431190Y-77444337D01*
X146425498Y-77451250D01*
X146416585Y-77452112D01*
X146409672Y-77446420D01*
X146408810Y-77444337D01*
X146367569Y-77309217D01*
X146146702Y-76585577D01*
X146147564Y-76576666D01*
X146148422Y-76575294D01*
X146341496Y-76309818D01*
X146349133Y-76305143D01*
X146350958Y-76305000D01*
X146489042Y-76305000D01*
X146497315Y-76308427D01*
G37*
%TD.AperFunction*%
%TD*%
%TA.AperFunction,Conductor*%
%TO.N,/SPI1_NSS*%
G36*
X146212582Y-74372018D02*
G01*
X146213506Y-74373697D01*
X146399893Y-74789767D01*
X146400147Y-74798718D01*
X146397488Y-74802823D01*
X146302823Y-74897488D01*
X146294550Y-74900915D01*
X146289767Y-74899893D01*
X145873697Y-74713506D01*
X145867548Y-74706996D01*
X145867802Y-74698045D01*
X145868722Y-74696372D01*
X145997981Y-74501272D01*
X146001273Y-74497981D01*
X146196367Y-74368725D01*
X146205155Y-74367014D01*
X146212582Y-74372018D01*
G37*
%TD.AperFunction*%
%TD*%
%TA.AperFunction,Conductor*%
%TO.N,/I2C1_SCL*%
G36*
X152178028Y-83797221D02*
G01*
X152496284Y-84250780D01*
X152498231Y-84259520D01*
X152496284Y-84264220D01*
X152178028Y-84717778D01*
X152170471Y-84722582D01*
X152162183Y-84720937D01*
X151725146Y-84443632D01*
X151723141Y-84442026D01*
X151656059Y-84374944D01*
X151656058Y-84374943D01*
X151656056Y-84374942D01*
X151557223Y-84334003D01*
X151550891Y-84327671D01*
X151550000Y-84323194D01*
X151550000Y-84188932D01*
X151553427Y-84180659D01*
X151555430Y-84179054D01*
X152162183Y-83794061D01*
X152171004Y-83792523D01*
X152178028Y-83797221D01*
G37*
%TD.AperFunction*%
%TD*%
%TA.AperFunction,Conductor*%
%TO.N,/I2C1_SCL*%
G36*
X119161582Y-83667585D02*
G01*
X120500248Y-84179624D01*
X120506750Y-84185779D01*
X120507767Y-84190551D01*
X120507767Y-84326180D01*
X120504340Y-84334453D01*
X120502483Y-84335964D01*
X119433034Y-85037226D01*
X119424236Y-85038897D01*
X119416897Y-85033953D01*
X119001705Y-84414039D01*
X118999948Y-84405261D01*
X119145940Y-83676218D01*
X119150924Y-83668779D01*
X119159709Y-83667044D01*
X119161582Y-83667585D01*
G37*
%TD.AperFunction*%
%TD*%
%TA.AperFunction,Conductor*%
%TO.N,/I2C1_SCL*%
G36*
X152030328Y-81813579D02*
G01*
X152031190Y-81815662D01*
X152293297Y-82674420D01*
X152292435Y-82683333D01*
X152291569Y-82684717D01*
X152098504Y-82950182D01*
X152090867Y-82954857D01*
X152089042Y-82955000D01*
X151950958Y-82955000D01*
X151942685Y-82951573D01*
X151941496Y-82950182D01*
X151748429Y-82684715D01*
X151746335Y-82676010D01*
X151746698Y-82674434D01*
X152008810Y-81815661D01*
X152014502Y-81808749D01*
X152023415Y-81807887D01*
X152030328Y-81813579D01*
G37*
%TD.AperFunction*%
%TD*%
%TA.AperFunction,Conductor*%
%TO.N,/I2C1_SCL*%
G36*
X152097645Y-83402330D02*
G01*
X152764741Y-83771736D01*
X152770318Y-83778741D01*
X152769308Y-83787639D01*
X152769229Y-83787780D01*
X152502442Y-84254229D01*
X152495360Y-84259709D01*
X152495239Y-84259741D01*
X152038482Y-84378865D01*
X152029611Y-84377637D01*
X152024208Y-84370497D01*
X152023868Y-84368494D01*
X151976536Y-83787780D01*
X151946031Y-83413515D01*
X151948774Y-83404992D01*
X151956742Y-83400905D01*
X151957692Y-83400866D01*
X152091978Y-83400866D01*
X152097645Y-83402330D01*
G37*
%TD.AperFunction*%
%TD*%
%TA.AperFunction,Conductor*%
%TO.N,/I2C1_SDA*%
G36*
X117205911Y-84265120D02*
G01*
X117210541Y-84271268D01*
X117578130Y-85417447D01*
X117577393Y-85426371D01*
X117575262Y-85429293D01*
X117479293Y-85525262D01*
X117471020Y-85528689D01*
X117467447Y-85528130D01*
X116321268Y-85160541D01*
X116314437Y-85154751D01*
X116313363Y-85147132D01*
X116457772Y-84416978D01*
X116462739Y-84409529D01*
X116466976Y-84407773D01*
X117197132Y-84263363D01*
X117205911Y-84265120D01*
G37*
%TD.AperFunction*%
%TD*%
%TA.AperFunction,Conductor*%
%TO.N,/I2C1_SDA*%
G36*
X153651218Y-83453200D02*
G01*
X153658682Y-83455920D01*
X154522794Y-83770824D01*
X154529394Y-83776877D01*
X154529781Y-83785823D01*
X154529605Y-83786275D01*
X154340145Y-84246003D01*
X154333825Y-84252346D01*
X154333445Y-84252497D01*
X153861152Y-84430059D01*
X153852202Y-84429762D01*
X153846083Y-84423224D01*
X153846010Y-84423025D01*
X153785409Y-84252497D01*
X153540621Y-83563675D01*
X153541080Y-83554734D01*
X153543370Y-83551489D01*
X153638940Y-83455919D01*
X153647212Y-83452493D01*
X153651218Y-83453200D01*
G37*
%TD.AperFunction*%
%TD*%
%TA.AperFunction,Conductor*%
%TO.N,/I2C1_SDA*%
G36*
X152832194Y-81823519D02*
G01*
X152833865Y-81826900D01*
X153093773Y-82675992D01*
X153093402Y-82683876D01*
X153031254Y-82834637D01*
X153028710Y-82838451D01*
X152932704Y-82934457D01*
X152924431Y-82937884D01*
X152916158Y-82934457D01*
X152916027Y-82934324D01*
X152673804Y-82684237D01*
X152670509Y-82675910D01*
X152670665Y-82674188D01*
X152811136Y-81828406D01*
X152815871Y-81820808D01*
X152824594Y-81818783D01*
X152832194Y-81823519D01*
G37*
%TD.AperFunction*%
%TD*%
%TA.AperFunction,Conductor*%
%TO.N,/I2C1_SDA*%
G36*
X153861077Y-84069912D02*
G01*
X154333446Y-84247503D01*
X154339983Y-84253621D01*
X154340145Y-84253996D01*
X154529605Y-84713724D01*
X154529589Y-84722679D01*
X154523246Y-84728999D01*
X154522794Y-84729175D01*
X153651218Y-85046799D01*
X153642272Y-85046412D01*
X153638939Y-85044079D01*
X153543373Y-84948513D01*
X153539946Y-84940240D01*
X153540619Y-84936328D01*
X153846010Y-84076972D01*
X153852010Y-84070326D01*
X153860953Y-84069867D01*
X153861077Y-84069912D01*
G37*
%TD.AperFunction*%
%TD*%
%TA.AperFunction,Conductor*%
%TO.N,/SPI2_NSS*%
G36*
X149432596Y-83207784D02*
G01*
X149527261Y-83302449D01*
X149530688Y-83310722D01*
X149529666Y-83315505D01*
X149343279Y-83731575D01*
X149336769Y-83737724D01*
X149327818Y-83737470D01*
X149326139Y-83736546D01*
X149131046Y-83607291D01*
X149127754Y-83603999D01*
X148998499Y-83408906D01*
X148996787Y-83400117D01*
X149001791Y-83392690D01*
X149003470Y-83391766D01*
X149184384Y-83310722D01*
X149419540Y-83205378D01*
X149428491Y-83205125D01*
X149432596Y-83207784D01*
G37*
%TD.AperFunction*%
%TD*%
%TA.AperFunction,Conductor*%
%TO.N,/SPI2_NSS*%
G36*
X149630331Y-81813579D02*
G01*
X149631193Y-81815662D01*
X149893300Y-82674420D01*
X149892438Y-82683333D01*
X149891572Y-82684717D01*
X149698507Y-82950182D01*
X149690870Y-82954857D01*
X149689045Y-82955000D01*
X149550961Y-82955000D01*
X149542688Y-82951573D01*
X149541499Y-82950182D01*
X149348432Y-82684715D01*
X149346338Y-82676010D01*
X149346701Y-82674434D01*
X149608813Y-81815661D01*
X149614505Y-81808749D01*
X149623418Y-81807887D01*
X149630331Y-81813579D01*
G37*
%TD.AperFunction*%
%TD*%
%TA.AperFunction,Conductor*%
%TO.N,/ADC1_IN11*%
G36*
X148030328Y-77513579D02*
G01*
X148031190Y-77515662D01*
X148293297Y-78374420D01*
X148292435Y-78383333D01*
X148291569Y-78384717D01*
X148098504Y-78650182D01*
X148090867Y-78654857D01*
X148089042Y-78655000D01*
X147950958Y-78655000D01*
X147942685Y-78651573D01*
X147941496Y-78650182D01*
X147748429Y-78384715D01*
X147746335Y-78376010D01*
X147746698Y-78374434D01*
X148008810Y-77515661D01*
X148014502Y-77508749D01*
X148023415Y-77507887D01*
X148030328Y-77513579D01*
G37*
%TD.AperFunction*%
%TD*%
%TA.AperFunction,Conductor*%
%TO.N,/ADC1_IN11*%
G36*
X148095213Y-78758231D02*
G01*
X148097872Y-78762336D01*
X148260281Y-79188337D01*
X148260027Y-79197288D01*
X148253517Y-79203437D01*
X148251677Y-79203971D01*
X148022328Y-79250527D01*
X148017672Y-79250527D01*
X147788322Y-79203971D01*
X147780896Y-79198967D01*
X147779184Y-79190177D01*
X147779718Y-79188337D01*
X147942128Y-78762336D01*
X147948277Y-78755826D01*
X147953060Y-78754804D01*
X148086940Y-78754804D01*
X148095213Y-78758231D01*
G37*
%TD.AperFunction*%
%TD*%
%TA.AperFunction,Conductor*%
%TO.N,/ADC1_IN10*%
G36*
X148830328Y-77513579D02*
G01*
X148831190Y-77515662D01*
X149093297Y-78374420D01*
X149092435Y-78383333D01*
X149091569Y-78384717D01*
X148898504Y-78650182D01*
X148890867Y-78654857D01*
X148889042Y-78655000D01*
X148750958Y-78655000D01*
X148742685Y-78651573D01*
X148741496Y-78650182D01*
X148548429Y-78384715D01*
X148546335Y-78376010D01*
X148546698Y-78374434D01*
X148808810Y-77515661D01*
X148814502Y-77508749D01*
X148823415Y-77507887D01*
X148830328Y-77513579D01*
G37*
%TD.AperFunction*%
%TD*%
%TA.AperFunction,Conductor*%
%TO.N,/ADC1_IN10*%
G36*
X148895213Y-78758231D02*
G01*
X148897872Y-78762336D01*
X149060281Y-79188337D01*
X149060027Y-79197288D01*
X149053517Y-79203437D01*
X149051677Y-79203971D01*
X148822328Y-79250527D01*
X148817672Y-79250527D01*
X148588322Y-79203971D01*
X148580896Y-79198967D01*
X148579184Y-79190177D01*
X148579718Y-79188337D01*
X148742128Y-78762336D01*
X148748277Y-78755826D01*
X148753060Y-78754804D01*
X148886940Y-78754804D01*
X148895213Y-78758231D01*
G37*
%TD.AperFunction*%
%TD*%
%TA.AperFunction,Conductor*%
%TO.N,/OPAMP1_VINP*%
G36*
X151230328Y-77513579D02*
G01*
X151231190Y-77515662D01*
X151493297Y-78374420D01*
X151492435Y-78383333D01*
X151491569Y-78384717D01*
X151298504Y-78650182D01*
X151290867Y-78654857D01*
X151289042Y-78655000D01*
X151150958Y-78655000D01*
X151142685Y-78651573D01*
X151141496Y-78650182D01*
X150948429Y-78384715D01*
X150946335Y-78376010D01*
X150946698Y-78374434D01*
X151208810Y-77515661D01*
X151214502Y-77508749D01*
X151223415Y-77507887D01*
X151230328Y-77513579D01*
G37*
%TD.AperFunction*%
%TD*%
%TA.AperFunction,Conductor*%
%TO.N,/OPAMP1_VINP*%
G36*
X151295213Y-78758231D02*
G01*
X151297872Y-78762336D01*
X151460281Y-79188337D01*
X151460027Y-79197288D01*
X151453517Y-79203437D01*
X151451677Y-79203971D01*
X151222328Y-79250527D01*
X151217672Y-79250527D01*
X150988322Y-79203971D01*
X150980896Y-79198967D01*
X150979184Y-79190177D01*
X150979718Y-79188337D01*
X151142128Y-78762336D01*
X151148277Y-78755826D01*
X151153060Y-78754804D01*
X151286940Y-78754804D01*
X151295213Y-78758231D01*
G37*
%TD.AperFunction*%
%TD*%
%TA.AperFunction,Conductor*%
%TO.N,/SPI2_MISO*%
G36*
X148830328Y-81813579D02*
G01*
X148831190Y-81815662D01*
X149093297Y-82674420D01*
X149092435Y-82683333D01*
X149091569Y-82684717D01*
X148898504Y-82950182D01*
X148890867Y-82954857D01*
X148889042Y-82955000D01*
X148750958Y-82955000D01*
X148742685Y-82951573D01*
X148741496Y-82950182D01*
X148548429Y-82684715D01*
X148546335Y-82676010D01*
X148546698Y-82674434D01*
X148808810Y-81815661D01*
X148814502Y-81808749D01*
X148823415Y-81807887D01*
X148830328Y-81813579D01*
G37*
%TD.AperFunction*%
%TD*%
%TA.AperFunction,Conductor*%
%TO.N,/SPI2_MISO*%
G36*
X148633960Y-83161036D02*
G01*
X148728625Y-83255701D01*
X148732052Y-83263974D01*
X148731030Y-83268757D01*
X148544643Y-83684827D01*
X148538133Y-83690976D01*
X148529182Y-83690722D01*
X148527503Y-83689798D01*
X148332410Y-83560543D01*
X148329118Y-83557251D01*
X148199863Y-83362158D01*
X148198151Y-83353369D01*
X148203155Y-83345942D01*
X148204834Y-83345018D01*
X148385748Y-83263974D01*
X148620904Y-83158630D01*
X148629855Y-83158377D01*
X148633960Y-83161036D01*
G37*
%TD.AperFunction*%
%TD*%
%TA.AperFunction,Conductor*%
%TO.N,/ADC1_IN9*%
G36*
X149630331Y-77513579D02*
G01*
X149631193Y-77515662D01*
X149893300Y-78374420D01*
X149892438Y-78383333D01*
X149891572Y-78384717D01*
X149698507Y-78650182D01*
X149690870Y-78654857D01*
X149689045Y-78655000D01*
X149550961Y-78655000D01*
X149542688Y-78651573D01*
X149541499Y-78650182D01*
X149348432Y-78384715D01*
X149346338Y-78376010D01*
X149346701Y-78374434D01*
X149608813Y-77515661D01*
X149614505Y-77508749D01*
X149623418Y-77507887D01*
X149630331Y-77513579D01*
G37*
%TD.AperFunction*%
%TD*%
%TA.AperFunction,Conductor*%
%TO.N,/ADC1_IN9*%
G36*
X149695216Y-78758231D02*
G01*
X149697875Y-78762336D01*
X149860284Y-79188337D01*
X149860030Y-79197288D01*
X149853520Y-79203437D01*
X149851680Y-79203971D01*
X149622331Y-79250527D01*
X149617675Y-79250527D01*
X149388325Y-79203971D01*
X149380899Y-79198967D01*
X149379187Y-79190177D01*
X149379721Y-79188337D01*
X149542131Y-78762336D01*
X149548280Y-78755826D01*
X149553063Y-78754804D01*
X149686943Y-78754804D01*
X149695216Y-78758231D01*
G37*
%TD.AperFunction*%
%TD*%
%TA.AperFunction,Conductor*%
%TO.N,/CAN_L*%
G36*
X117205911Y-81725120D02*
G01*
X117210541Y-81731268D01*
X117578130Y-82877447D01*
X117577393Y-82886371D01*
X117575262Y-82889293D01*
X117479293Y-82985262D01*
X117471020Y-82988689D01*
X117467447Y-82988130D01*
X116321268Y-82620541D01*
X116314437Y-82614751D01*
X116313363Y-82607132D01*
X116457772Y-81876978D01*
X116462739Y-81869529D01*
X116466976Y-81867773D01*
X117197132Y-81723363D01*
X117205911Y-81725120D01*
G37*
%TD.AperFunction*%
%TD*%
%TA.AperFunction,Conductor*%
%TO.N,/CAN_L*%
G36*
X146427108Y-81826619D02*
G01*
X146428347Y-81830377D01*
X146554541Y-82674133D01*
X146552376Y-82682822D01*
X146551205Y-82684175D01*
X146305943Y-82927197D01*
X146297654Y-82930586D01*
X146289435Y-82927159D01*
X146193643Y-82831367D01*
X146190747Y-82826580D01*
X146146077Y-82683452D01*
X146146058Y-82676543D01*
X146405589Y-81828681D01*
X146411287Y-81821776D01*
X146420201Y-81820920D01*
X146427108Y-81826619D01*
G37*
%TD.AperFunction*%
%TD*%
%TA.AperFunction,Conductor*%
%TO.N,/CAN_H*%
G36*
X145629385Y-81819179D02*
G01*
X145630460Y-81822067D01*
X145824815Y-82674376D01*
X145823313Y-82683204D01*
X145822417Y-82684442D01*
X145592841Y-82961527D01*
X145584924Y-82965711D01*
X145576367Y-82963071D01*
X145575559Y-82962335D01*
X145479248Y-82866024D01*
X145478029Y-82864592D01*
X145348394Y-82684710D01*
X145346338Y-82675996D01*
X145346695Y-82674460D01*
X145607866Y-81821240D01*
X145613564Y-81814336D01*
X145622478Y-81813480D01*
X145629385Y-81819179D01*
G37*
%TD.AperFunction*%
%TD*%
%TA.AperFunction,Conductor*%
%TO.N,/CAN_H*%
G36*
X119640347Y-81454160D02*
G01*
X120367686Y-82260809D01*
X120370681Y-82269248D01*
X120367270Y-82276917D01*
X120271496Y-82372691D01*
X120265695Y-82375854D01*
X119160277Y-82614846D01*
X119151467Y-82613245D01*
X119146369Y-82605882D01*
X119146331Y-82605701D01*
X119100292Y-82375127D01*
X119000827Y-81876975D01*
X119002568Y-81868192D01*
X119005811Y-81864949D01*
X119625171Y-81452257D01*
X119633955Y-81450523D01*
X119640347Y-81454160D01*
G37*
%TD.AperFunction*%
%TD*%
M02*
