%TF.GenerationSoftware,KiCad,Pcbnew,9.0.3*%
%TF.CreationDate,2025-08-23T16:53:47-05:00*%
%TF.ProjectId,PeripheralSOMBreakout,50657269-7068-4657-9261-6c534f4d4272,rev?*%
%TF.SameCoordinates,Original*%
%TF.FileFunction,Soldermask,Bot*%
%TF.FilePolarity,Negative*%
%FSLAX46Y46*%
G04 Gerber Fmt 4.6, Leading zero omitted, Abs format (unit mm)*
G04 Created by KiCad (PCBNEW 9.0.3) date 2025-08-23 16:53:47*
%MOMM*%
%LPD*%
G01*
G04 APERTURE LIST*
G04 Aperture macros list*
%AMRoundRect*
0 Rectangle with rounded corners*
0 $1 Rounding radius*
0 $2 $3 $4 $5 $6 $7 $8 $9 X,Y pos of 4 corners*
0 Add a 4 corners polygon primitive as box body*
4,1,4,$2,$3,$4,$5,$6,$7,$8,$9,$2,$3,0*
0 Add four circle primitives for the rounded corners*
1,1,$1+$1,$2,$3*
1,1,$1+$1,$4,$5*
1,1,$1+$1,$6,$7*
1,1,$1+$1,$8,$9*
0 Add four rect primitives between the rounded corners*
20,1,$1+$1,$2,$3,$4,$5,0*
20,1,$1+$1,$4,$5,$6,$7,0*
20,1,$1+$1,$6,$7,$8,$9,0*
20,1,$1+$1,$8,$9,$2,$3,0*%
G04 Aperture macros list end*
%ADD10C,4.320000*%
%ADD11RoundRect,0.102000X-0.787500X-0.787500X0.787500X-0.787500X0.787500X0.787500X-0.787500X0.787500X0*%
%ADD12C,1.779000*%
%ADD13C,8.115000*%
%ADD14R,1.700000X1.700000*%
%ADD15C,1.524000*%
%ADD16C,1.700000*%
%ADD17C,3.600000*%
%ADD18C,6.400000*%
G04 APERTURE END LIST*
D10*
%TO.C,J7*%
X113200750Y-134772500D03*
X138190750Y-134772500D03*
D11*
X131235750Y-133352500D03*
D12*
X128465750Y-133352500D03*
X125695750Y-133352500D03*
X122925750Y-133352500D03*
X120155750Y-133352500D03*
X129850750Y-136192500D03*
X127080750Y-136192500D03*
X124310750Y-136192500D03*
X121540750Y-136192500D03*
%TD*%
D13*
%TO.C,J3*%
X162250000Y-70000000D03*
%TD*%
D14*
%TO.C,TP3*%
X151250000Y-62500000D03*
%TD*%
D15*
%TO.C,J5*%
X116460000Y-115250000D03*
X119000000Y-115250000D03*
X116460000Y-112710000D03*
X119000000Y-112710000D03*
X116460000Y-110170000D03*
X119000000Y-110170000D03*
X116460000Y-107630000D03*
X119000000Y-107630000D03*
X116460000Y-105090000D03*
X119000000Y-105090000D03*
%TD*%
D13*
%TO.C,J2*%
X135250000Y-70000000D03*
%TD*%
D14*
%TO.C,J6*%
X143920000Y-134750000D03*
D16*
X146460000Y-134750000D03*
X149000000Y-134750000D03*
X151540000Y-134750000D03*
X154080000Y-134750000D03*
%TD*%
D14*
%TO.C,TP1*%
X146250000Y-62500000D03*
%TD*%
D15*
%TO.C,J4*%
X116460000Y-84410000D03*
X119000000Y-84410000D03*
X116460000Y-81870000D03*
X119000000Y-81870000D03*
X116460000Y-79330000D03*
X119000000Y-79330000D03*
X116460000Y-76790000D03*
X119000000Y-76790000D03*
X116460000Y-74250000D03*
X119000000Y-74250000D03*
%TD*%
D14*
%TO.C,TP4*%
X151250000Y-68750000D03*
%TD*%
%TO.C,TP2*%
X146250000Y-68750000D03*
%TD*%
D17*
%TO.C,J1*%
X133450000Y-79630000D03*
D18*
X133450000Y-79630000D03*
D17*
X164200000Y-79630000D03*
D18*
X164200000Y-79630000D03*
D17*
X164200000Y-126100000D03*
D18*
X164200000Y-126100000D03*
D17*
X133460000Y-126100000D03*
D18*
X133460000Y-126100000D03*
%TD*%
M02*
