%TF.GenerationSoftware,KiCad,Pcbnew,9.0.3*%
%TF.CreationDate,2025-08-23T16:53:47-05:00*%
%TF.ProjectId,PeripheralSOMBreakout,50657269-7068-4657-9261-6c534f4d4272,rev?*%
%TF.SameCoordinates,Original*%
%TF.FileFunction,Copper,L2,Bot*%
%TF.FilePolarity,Positive*%
%FSLAX46Y46*%
G04 Gerber Fmt 4.6, Leading zero omitted, Abs format (unit mm)*
G04 Created by KiCad (PCBNEW 9.0.3) date 2025-08-23 16:53:47*
%MOMM*%
%LPD*%
G01*
G04 APERTURE LIST*
%TA.AperFunction,ComponentPad*%
%ADD10C,4.116000*%
%TD*%
%TA.AperFunction,ComponentPad*%
%ADD11R,1.575000X1.575000*%
%TD*%
%TA.AperFunction,ComponentPad*%
%ADD12C,1.575000*%
%TD*%
%TA.AperFunction,ComponentPad*%
%ADD13C,8.115000*%
%TD*%
%TA.AperFunction,ComponentPad*%
%ADD14R,1.700000X1.700000*%
%TD*%
%TA.AperFunction,ComponentPad*%
%ADD15C,1.524000*%
%TD*%
%TA.AperFunction,ComponentPad*%
%ADD16C,1.700000*%
%TD*%
%TA.AperFunction,ComponentPad*%
%ADD17C,3.600000*%
%TD*%
%TA.AperFunction,ConnectorPad*%
%ADD18C,6.400000*%
%TD*%
%TA.AperFunction,ViaPad*%
%ADD19C,0.600000*%
%TD*%
%TA.AperFunction,ViaPad*%
%ADD20C,0.500000*%
%TD*%
%TA.AperFunction,Conductor*%
%ADD21C,0.250000*%
%TD*%
%TA.AperFunction,Conductor*%
%ADD22C,0.150000*%
%TD*%
G04 APERTURE END LIST*
D10*
%TO.P,J7,0,PAD*%
%TO.N,unconnected-(J7-PAD-Pad0)*%
X113200750Y-134772500D03*
%TO.N,unconnected-(J7-PAD-Pad0)_1*%
X138190750Y-134772500D03*
D11*
%TO.P,J7,1,1*%
%TO.N,unconnected-(J7-Pad1)*%
X131235750Y-133352500D03*
D12*
%TO.P,J7,2,2*%
%TO.N,/CAN_L*%
X128465750Y-133352500D03*
%TO.P,J7,3,3*%
%TO.N,unconnected-(J7-Pad3)*%
X125695750Y-133352500D03*
%TO.P,J7,4,4*%
%TO.N,unconnected-(J7-Pad4)*%
X122925750Y-133352500D03*
%TO.P,J7,5,5*%
%TO.N,unconnected-(J7-Pad5)*%
X120155750Y-133352500D03*
%TO.P,J7,6,6*%
%TO.N,unconnected-(J7-Pad6)*%
X129850750Y-136192500D03*
%TO.P,J7,7,7*%
%TO.N,/CAN_H*%
X127080750Y-136192500D03*
%TO.P,J7,8,8*%
%TO.N,unconnected-(J7-Pad8)*%
X124310750Y-136192500D03*
%TO.P,J7,9,9*%
%TO.N,unconnected-(J7-Pad9)*%
X121540750Y-136192500D03*
%TD*%
D13*
%TO.P,J3,1,Pin_1*%
%TO.N,GND*%
X162250000Y-70000000D03*
%TD*%
D14*
%TO.P,TP3,1,1*%
%TO.N,GND*%
X151250000Y-62500000D03*
%TD*%
D15*
%TO.P,J5,1,CH0*%
%TO.N,/SPI2_MISO*%
X116460000Y-115250000D03*
%TO.P,J5,2,CH1*%
%TO.N,/SPI2_NSS*%
X119000000Y-115250000D03*
%TO.P,J5,3,CH2*%
%TO.N,/SPI2_SCK*%
X116460000Y-112710000D03*
%TO.P,J5,4,CH3*%
%TO.N,/SPI2_MOSI*%
X119000000Y-112710000D03*
%TO.P,J5,5,CH4*%
%TO.N,unconnected-(J5-CH4-Pad5)*%
X116460000Y-110170000D03*
%TO.P,J5,6,CH5*%
%TO.N,unconnected-(J5-CH5-Pad6)*%
X119000000Y-110170000D03*
%TO.P,J5,7,CH6*%
%TO.N,unconnected-(J5-CH6-Pad7)*%
X116460000Y-107630000D03*
%TO.P,J5,8,CH7*%
%TO.N,unconnected-(J5-CH7-Pad8)*%
X119000000Y-107630000D03*
%TO.P,J5,9,GND*%
%TO.N,GND*%
X116460000Y-105090000D03*
%TO.P,J5,10,GND*%
X119000000Y-105090000D03*
%TD*%
D13*
%TO.P,J2,1,Pin_1*%
%TO.N,+24V*%
X135250000Y-70000000D03*
%TD*%
D14*
%TO.P,J6,1,Pin_1*%
%TO.N,/ADC1_IN11*%
X143920000Y-134750000D03*
D16*
%TO.P,J6,2,Pin_2*%
%TO.N,/ADC1_IN10*%
X146460000Y-134750000D03*
%TO.P,J6,3,Pin_3*%
%TO.N,/ADC1_IN9*%
X149000000Y-134750000D03*
%TO.P,J6,4,Pin_4*%
%TO.N,/ADC1_IN7*%
X151540000Y-134750000D03*
%TO.P,J6,5,Pin_5*%
%TO.N,/OPAMP1_VINP*%
X154080000Y-134750000D03*
%TD*%
D14*
%TO.P,TP1,1,1*%
%TO.N,+3.3V*%
X146250000Y-62500000D03*
%TD*%
D15*
%TO.P,J4,1,CH0*%
%TO.N,/I2C1_SDA*%
X116460000Y-84410000D03*
%TO.P,J4,2,CH1*%
%TO.N,/I2C1_SCL*%
X119000000Y-84410000D03*
%TO.P,J4,3,CH2*%
%TO.N,/CAN_L*%
X116460000Y-81870000D03*
%TO.P,J4,4,CH3*%
%TO.N,/CAN_H*%
X119000000Y-81870000D03*
%TO.P,J4,5,CH4*%
%TO.N,/SPI1_MISO*%
X116460000Y-79330000D03*
%TO.P,J4,6,CH5*%
%TO.N,/SPI1_MOSI*%
X119000000Y-79330000D03*
%TO.P,J4,7,CH6*%
%TO.N,/SPI1_SCK*%
X116460000Y-76790000D03*
%TO.P,J4,8,CH7*%
%TO.N,/SPI1_NSS*%
X119000000Y-76790000D03*
%TO.P,J4,9,GND*%
%TO.N,GND*%
X116460000Y-74250000D03*
%TO.P,J4,10,GND*%
X119000000Y-74250000D03*
%TD*%
D14*
%TO.P,TP4,1,1*%
%TO.N,GNDA*%
X151250000Y-68750000D03*
%TD*%
%TO.P,TP2,1,1*%
%TO.N,VDDA*%
X146250000Y-68750000D03*
%TD*%
D17*
%TO.P,J1,25,MNT*%
%TO.N,unconnected-(J1-MNT-Pad25)_1*%
X133450000Y-79630000D03*
D18*
%TO.N,unconnected-(J1-MNT-Pad25)*%
X133450000Y-79630000D03*
D17*
%TO.P,J1,26,MNT*%
%TO.N,unconnected-(J1-MNT-Pad26)_2*%
X164200000Y-79630000D03*
D18*
%TO.N,unconnected-(J1-MNT-Pad26)_1*%
X164200000Y-79630000D03*
D17*
%TO.P,J1,27,MNT*%
%TO.N,unconnected-(J1-MNT-Pad27)*%
X164200000Y-126100000D03*
D18*
%TO.N,unconnected-(J1-MNT-Pad27)_2*%
X164200000Y-126100000D03*
D17*
%TO.P,J1,28,MNT*%
%TO.N,unconnected-(J1-MNT-Pad28)_1*%
X133460000Y-126100000D03*
D18*
%TO.N,unconnected-(J1-MNT-Pad28)*%
X133460000Y-126100000D03*
%TD*%
D19*
%TO.N,GND*%
X137500000Y-96000000D03*
X143500000Y-90000000D03*
X148750000Y-75250000D03*
X152000000Y-99000000D03*
X131500000Y-102000000D03*
X152000000Y-101250000D03*
X152000000Y-114500000D03*
X153750000Y-75500000D03*
X122500000Y-85250000D03*
X130500000Y-85250000D03*
X148750000Y-73500000D03*
X124000000Y-109500000D03*
X125250000Y-82750000D03*
X136000000Y-97500000D03*
X129500000Y-100500000D03*
X152000000Y-127250000D03*
X149000000Y-124750000D03*
X130000000Y-103500000D03*
X152000000Y-122000000D03*
X149000000Y-99000000D03*
X127750000Y-82750000D03*
X148000000Y-85500000D03*
X152000000Y-130000000D03*
X126500000Y-103500000D03*
X149000000Y-122000000D03*
X123500000Y-106500000D03*
X128500000Y-105000000D03*
X149000000Y-96250000D03*
X149000000Y-114500000D03*
X126000000Y-76500000D03*
X130500000Y-82750000D03*
X128750000Y-74000000D03*
X144500000Y-85500000D03*
X127750000Y-85250000D03*
X122500000Y-82750000D03*
X127000000Y-106500000D03*
X152000000Y-109250000D03*
X139000000Y-94500000D03*
X152000000Y-88500000D03*
X154500000Y-79250000D03*
X152000000Y-91000000D03*
X141500000Y-71750000D03*
X149000000Y-88500000D03*
X152000000Y-106500000D03*
X149000000Y-85750000D03*
X140500000Y-93000000D03*
X152000000Y-104000000D03*
X142000000Y-91500000D03*
X134500000Y-99000000D03*
X149000000Y-111750000D03*
X141500000Y-70000000D03*
X149000000Y-106500000D03*
X123500000Y-74000000D03*
X149000000Y-104000000D03*
X125000000Y-105000000D03*
X152000000Y-124750000D03*
X125250000Y-85250000D03*
X125500000Y-108000000D03*
X128000000Y-102000000D03*
X152250000Y-79750000D03*
X137000000Y-93000000D03*
X152000000Y-96250000D03*
X141500000Y-73500000D03*
X149000000Y-101250000D03*
X122500000Y-111000000D03*
X152000000Y-119750000D03*
X141500000Y-88500000D03*
X123500000Y-76500000D03*
X143000000Y-87000000D03*
X146500000Y-87000000D03*
X149000000Y-127250000D03*
X133000000Y-100500000D03*
X149000000Y-91000000D03*
X140000000Y-90000000D03*
X126000000Y-74000000D03*
X152000000Y-93750000D03*
X135500000Y-94500000D03*
X128750000Y-76500000D03*
X131000000Y-99000000D03*
X134000000Y-96000000D03*
X132500000Y-97500000D03*
X152000000Y-117000000D03*
X149000000Y-119750000D03*
X149000000Y-130000000D03*
X149000000Y-117000000D03*
X138500000Y-91500000D03*
X152000000Y-75500000D03*
X145000000Y-88500000D03*
X149000000Y-109250000D03*
X152000000Y-111750000D03*
X149000000Y-93750000D03*
%TO.N,+3.3V*%
X154920000Y-83080000D03*
D20*
%TO.N,/SPI1_MISO*%
X145343068Y-75025000D03*
%TO.N,/SPI1_MOSI*%
X147000000Y-76000000D03*
%TO.N,/ADC1_IN7*%
X150420000Y-79250000D03*
%TO.N,/SPI2_MOSI*%
X147531588Y-83531585D03*
%TO.N,/SPI2_SCK*%
X146750000Y-83500000D03*
%TO.N,/SPI1_SCK*%
X144000000Y-74250000D03*
%TO.N,/SPI1_NSS*%
X146000000Y-74500000D03*
%TO.N,/SPI2_NSS*%
X149129773Y-83605273D03*
%TO.N,/ADC1_IN11*%
X148020000Y-79250000D03*
%TO.N,/ADC1_IN10*%
X148820000Y-79250000D03*
%TO.N,/OPAMP1_VINP*%
X151220000Y-79250000D03*
%TO.N,/SPI2_MISO*%
X148331137Y-83558525D03*
%TO.N,/ADC1_IN9*%
X149620003Y-79250000D03*
%TD*%
D21*
%TO.N,+3.3V*%
X154920000Y-81105412D02*
X154920000Y-83080000D01*
X146250000Y-62500000D02*
X149750000Y-66000000D01*
X149750000Y-66000000D02*
X149750000Y-75935412D01*
X149750000Y-75935412D02*
X154920000Y-81105412D01*
D22*
%TO.N,/SPI1_MISO*%
X144538265Y-75452000D02*
X122051977Y-75452000D01*
X119503977Y-78000000D02*
X117790000Y-78000000D01*
X145343068Y-75025000D02*
X144965265Y-75025000D01*
X117790000Y-78000000D02*
X116460000Y-79330000D01*
X144965265Y-75025000D02*
X144538265Y-75452000D01*
X122051977Y-75452000D02*
X119503977Y-78000000D01*
%TO.N,/SPI1_MOSI*%
X122197365Y-75803000D02*
X146803000Y-75803000D01*
X146803000Y-75803000D02*
X147000000Y-76000000D01*
X119000000Y-79000366D02*
X122197365Y-75803000D01*
X119000000Y-79330000D02*
X119000000Y-79000366D01*
%TO.N,/ADC1_IN7*%
X150420000Y-79480480D02*
X150750000Y-79810480D01*
X150750000Y-133960000D02*
X151540000Y-134750000D01*
X150420000Y-79250000D02*
X150420000Y-79480480D01*
X150750000Y-79810480D02*
X150750000Y-133960000D01*
%TO.N,/SPI2_MOSI*%
X147531588Y-83531585D02*
X147468415Y-83531585D01*
X147468415Y-83531585D02*
X147500000Y-83563170D01*
X120250000Y-111246389D02*
X119000000Y-112496388D01*
X119000000Y-112496388D02*
X119000000Y-112710000D01*
X147500000Y-83996389D02*
X120250000Y-111246389D01*
X147500000Y-83563170D02*
X147500000Y-83996389D01*
%TO.N,/SPI2_SCK*%
X146750000Y-83500000D02*
X146750000Y-84250000D01*
X146750000Y-84250000D02*
X119500000Y-111500000D01*
X117670000Y-111500000D02*
X116460000Y-112710000D01*
X119500000Y-111500000D02*
X117670000Y-111500000D01*
%TO.N,/SPI1_SCK*%
X142750000Y-74750000D02*
X121761200Y-74750000D01*
X143250000Y-74250000D02*
X142750000Y-74750000D01*
X121011200Y-75500000D02*
X117750000Y-75500000D01*
X144000000Y-74250000D02*
X143250000Y-74250000D01*
X117750000Y-75500000D02*
X116460000Y-76790000D01*
X121761200Y-74750000D02*
X121011200Y-75500000D01*
%TO.N,/SPI1_NSS*%
X145560945Y-74499000D02*
X145561945Y-74500000D01*
X120217589Y-76790000D02*
X121906589Y-75101000D01*
X144392877Y-75101000D02*
X144993877Y-74500000D01*
X145124191Y-74500000D02*
X145125191Y-74499000D01*
X145125191Y-74499000D02*
X145560945Y-74499000D01*
X145561945Y-74500000D02*
X146000000Y-74500000D01*
X144993877Y-74500000D02*
X145124191Y-74500000D01*
X146000000Y-74500000D02*
X146000000Y-74674000D01*
X119000000Y-76790000D02*
X120217589Y-76790000D01*
X121906589Y-75101000D02*
X144392877Y-75101000D01*
%TO.N,/SPI2_NSS*%
X120630417Y-111869583D02*
X120619582Y-111869583D01*
X120619582Y-111869583D02*
X120601000Y-111888165D01*
X148600521Y-84134525D02*
X148365475Y-84134525D01*
X120601000Y-113649000D02*
X119000000Y-115250000D01*
X148365475Y-84134525D02*
X120630417Y-111869583D01*
X149129773Y-83605273D02*
X148600521Y-84134525D01*
X120601000Y-111888165D02*
X120601000Y-113649000D01*
%TO.N,/ADC1_IN11*%
X148230588Y-79732003D02*
X148568000Y-80069415D01*
X148568000Y-80069415D02*
X148569415Y-80069415D01*
X148230588Y-79730588D02*
X148230588Y-79732003D01*
X149655773Y-81155773D02*
X149655773Y-132844227D01*
X144500000Y-134750000D02*
X143920000Y-134750000D01*
X149655773Y-132844227D02*
X149351000Y-133149000D01*
X148020000Y-79520000D02*
X148230588Y-79730588D01*
X146101000Y-133149000D02*
X144500000Y-134750000D01*
X148020000Y-79250000D02*
X148020000Y-79520000D01*
X149351000Y-133149000D02*
X146101000Y-133149000D01*
X148569415Y-80069415D02*
X149655773Y-81155773D01*
%TO.N,/ADC1_IN10*%
X150006773Y-80693600D02*
X150006773Y-132993227D01*
X147000000Y-134750000D02*
X146460000Y-134750000D01*
X148250000Y-133500000D02*
X147000000Y-134750000D01*
X149500000Y-133500000D02*
X148250000Y-133500000D01*
X148820000Y-79506827D02*
X150006773Y-80693600D01*
X150006773Y-132993227D02*
X149500000Y-133500000D01*
X148820000Y-79250000D02*
X148820000Y-79506827D01*
%TO.N,/OPAMP1_VINP*%
X151234459Y-79264459D02*
X151234459Y-132984459D01*
X152125000Y-133375000D02*
X153500000Y-134750000D01*
X151234459Y-132984459D02*
X151625000Y-133375000D01*
X153500000Y-134750000D02*
X154080000Y-134750000D01*
X151625000Y-133375000D02*
X152125000Y-133375000D01*
X151220000Y-79250000D02*
X151234459Y-79264459D01*
%TO.N,/SPI2_MISO*%
X148331137Y-83558525D02*
X148331137Y-83668863D01*
X148331137Y-83668863D02*
X146750000Y-85250000D01*
X146742777Y-85250000D02*
X120250000Y-111742777D01*
X119741534Y-114008466D02*
X117701534Y-114008466D01*
X117701534Y-114008466D02*
X116460000Y-115250000D01*
X120250000Y-111742777D02*
X120250000Y-113500000D01*
X146750000Y-85250000D02*
X146742777Y-85250000D01*
X120250000Y-113500000D02*
X119741534Y-114008466D01*
%TO.N,/ADC1_IN9*%
X149620003Y-79493656D02*
X150357773Y-80231426D01*
X150357773Y-133392227D02*
X149000000Y-134750000D01*
X149620003Y-79250000D02*
X149620003Y-79493656D01*
X150357773Y-80231426D02*
X150357773Y-133392227D01*
%TD*%
%TA.AperFunction,Conductor*%
%TO.N,GND*%
G36*
X167003243Y-59800669D02*
G01*
X167327952Y-59817687D01*
X167340860Y-59819044D01*
X167658794Y-59869400D01*
X167671478Y-59872095D01*
X167982429Y-59955414D01*
X167994770Y-59959425D01*
X168295282Y-60074780D01*
X168307138Y-60080058D01*
X168593976Y-60226210D01*
X168605192Y-60232686D01*
X168875165Y-60408008D01*
X168885666Y-60415637D01*
X169135836Y-60618221D01*
X169145481Y-60626906D01*
X169373093Y-60854518D01*
X169381778Y-60864163D01*
X169584362Y-61114333D01*
X169591991Y-61124834D01*
X169767310Y-61394802D01*
X169773792Y-61406029D01*
X169843389Y-61542620D01*
X169919940Y-61692859D01*
X169925219Y-61704717D01*
X170040574Y-62005229D01*
X170044585Y-62017572D01*
X170127902Y-62328515D01*
X170130600Y-62341211D01*
X170180955Y-62659139D01*
X170182312Y-62672047D01*
X170199330Y-62996756D01*
X170199500Y-63003246D01*
X170199500Y-137121876D01*
X170199330Y-137128367D01*
X170182309Y-137453075D01*
X170180952Y-137465982D01*
X170130597Y-137783906D01*
X170127898Y-137796603D01*
X170044578Y-138107545D01*
X170040568Y-138119888D01*
X169925209Y-138420405D01*
X169919930Y-138432262D01*
X169773793Y-138719069D01*
X169767303Y-138730310D01*
X169591979Y-139000281D01*
X169584350Y-139010781D01*
X169381774Y-139260940D01*
X169373089Y-139270586D01*
X169145463Y-139498210D01*
X169135817Y-139506894D01*
X168885663Y-139709463D01*
X168875163Y-139717092D01*
X168605197Y-139892409D01*
X168593957Y-139898899D01*
X168307137Y-140045041D01*
X168295279Y-140050320D01*
X167994760Y-140165678D01*
X167982416Y-140169689D01*
X167671483Y-140253003D01*
X167658787Y-140255701D01*
X167340857Y-140306055D01*
X167327950Y-140307412D01*
X167002746Y-140324456D01*
X166996256Y-140324626D01*
X112253246Y-140324626D01*
X112246756Y-140324456D01*
X111922046Y-140307438D01*
X111909138Y-140306081D01*
X111591205Y-140255726D01*
X111578510Y-140253028D01*
X111267572Y-140169713D01*
X111255227Y-140165702D01*
X111255164Y-140165678D01*
X110954711Y-140050345D01*
X110942854Y-140045066D01*
X110656029Y-139898922D01*
X110644789Y-139892432D01*
X110374826Y-139717117D01*
X110364326Y-139709488D01*
X110114153Y-139506904D01*
X110104507Y-139498219D01*
X109876894Y-139270607D01*
X109868209Y-139260962D01*
X109665627Y-139010797D01*
X109657998Y-139000297D01*
X109496751Y-138752001D01*
X109482673Y-138730322D01*
X109476186Y-138719086D01*
X109330039Y-138432258D01*
X109324769Y-138420422D01*
X109209403Y-138119888D01*
X109205394Y-138107549D01*
X109189890Y-138049689D01*
X109122073Y-137796599D01*
X109119380Y-137783928D01*
X109069018Y-137465967D01*
X109067664Y-137453093D01*
X109050672Y-137128920D01*
X109050503Y-137122505D01*
X109050503Y-134621199D01*
X110892250Y-134621199D01*
X110892250Y-134923800D01*
X110892251Y-134923816D01*
X110931748Y-135223828D01*
X111010073Y-135516139D01*
X111125874Y-135795707D01*
X111125878Y-135795717D01*
X111277183Y-136057785D01*
X111461402Y-136297864D01*
X111461408Y-136297871D01*
X111675378Y-136511841D01*
X111675385Y-136511847D01*
X111915464Y-136696066D01*
X112177532Y-136847371D01*
X112177533Y-136847371D01*
X112177536Y-136847373D01*
X112457115Y-136963178D01*
X112749418Y-137041501D01*
X113049443Y-137081000D01*
X113049450Y-137081000D01*
X113352050Y-137081000D01*
X113352057Y-137081000D01*
X113652082Y-137041501D01*
X113944385Y-136963178D01*
X114223964Y-136847373D01*
X114486036Y-136696066D01*
X114726116Y-136511846D01*
X114940096Y-136297866D01*
X115099397Y-136090261D01*
X120502750Y-136090261D01*
X120502750Y-136294738D01*
X120542638Y-136495265D01*
X120542640Y-136495273D01*
X120620885Y-136684174D01*
X120620890Y-136684183D01*
X120734482Y-136854185D01*
X120734485Y-136854189D01*
X120879060Y-136998764D01*
X120879064Y-136998767D01*
X121049066Y-137112359D01*
X121049072Y-137112362D01*
X121049073Y-137112363D01*
X121237977Y-137190610D01*
X121438511Y-137230499D01*
X121438514Y-137230500D01*
X121438516Y-137230500D01*
X121642986Y-137230500D01*
X121642987Y-137230499D01*
X121843523Y-137190610D01*
X122032427Y-137112363D01*
X122202436Y-136998767D01*
X122347017Y-136854186D01*
X122460613Y-136684177D01*
X122538860Y-136495273D01*
X122578750Y-136294734D01*
X122578750Y-136090266D01*
X122578750Y-136090263D01*
X122578749Y-136090261D01*
X123272750Y-136090261D01*
X123272750Y-136294738D01*
X123312638Y-136495265D01*
X123312640Y-136495273D01*
X123390885Y-136684174D01*
X123390890Y-136684183D01*
X123504482Y-136854185D01*
X123504485Y-136854189D01*
X123649060Y-136998764D01*
X123649064Y-136998767D01*
X123819066Y-137112359D01*
X123819072Y-137112362D01*
X123819073Y-137112363D01*
X124007977Y-137190610D01*
X124208511Y-137230499D01*
X124208514Y-137230500D01*
X124208516Y-137230500D01*
X124412986Y-137230500D01*
X124412987Y-137230499D01*
X124613523Y-137190610D01*
X124802427Y-137112363D01*
X124972436Y-136998767D01*
X125117017Y-136854186D01*
X125230613Y-136684177D01*
X125308860Y-136495273D01*
X125348750Y-136294734D01*
X125348750Y-136090266D01*
X125348750Y-136090263D01*
X125348749Y-136090261D01*
X126042750Y-136090261D01*
X126042750Y-136294738D01*
X126082638Y-136495265D01*
X126082640Y-136495273D01*
X126160885Y-136684174D01*
X126160890Y-136684183D01*
X126274482Y-136854185D01*
X126274485Y-136854189D01*
X126419060Y-136998764D01*
X126419064Y-136998767D01*
X126589066Y-137112359D01*
X126589072Y-137112362D01*
X126589073Y-137112363D01*
X126777977Y-137190610D01*
X126978511Y-137230499D01*
X126978514Y-137230500D01*
X126978516Y-137230500D01*
X127182986Y-137230500D01*
X127182987Y-137230499D01*
X127383523Y-137190610D01*
X127572427Y-137112363D01*
X127742436Y-136998767D01*
X127887017Y-136854186D01*
X128000613Y-136684177D01*
X128078860Y-136495273D01*
X128118750Y-136294734D01*
X128118750Y-136090266D01*
X128118750Y-136090263D01*
X128118749Y-136090261D01*
X128812750Y-136090261D01*
X128812750Y-136294738D01*
X128852638Y-136495265D01*
X128852640Y-136495273D01*
X128930885Y-136684174D01*
X128930890Y-136684183D01*
X129044482Y-136854185D01*
X129044485Y-136854189D01*
X129189060Y-136998764D01*
X129189064Y-136998767D01*
X129359066Y-137112359D01*
X129359072Y-137112362D01*
X129359073Y-137112363D01*
X129547977Y-137190610D01*
X129748511Y-137230499D01*
X129748514Y-137230500D01*
X129748516Y-137230500D01*
X129952986Y-137230500D01*
X129952987Y-137230499D01*
X130153523Y-137190610D01*
X130342427Y-137112363D01*
X130512436Y-136998767D01*
X130657017Y-136854186D01*
X130770613Y-136684177D01*
X130848860Y-136495273D01*
X130888750Y-136294734D01*
X130888750Y-136090266D01*
X130888750Y-136090263D01*
X130888749Y-136090261D01*
X130882289Y-136057785D01*
X130848860Y-135889727D01*
X130770613Y-135700823D01*
X130770612Y-135700822D01*
X130770609Y-135700816D01*
X130657017Y-135530814D01*
X130657014Y-135530810D01*
X130512439Y-135386235D01*
X130512435Y-135386232D01*
X130342433Y-135272640D01*
X130342424Y-135272635D01*
X130153523Y-135194390D01*
X130153515Y-135194388D01*
X129952987Y-135154500D01*
X129952984Y-135154500D01*
X129748516Y-135154500D01*
X129748513Y-135154500D01*
X129547984Y-135194388D01*
X129547976Y-135194390D01*
X129359075Y-135272635D01*
X129359066Y-135272640D01*
X129189064Y-135386232D01*
X129189060Y-135386235D01*
X129044485Y-135530810D01*
X129044482Y-135530814D01*
X128930890Y-135700816D01*
X128930885Y-135700825D01*
X128852640Y-135889726D01*
X128852638Y-135889734D01*
X128812750Y-136090261D01*
X128118749Y-136090261D01*
X128112289Y-136057785D01*
X128078860Y-135889727D01*
X128000613Y-135700823D01*
X128000612Y-135700822D01*
X128000609Y-135700816D01*
X127887017Y-135530814D01*
X127887014Y-135530810D01*
X127742439Y-135386235D01*
X127742435Y-135386232D01*
X127572433Y-135272640D01*
X127572424Y-135272635D01*
X127383523Y-135194390D01*
X127383515Y-135194388D01*
X127182987Y-135154500D01*
X127182984Y-135154500D01*
X126978516Y-135154500D01*
X126978513Y-135154500D01*
X126777984Y-135194388D01*
X126777976Y-135194390D01*
X126589075Y-135272635D01*
X126589066Y-135272640D01*
X126419064Y-135386232D01*
X126419060Y-135386235D01*
X126274485Y-135530810D01*
X126274482Y-135530814D01*
X126160890Y-135700816D01*
X126160885Y-135700825D01*
X126082640Y-135889726D01*
X126082638Y-135889734D01*
X126042750Y-136090261D01*
X125348749Y-136090261D01*
X125342289Y-136057785D01*
X125308860Y-135889727D01*
X125230613Y-135700823D01*
X125230612Y-135700822D01*
X125230609Y-135700816D01*
X125117017Y-135530814D01*
X125117014Y-135530810D01*
X124972439Y-135386235D01*
X124972435Y-135386232D01*
X124802433Y-135272640D01*
X124802424Y-135272635D01*
X124613523Y-135194390D01*
X124613515Y-135194388D01*
X124412987Y-135154500D01*
X124412984Y-135154500D01*
X124208516Y-135154500D01*
X124208513Y-135154500D01*
X124007984Y-135194388D01*
X124007976Y-135194390D01*
X123819075Y-135272635D01*
X123819066Y-135272640D01*
X123649064Y-135386232D01*
X123649060Y-135386235D01*
X123504485Y-135530810D01*
X123504482Y-135530814D01*
X123390890Y-135700816D01*
X123390885Y-135700825D01*
X123312640Y-135889726D01*
X123312638Y-135889734D01*
X123272750Y-136090261D01*
X122578749Y-136090261D01*
X122572289Y-136057785D01*
X122538860Y-135889727D01*
X122460613Y-135700823D01*
X122460612Y-135700822D01*
X122460609Y-135700816D01*
X122347017Y-135530814D01*
X122347014Y-135530810D01*
X122202439Y-135386235D01*
X122202435Y-135386232D01*
X122032433Y-135272640D01*
X122032424Y-135272635D01*
X121843523Y-135194390D01*
X121843515Y-135194388D01*
X121642987Y-135154500D01*
X121642984Y-135154500D01*
X121438516Y-135154500D01*
X121438513Y-135154500D01*
X121237984Y-135194388D01*
X121237976Y-135194390D01*
X121049075Y-135272635D01*
X121049066Y-135272640D01*
X120879064Y-135386232D01*
X120879060Y-135386235D01*
X120734485Y-135530810D01*
X120734482Y-135530814D01*
X120620890Y-135700816D01*
X120620885Y-135700825D01*
X120542640Y-135889726D01*
X120542638Y-135889734D01*
X120502750Y-136090261D01*
X115099397Y-136090261D01*
X115124316Y-136057786D01*
X115275623Y-135795714D01*
X115391428Y-135516135D01*
X115469751Y-135223832D01*
X115509250Y-134923807D01*
X115509250Y-134621199D01*
X135882250Y-134621199D01*
X135882250Y-134923800D01*
X135882251Y-134923816D01*
X135921748Y-135223828D01*
X136000073Y-135516139D01*
X136115874Y-135795707D01*
X136115878Y-135795717D01*
X136267183Y-136057785D01*
X136451402Y-136297864D01*
X136451408Y-136297871D01*
X136665378Y-136511841D01*
X136665385Y-136511847D01*
X136905464Y-136696066D01*
X137167532Y-136847371D01*
X137167533Y-136847371D01*
X137167536Y-136847373D01*
X137447115Y-136963178D01*
X137739418Y-137041501D01*
X138039443Y-137081000D01*
X138039450Y-137081000D01*
X138342050Y-137081000D01*
X138342057Y-137081000D01*
X138642082Y-137041501D01*
X138934385Y-136963178D01*
X139213964Y-136847373D01*
X139476036Y-136696066D01*
X139716116Y-136511846D01*
X139930096Y-136297866D01*
X140114316Y-136057786D01*
X140265623Y-135795714D01*
X140381428Y-135516135D01*
X140459751Y-135223832D01*
X140499250Y-134923807D01*
X140499250Y-134621193D01*
X140459751Y-134321168D01*
X140381428Y-134028865D01*
X140265623Y-133749286D01*
X140237456Y-133700500D01*
X140114316Y-133487214D01*
X139930097Y-133247135D01*
X139930091Y-133247128D01*
X139716121Y-133033158D01*
X139716114Y-133033152D01*
X139476035Y-132848933D01*
X139213967Y-132697628D01*
X139213957Y-132697624D01*
X138934389Y-132581823D01*
X138642078Y-132503498D01*
X138342066Y-132464001D01*
X138342063Y-132464000D01*
X138342057Y-132464000D01*
X138039443Y-132464000D01*
X138039437Y-132464000D01*
X138039433Y-132464001D01*
X137739421Y-132503498D01*
X137447110Y-132581823D01*
X137167542Y-132697624D01*
X137167532Y-132697628D01*
X136905464Y-132848933D01*
X136665385Y-133033152D01*
X136665378Y-133033158D01*
X136451408Y-133247128D01*
X136451402Y-133247135D01*
X136267183Y-133487214D01*
X136115878Y-133749282D01*
X136115874Y-133749292D01*
X136000073Y-134028860D01*
X135921748Y-134321171D01*
X135882251Y-134621183D01*
X135882250Y-134621199D01*
X115509250Y-134621199D01*
X115509250Y-134621193D01*
X115469751Y-134321168D01*
X115391428Y-134028865D01*
X115275623Y-133749286D01*
X115247456Y-133700500D01*
X115124316Y-133487214D01*
X114995750Y-133319663D01*
X114995748Y-133319661D01*
X114942495Y-133250261D01*
X119117750Y-133250261D01*
X119117750Y-133454738D01*
X119157638Y-133655265D01*
X119157640Y-133655273D01*
X119235885Y-133844174D01*
X119235890Y-133844183D01*
X119349482Y-134014185D01*
X119349485Y-134014189D01*
X119494060Y-134158764D01*
X119494064Y-134158767D01*
X119664066Y-134272359D01*
X119664072Y-134272362D01*
X119664073Y-134272363D01*
X119852977Y-134350610D01*
X120053511Y-134390499D01*
X120053514Y-134390500D01*
X120053516Y-134390500D01*
X120257986Y-134390500D01*
X120257987Y-134390499D01*
X120458523Y-134350610D01*
X120647427Y-134272363D01*
X120817436Y-134158767D01*
X120962017Y-134014186D01*
X121075613Y-133844177D01*
X121153860Y-133655273D01*
X121193750Y-133454734D01*
X121193750Y-133250266D01*
X121193750Y-133250263D01*
X121193749Y-133250261D01*
X121887750Y-133250261D01*
X121887750Y-133454738D01*
X121927638Y-133655265D01*
X121927640Y-133655273D01*
X122005885Y-133844174D01*
X122005890Y-133844183D01*
X122119482Y-134014185D01*
X122119485Y-134014189D01*
X122264060Y-134158764D01*
X122264064Y-134158767D01*
X122434066Y-134272359D01*
X122434072Y-134272362D01*
X122434073Y-134272363D01*
X122622977Y-134350610D01*
X122823511Y-134390499D01*
X122823514Y-134390500D01*
X122823516Y-134390500D01*
X123027986Y-134390500D01*
X123027987Y-134390499D01*
X123228523Y-134350610D01*
X123417427Y-134272363D01*
X123587436Y-134158767D01*
X123732017Y-134014186D01*
X123845613Y-133844177D01*
X123923860Y-133655273D01*
X123963750Y-133454734D01*
X123963750Y-133250266D01*
X123963750Y-133250263D01*
X123963749Y-133250261D01*
X124657750Y-133250261D01*
X124657750Y-133454738D01*
X124697638Y-133655265D01*
X124697640Y-133655273D01*
X124775885Y-133844174D01*
X124775890Y-133844183D01*
X124889482Y-134014185D01*
X124889485Y-134014189D01*
X125034060Y-134158764D01*
X125034064Y-134158767D01*
X125204066Y-134272359D01*
X125204072Y-134272362D01*
X125204073Y-134272363D01*
X125392977Y-134350610D01*
X125593511Y-134390499D01*
X125593514Y-134390500D01*
X125593516Y-134390500D01*
X125797986Y-134390500D01*
X125797987Y-134390499D01*
X125998523Y-134350610D01*
X126187427Y-134272363D01*
X126357436Y-134158767D01*
X126502017Y-134014186D01*
X126615613Y-133844177D01*
X126693860Y-133655273D01*
X126733750Y-133454734D01*
X126733750Y-133250266D01*
X126733750Y-133250263D01*
X126733749Y-133250261D01*
X127427750Y-133250261D01*
X127427750Y-133454738D01*
X127467638Y-133655265D01*
X127467640Y-133655273D01*
X127545885Y-133844174D01*
X127545890Y-133844183D01*
X127659482Y-134014185D01*
X127659485Y-134014189D01*
X127804060Y-134158764D01*
X127804064Y-134158767D01*
X127974066Y-134272359D01*
X127974072Y-134272362D01*
X127974073Y-134272363D01*
X128162977Y-134350610D01*
X128363511Y-134390499D01*
X128363514Y-134390500D01*
X128363516Y-134390500D01*
X128567986Y-134390500D01*
X128567987Y-134390499D01*
X128768523Y-134350610D01*
X128957427Y-134272363D01*
X129127436Y-134158767D01*
X129272017Y-134014186D01*
X129385613Y-133844177D01*
X129463860Y-133655273D01*
X129503750Y-133454734D01*
X129503750Y-133250266D01*
X129503750Y-133250263D01*
X129503749Y-133250261D01*
X129503126Y-133247128D01*
X129463860Y-133049727D01*
X129385613Y-132860823D01*
X129385612Y-132860822D01*
X129385609Y-132860816D01*
X129272017Y-132690814D01*
X129272014Y-132690810D01*
X129127439Y-132546235D01*
X129127435Y-132546232D01*
X129118589Y-132540321D01*
X130197750Y-132540321D01*
X130197750Y-134164678D01*
X130212282Y-134237735D01*
X130212283Y-134237739D01*
X130212284Y-134237740D01*
X130267649Y-134320601D01*
X130350510Y-134375966D01*
X130350514Y-134375967D01*
X130423571Y-134390499D01*
X130423574Y-134390500D01*
X130423576Y-134390500D01*
X132047926Y-134390500D01*
X132047927Y-134390499D01*
X132120990Y-134375966D01*
X132203851Y-134320601D01*
X132259216Y-134237740D01*
X132273750Y-134164674D01*
X132273750Y-132540326D01*
X132273750Y-132540323D01*
X132273749Y-132540321D01*
X132259217Y-132467264D01*
X132259216Y-132467260D01*
X132236082Y-132432637D01*
X132203851Y-132384399D01*
X132120990Y-132329034D01*
X132120989Y-132329033D01*
X132120985Y-132329032D01*
X132047927Y-132314500D01*
X132047924Y-132314500D01*
X130423576Y-132314500D01*
X130423573Y-132314500D01*
X130350514Y-132329032D01*
X130350510Y-132329033D01*
X130267649Y-132384399D01*
X130212283Y-132467260D01*
X130212282Y-132467264D01*
X130197750Y-132540321D01*
X129118589Y-132540321D01*
X128957433Y-132432640D01*
X128957424Y-132432635D01*
X128768523Y-132354390D01*
X128768515Y-132354388D01*
X128567987Y-132314500D01*
X128567984Y-132314500D01*
X128363516Y-132314500D01*
X128363513Y-132314500D01*
X128162984Y-132354388D01*
X128162976Y-132354390D01*
X127974075Y-132432635D01*
X127974066Y-132432640D01*
X127804064Y-132546232D01*
X127804060Y-132546235D01*
X127659485Y-132690810D01*
X127659482Y-132690814D01*
X127545890Y-132860816D01*
X127545885Y-132860825D01*
X127467640Y-133049726D01*
X127467638Y-133049734D01*
X127427750Y-133250261D01*
X126733749Y-133250261D01*
X126733126Y-133247128D01*
X126693860Y-133049727D01*
X126615613Y-132860823D01*
X126615612Y-132860822D01*
X126615609Y-132860816D01*
X126502017Y-132690814D01*
X126502014Y-132690810D01*
X126357439Y-132546235D01*
X126357435Y-132546232D01*
X126187433Y-132432640D01*
X126187424Y-132432635D01*
X125998523Y-132354390D01*
X125998515Y-132354388D01*
X125797987Y-132314500D01*
X125797984Y-132314500D01*
X125593516Y-132314500D01*
X125593513Y-132314500D01*
X125392984Y-132354388D01*
X125392976Y-132354390D01*
X125204075Y-132432635D01*
X125204066Y-132432640D01*
X125034064Y-132546232D01*
X125034060Y-132546235D01*
X124889485Y-132690810D01*
X124889482Y-132690814D01*
X124775890Y-132860816D01*
X124775885Y-132860825D01*
X124697640Y-133049726D01*
X124697638Y-133049734D01*
X124657750Y-133250261D01*
X123963749Y-133250261D01*
X123963126Y-133247128D01*
X123923860Y-133049727D01*
X123845613Y-132860823D01*
X123845612Y-132860822D01*
X123845609Y-132860816D01*
X123732017Y-132690814D01*
X123732014Y-132690810D01*
X123587439Y-132546235D01*
X123587435Y-132546232D01*
X123417433Y-132432640D01*
X123417424Y-132432635D01*
X123228523Y-132354390D01*
X123228515Y-132354388D01*
X123027987Y-132314500D01*
X123027984Y-132314500D01*
X122823516Y-132314500D01*
X122823513Y-132314500D01*
X122622984Y-132354388D01*
X122622976Y-132354390D01*
X122434075Y-132432635D01*
X122434066Y-132432640D01*
X122264064Y-132546232D01*
X122264060Y-132546235D01*
X122119485Y-132690810D01*
X122119482Y-132690814D01*
X122005890Y-132860816D01*
X122005885Y-132860825D01*
X121927640Y-133049726D01*
X121927638Y-133049734D01*
X121887750Y-133250261D01*
X121193749Y-133250261D01*
X121193126Y-133247128D01*
X121153860Y-133049727D01*
X121075613Y-132860823D01*
X121075612Y-132860822D01*
X121075609Y-132860816D01*
X120962017Y-132690814D01*
X120962014Y-132690810D01*
X120817439Y-132546235D01*
X120817435Y-132546232D01*
X120647433Y-132432640D01*
X120647424Y-132432635D01*
X120458523Y-132354390D01*
X120458515Y-132354388D01*
X120257987Y-132314500D01*
X120257984Y-132314500D01*
X120053516Y-132314500D01*
X120053513Y-132314500D01*
X119852984Y-132354388D01*
X119852976Y-132354390D01*
X119664075Y-132432635D01*
X119664066Y-132432640D01*
X119494064Y-132546232D01*
X119494060Y-132546235D01*
X119349485Y-132690810D01*
X119349482Y-132690814D01*
X119235890Y-132860816D01*
X119235885Y-132860825D01*
X119157640Y-133049726D01*
X119157638Y-133049734D01*
X119117750Y-133250261D01*
X114942495Y-133250261D01*
X114940096Y-133247134D01*
X114940094Y-133247132D01*
X114940091Y-133247128D01*
X114726121Y-133033158D01*
X114726114Y-133033152D01*
X114486035Y-132848933D01*
X114223967Y-132697628D01*
X114223957Y-132697624D01*
X113944389Y-132581823D01*
X113652078Y-132503498D01*
X113352066Y-132464001D01*
X113352063Y-132464000D01*
X113352057Y-132464000D01*
X113049443Y-132464000D01*
X113049437Y-132464000D01*
X113049433Y-132464001D01*
X112749421Y-132503498D01*
X112457110Y-132581823D01*
X112177542Y-132697624D01*
X112177532Y-132697628D01*
X111915464Y-132848933D01*
X111675385Y-133033152D01*
X111675378Y-133033158D01*
X111461408Y-133247128D01*
X111461402Y-133247135D01*
X111277183Y-133487214D01*
X111125878Y-133749282D01*
X111125874Y-133749292D01*
X111010073Y-134028860D01*
X110931748Y-134321171D01*
X110892251Y-134621183D01*
X110892250Y-134621199D01*
X109050503Y-134621199D01*
X109050503Y-125930491D01*
X130009500Y-125930491D01*
X130009500Y-126269508D01*
X130042729Y-126606901D01*
X130108870Y-126939410D01*
X130207284Y-127263841D01*
X130337024Y-127577060D01*
X130337026Y-127577065D01*
X130496831Y-127876039D01*
X130496842Y-127876057D01*
X130685184Y-128157930D01*
X130685194Y-128157944D01*
X130900269Y-128420014D01*
X131139985Y-128659730D01*
X131139990Y-128659734D01*
X131139991Y-128659735D01*
X131402061Y-128874810D01*
X131683949Y-129063162D01*
X131683958Y-129063167D01*
X131683960Y-129063168D01*
X131982934Y-129222973D01*
X131982936Y-129222973D01*
X131982942Y-129222977D01*
X132296160Y-129352716D01*
X132620586Y-129451129D01*
X132953096Y-129517270D01*
X133290488Y-129550500D01*
X133290491Y-129550500D01*
X133629509Y-129550500D01*
X133629512Y-129550500D01*
X133966904Y-129517270D01*
X134299414Y-129451129D01*
X134623840Y-129352716D01*
X134937058Y-129222977D01*
X135236051Y-129063162D01*
X135517939Y-128874810D01*
X135780009Y-128659735D01*
X136019735Y-128420009D01*
X136234810Y-128157939D01*
X136423162Y-127876051D01*
X136582977Y-127577058D01*
X136712716Y-127263840D01*
X136811129Y-126939414D01*
X136877270Y-126606904D01*
X136910500Y-126269512D01*
X136910500Y-125930488D01*
X136877270Y-125593096D01*
X136811129Y-125260586D01*
X136712716Y-124936160D01*
X136582977Y-124622942D01*
X136423162Y-124323949D01*
X136234810Y-124042061D01*
X136019735Y-123779991D01*
X136019734Y-123779990D01*
X136019730Y-123779985D01*
X135780014Y-123540269D01*
X135517944Y-123325194D01*
X135517943Y-123325193D01*
X135517939Y-123325190D01*
X135236051Y-123136838D01*
X135236046Y-123136835D01*
X135236039Y-123136831D01*
X134937065Y-122977026D01*
X134937060Y-122977024D01*
X134623841Y-122847284D01*
X134433382Y-122789509D01*
X134299414Y-122748871D01*
X134299411Y-122748870D01*
X134299410Y-122748870D01*
X133966901Y-122682729D01*
X133729199Y-122659318D01*
X133629512Y-122649500D01*
X133290488Y-122649500D01*
X133199738Y-122658437D01*
X132953098Y-122682729D01*
X132620589Y-122748870D01*
X132296158Y-122847284D01*
X131982939Y-122977024D01*
X131982934Y-122977026D01*
X131683960Y-123136831D01*
X131683942Y-123136842D01*
X131402069Y-123325184D01*
X131402055Y-123325194D01*
X131139985Y-123540269D01*
X130900269Y-123779985D01*
X130685194Y-124042055D01*
X130685184Y-124042069D01*
X130496842Y-124323942D01*
X130496831Y-124323960D01*
X130337026Y-124622934D01*
X130337024Y-124622939D01*
X130207284Y-124936158D01*
X130108870Y-125260589D01*
X130042729Y-125593098D01*
X130009500Y-125930491D01*
X109050503Y-125930491D01*
X109050502Y-112809725D01*
X115447499Y-112809725D01*
X115486408Y-113005329D01*
X115486411Y-113005339D01*
X115562730Y-113189592D01*
X115562737Y-113189605D01*
X115673539Y-113355430D01*
X115673542Y-113355434D01*
X115814565Y-113496457D01*
X115814569Y-113496460D01*
X115980394Y-113607262D01*
X115980407Y-113607269D01*
X116164660Y-113683588D01*
X116164665Y-113683590D01*
X116164669Y-113683590D01*
X116164670Y-113683591D01*
X116360274Y-113722500D01*
X116360277Y-113722500D01*
X116559725Y-113722500D01*
X116713799Y-113691852D01*
X116755335Y-113683590D01*
X116939599Y-113607266D01*
X117105431Y-113496460D01*
X117246460Y-113355431D01*
X117357266Y-113189599D01*
X117433590Y-113005335D01*
X117442858Y-112958739D01*
X117452386Y-112932775D01*
X117451412Y-112932354D01*
X117453828Y-112926768D01*
X117453835Y-112926757D01*
X117779394Y-111911632D01*
X117818611Y-111853806D01*
X117882865Y-111826363D01*
X117897470Y-111825500D01*
X118153246Y-111825500D01*
X118220285Y-111845185D01*
X118266040Y-111897989D01*
X118275984Y-111967147D01*
X118246959Y-112030703D01*
X118240927Y-112037181D01*
X118213542Y-112064565D01*
X118213539Y-112064569D01*
X118102737Y-112230394D01*
X118102730Y-112230407D01*
X118026411Y-112414660D01*
X118026408Y-112414670D01*
X117987500Y-112610274D01*
X117987500Y-112610277D01*
X117987500Y-112809723D01*
X117987500Y-112809725D01*
X117987499Y-112809725D01*
X118026408Y-113005329D01*
X118026411Y-113005339D01*
X118102730Y-113189592D01*
X118102737Y-113189605D01*
X118213539Y-113355430D01*
X118213542Y-113355434D01*
X118329393Y-113471285D01*
X118362878Y-113532608D01*
X118357894Y-113602300D01*
X118316022Y-113658233D01*
X118250558Y-113682650D01*
X118241712Y-113682966D01*
X117658681Y-113682966D01*
X117575893Y-113705148D01*
X117501672Y-113748001D01*
X117368952Y-113880720D01*
X117319139Y-113911114D01*
X116243241Y-114256163D01*
X116238441Y-114258160D01*
X116238258Y-114257721D01*
X116211540Y-114267085D01*
X116164668Y-114276408D01*
X116164662Y-114276410D01*
X115980407Y-114352730D01*
X115980394Y-114352737D01*
X115814569Y-114463539D01*
X115814565Y-114463542D01*
X115673542Y-114604565D01*
X115673539Y-114604569D01*
X115562737Y-114770394D01*
X115562730Y-114770407D01*
X115486411Y-114954660D01*
X115486408Y-114954670D01*
X115447500Y-115150274D01*
X115447500Y-115150277D01*
X115447500Y-115349723D01*
X115447500Y-115349725D01*
X115447499Y-115349725D01*
X115486408Y-115545329D01*
X115486411Y-115545339D01*
X115562730Y-115729592D01*
X115562737Y-115729605D01*
X115673539Y-115895430D01*
X115673542Y-115895434D01*
X115814565Y-116036457D01*
X115814569Y-116036460D01*
X115980394Y-116147262D01*
X115980407Y-116147269D01*
X116164660Y-116223588D01*
X116164665Y-116223590D01*
X116164669Y-116223590D01*
X116164670Y-116223591D01*
X116360274Y-116262500D01*
X116360277Y-116262500D01*
X116559725Y-116262500D01*
X116691324Y-116236322D01*
X116755335Y-116223590D01*
X116939599Y-116147266D01*
X117105431Y-116036460D01*
X117246460Y-115895431D01*
X117357266Y-115729599D01*
X117433590Y-115545335D01*
X117442858Y-115498739D01*
X117452386Y-115472775D01*
X117451412Y-115472354D01*
X117453828Y-115466768D01*
X117453835Y-115466757D01*
X117789507Y-114420098D01*
X117828724Y-114362273D01*
X117892978Y-114334829D01*
X117907583Y-114333966D01*
X118184780Y-114333966D01*
X118251819Y-114353651D01*
X118297574Y-114406455D01*
X118307518Y-114475613D01*
X118278493Y-114539169D01*
X118272461Y-114545647D01*
X118213542Y-114604565D01*
X118213539Y-114604569D01*
X118102737Y-114770394D01*
X118102730Y-114770407D01*
X118026411Y-114954660D01*
X118026408Y-114954670D01*
X117987500Y-115150274D01*
X117987500Y-115150277D01*
X117987500Y-115349723D01*
X117987500Y-115349725D01*
X117987499Y-115349725D01*
X118026408Y-115545329D01*
X118026411Y-115545339D01*
X118102730Y-115729592D01*
X118102737Y-115729605D01*
X118213539Y-115895430D01*
X118213542Y-115895434D01*
X118354565Y-116036457D01*
X118354569Y-116036460D01*
X118520394Y-116147262D01*
X118520407Y-116147269D01*
X118704660Y-116223588D01*
X118704665Y-116223590D01*
X118704669Y-116223590D01*
X118704670Y-116223591D01*
X118900274Y-116262500D01*
X118900277Y-116262500D01*
X119099725Y-116262500D01*
X119231324Y-116236322D01*
X119295335Y-116223590D01*
X119479599Y-116147266D01*
X119645431Y-116036460D01*
X119786460Y-115895431D01*
X119897266Y-115729599D01*
X119973590Y-115545335D01*
X119982858Y-115498739D01*
X119992386Y-115472775D01*
X119991412Y-115472354D01*
X119993828Y-115466768D01*
X119993835Y-115466757D01*
X120338884Y-114390858D01*
X120369276Y-114341049D01*
X120861465Y-113848862D01*
X120904318Y-113774639D01*
X120926500Y-113691853D01*
X120926500Y-113606147D01*
X120926500Y-112085189D01*
X120946185Y-112018150D01*
X120962819Y-111997508D01*
X148463983Y-84496344D01*
X148525306Y-84462859D01*
X148551664Y-84460025D01*
X148643372Y-84460025D01*
X148643374Y-84460025D01*
X148726160Y-84437843D01*
X148800383Y-84394990D01*
X148951094Y-84244277D01*
X148956250Y-84240725D01*
X148958250Y-84237663D01*
X148988074Y-84218799D01*
X149155581Y-84143761D01*
X149224808Y-84134319D01*
X149288152Y-84163803D01*
X149325500Y-84222853D01*
X149330273Y-84256926D01*
X149330273Y-132658038D01*
X149310588Y-132725077D01*
X149293954Y-132745719D01*
X149252492Y-132787181D01*
X149191169Y-132820666D01*
X149164811Y-132823500D01*
X146058147Y-132823500D01*
X145975359Y-132845682D01*
X145901138Y-132888535D01*
X145901135Y-132888537D01*
X145248842Y-133540829D01*
X145187519Y-133574314D01*
X145166780Y-133577021D01*
X143687924Y-133644098D01*
X143659547Y-133646980D01*
X143659524Y-133646983D01*
X143655268Y-133647658D01*
X143655250Y-133647544D01*
X143634186Y-133649500D01*
X143045323Y-133649500D01*
X142972264Y-133664032D01*
X142972260Y-133664033D01*
X142889399Y-133719399D01*
X142834033Y-133802260D01*
X142834032Y-133802264D01*
X142819500Y-133875321D01*
X142819500Y-135624678D01*
X142834032Y-135697735D01*
X142834033Y-135697739D01*
X142834034Y-135697740D01*
X142889399Y-135780601D01*
X142972260Y-135835966D01*
X142972264Y-135835967D01*
X143045321Y-135850499D01*
X143045324Y-135850500D01*
X143045326Y-135850500D01*
X144794676Y-135850500D01*
X144794677Y-135850499D01*
X144867740Y-135835966D01*
X144950601Y-135780601D01*
X145005966Y-135697740D01*
X145020500Y-135624674D01*
X145020500Y-135331405D01*
X145033741Y-135275651D01*
X145035257Y-135272640D01*
X145165555Y-135013794D01*
X145213280Y-134962766D01*
X145281018Y-134945639D01*
X145347262Y-134967853D01*
X145390981Y-135022355D01*
X145394241Y-135031226D01*
X145440127Y-135172445D01*
X145518768Y-135326788D01*
X145620586Y-135466928D01*
X145743072Y-135589414D01*
X145883212Y-135691232D01*
X146037555Y-135769873D01*
X146202299Y-135823402D01*
X146373389Y-135850500D01*
X146373390Y-135850500D01*
X146546610Y-135850500D01*
X146546611Y-135850500D01*
X146717701Y-135823402D01*
X146882445Y-135769873D01*
X147036788Y-135691232D01*
X147176928Y-135589414D01*
X147299414Y-135466928D01*
X147377838Y-135358985D01*
X147385228Y-135349772D01*
X147393780Y-135340097D01*
X147678911Y-134850604D01*
X147729661Y-134802587D01*
X147798319Y-134789629D01*
X147863083Y-134815847D01*
X147903392Y-134872917D01*
X147908529Y-134893622D01*
X147926597Y-135007698D01*
X147926598Y-135007701D01*
X147980127Y-135172445D01*
X148058768Y-135326788D01*
X148160586Y-135466928D01*
X148283072Y-135589414D01*
X148423212Y-135691232D01*
X148577555Y-135769873D01*
X148742299Y-135823402D01*
X148913389Y-135850500D01*
X148913390Y-135850500D01*
X149086610Y-135850500D01*
X149086611Y-135850500D01*
X149257701Y-135823402D01*
X149422445Y-135769873D01*
X149576788Y-135691232D01*
X149716928Y-135589414D01*
X149839414Y-135466928D01*
X149941232Y-135326788D01*
X150019873Y-135172445D01*
X150073402Y-135007701D01*
X150073402Y-135007699D01*
X150073403Y-135007697D01*
X150074540Y-135002962D01*
X150076010Y-135003314D01*
X150078650Y-134997740D01*
X150080133Y-134988736D01*
X150078714Y-134988290D01*
X150082175Y-134977286D01*
X150198781Y-134606520D01*
X150237671Y-134548477D01*
X150301769Y-134520671D01*
X150370725Y-134531934D01*
X150422645Y-134578690D01*
X150441045Y-134646093D01*
X150439544Y-134663108D01*
X150439500Y-134663386D01*
X150439500Y-134836616D01*
X150449650Y-134900701D01*
X150450920Y-134912124D01*
X150452035Y-134929434D01*
X150452255Y-134931463D01*
X150455619Y-134953473D01*
X150457617Y-134960648D01*
X150457136Y-134960781D01*
X150461780Y-134977286D01*
X150466597Y-135007699D01*
X150493362Y-135090073D01*
X150520127Y-135172445D01*
X150598768Y-135326788D01*
X150700586Y-135466928D01*
X150823072Y-135589414D01*
X150963212Y-135691232D01*
X151117555Y-135769873D01*
X151282299Y-135823402D01*
X151453389Y-135850500D01*
X151453390Y-135850500D01*
X151626610Y-135850500D01*
X151626611Y-135850500D01*
X151797701Y-135823402D01*
X151962445Y-135769873D01*
X152116788Y-135691232D01*
X152256928Y-135589414D01*
X152379414Y-135466928D01*
X152481232Y-135326788D01*
X152559873Y-135172445D01*
X152613402Y-135007701D01*
X152616477Y-134988290D01*
X152626688Y-134923816D01*
X152629113Y-134908504D01*
X152659042Y-134845370D01*
X152718353Y-134808438D01*
X152788216Y-134809436D01*
X152846449Y-134848045D01*
X152857676Y-134863708D01*
X153148305Y-135344015D01*
X153151179Y-135348653D01*
X153151437Y-135349060D01*
X153151891Y-135349758D01*
X153154588Y-135353905D01*
X153162035Y-135361370D01*
X153174565Y-135376057D01*
X153191913Y-135399936D01*
X153240582Y-135466924D01*
X153240586Y-135466928D01*
X153363072Y-135589414D01*
X153503212Y-135691232D01*
X153657555Y-135769873D01*
X153822299Y-135823402D01*
X153993389Y-135850500D01*
X153993390Y-135850500D01*
X154166610Y-135850500D01*
X154166611Y-135850500D01*
X154337701Y-135823402D01*
X154502445Y-135769873D01*
X154656788Y-135691232D01*
X154796928Y-135589414D01*
X154919414Y-135466928D01*
X155021232Y-135326788D01*
X155099873Y-135172445D01*
X155153402Y-135007701D01*
X155180500Y-134836611D01*
X155180500Y-134663389D01*
X155153402Y-134492299D01*
X155099873Y-134327555D01*
X155021232Y-134173212D01*
X154919414Y-134033072D01*
X154796928Y-133910586D01*
X154656788Y-133808768D01*
X154502445Y-133730127D01*
X154337701Y-133676598D01*
X154337699Y-133676597D01*
X154252980Y-133663179D01*
X154252980Y-133663178D01*
X154248609Y-133662485D01*
X154240158Y-133660524D01*
X154235229Y-133660367D01*
X154227537Y-133659149D01*
X154166616Y-133649500D01*
X154166611Y-133649500D01*
X153993389Y-133649500D01*
X153993386Y-133649500D01*
X153988232Y-133650316D01*
X153964903Y-133651779D01*
X152874968Y-133617153D01*
X152808587Y-133595350D01*
X152791224Y-133580897D01*
X152324864Y-133114537D01*
X152324862Y-133114535D01*
X152287750Y-133093108D01*
X152250640Y-133071682D01*
X152209246Y-133060591D01*
X152167853Y-133049500D01*
X152167852Y-133049500D01*
X151811189Y-133049500D01*
X151781748Y-133040855D01*
X151751762Y-133034332D01*
X151746746Y-133030577D01*
X151744150Y-133029815D01*
X151723508Y-133013181D01*
X151596278Y-132885951D01*
X151562793Y-132824628D01*
X151559959Y-132798270D01*
X151559959Y-125930491D01*
X160749500Y-125930491D01*
X160749500Y-126269508D01*
X160782729Y-126606901D01*
X160848870Y-126939410D01*
X160947284Y-127263841D01*
X161077024Y-127577060D01*
X161077026Y-127577065D01*
X161236831Y-127876039D01*
X161236842Y-127876057D01*
X161425184Y-128157930D01*
X161425194Y-128157944D01*
X161640269Y-128420014D01*
X161879985Y-128659730D01*
X161879990Y-128659734D01*
X161879991Y-128659735D01*
X162142061Y-128874810D01*
X162423949Y-129063162D01*
X162423958Y-129063167D01*
X162423960Y-129063168D01*
X162722934Y-129222973D01*
X162722936Y-129222973D01*
X162722942Y-129222977D01*
X163036160Y-129352716D01*
X163360586Y-129451129D01*
X163693096Y-129517270D01*
X164030488Y-129550500D01*
X164030491Y-129550500D01*
X164369509Y-129550500D01*
X164369512Y-129550500D01*
X164706904Y-129517270D01*
X165039414Y-129451129D01*
X165363840Y-129352716D01*
X165677058Y-129222977D01*
X165976051Y-129063162D01*
X166257939Y-128874810D01*
X166520009Y-128659735D01*
X166759735Y-128420009D01*
X166974810Y-128157939D01*
X167163162Y-127876051D01*
X167322977Y-127577058D01*
X167452716Y-127263840D01*
X167551129Y-126939414D01*
X167617270Y-126606904D01*
X167650500Y-126269512D01*
X167650500Y-125930488D01*
X167617270Y-125593096D01*
X167551129Y-125260586D01*
X167452716Y-124936160D01*
X167322977Y-124622942D01*
X167163162Y-124323949D01*
X166974810Y-124042061D01*
X166759735Y-123779991D01*
X166759734Y-123779990D01*
X166759730Y-123779985D01*
X166520014Y-123540269D01*
X166257944Y-123325194D01*
X166257943Y-123325193D01*
X166257939Y-123325190D01*
X165976051Y-123136838D01*
X165976046Y-123136835D01*
X165976039Y-123136831D01*
X165677065Y-122977026D01*
X165677060Y-122977024D01*
X165363841Y-122847284D01*
X165173382Y-122789509D01*
X165039414Y-122748871D01*
X165039411Y-122748870D01*
X165039410Y-122748870D01*
X164706901Y-122682729D01*
X164469199Y-122659318D01*
X164369512Y-122649500D01*
X164030488Y-122649500D01*
X163939738Y-122658437D01*
X163693098Y-122682729D01*
X163360589Y-122748870D01*
X163036158Y-122847284D01*
X162722939Y-122977024D01*
X162722934Y-122977026D01*
X162423960Y-123136831D01*
X162423942Y-123136842D01*
X162142069Y-123325184D01*
X162142055Y-123325194D01*
X161879985Y-123540269D01*
X161640269Y-123779985D01*
X161425194Y-124042055D01*
X161425184Y-124042069D01*
X161236842Y-124323942D01*
X161236831Y-124323960D01*
X161077026Y-124622934D01*
X161077024Y-124622939D01*
X160947284Y-124936158D01*
X160848870Y-125260589D01*
X160782729Y-125593098D01*
X160749500Y-125930491D01*
X151559959Y-125930491D01*
X151559959Y-79823822D01*
X151566879Y-79782979D01*
X151621873Y-79625335D01*
X151683928Y-79447452D01*
X151686392Y-79443186D01*
X151689620Y-79431137D01*
X151702023Y-79395585D01*
X151707162Y-79379077D01*
X151707581Y-79377551D01*
X151711590Y-79360746D01*
X151711590Y-79360743D01*
X151712440Y-79353648D01*
X151713086Y-79353725D01*
X151715796Y-79333446D01*
X151720500Y-79315892D01*
X151720500Y-79184108D01*
X151686392Y-79056814D01*
X151620500Y-78942686D01*
X151527314Y-78849500D01*
X151470250Y-78816554D01*
X151413187Y-78783608D01*
X151349539Y-78766554D01*
X151285892Y-78749500D01*
X151154108Y-78749500D01*
X151026812Y-78783608D01*
X150912686Y-78849500D01*
X150912683Y-78849502D01*
X150907681Y-78854505D01*
X150846358Y-78887990D01*
X150776666Y-78883006D01*
X150732319Y-78854505D01*
X150727316Y-78849502D01*
X150727314Y-78849500D01*
X150670250Y-78816554D01*
X150613187Y-78783608D01*
X150549539Y-78766554D01*
X150485892Y-78749500D01*
X150354108Y-78749500D01*
X150226813Y-78783608D01*
X150174844Y-78813612D01*
X150112686Y-78849500D01*
X150112684Y-78849501D01*
X150112682Y-78849503D01*
X150107678Y-78854507D01*
X150046353Y-78887989D01*
X149976662Y-78883002D01*
X149932320Y-78854503D01*
X149927319Y-78849502D01*
X149927317Y-78849500D01*
X149870253Y-78816554D01*
X149813190Y-78783608D01*
X149749542Y-78766554D01*
X149685895Y-78749500D01*
X149554111Y-78749500D01*
X149426816Y-78783608D01*
X149374847Y-78813612D01*
X149312689Y-78849500D01*
X149312687Y-78849501D01*
X149312685Y-78849503D01*
X149307678Y-78854510D01*
X149246353Y-78887992D01*
X149176662Y-78883005D01*
X149132320Y-78854506D01*
X149127316Y-78849502D01*
X149127314Y-78849500D01*
X149070250Y-78816554D01*
X149013187Y-78783608D01*
X148949539Y-78766554D01*
X148885892Y-78749500D01*
X148754108Y-78749500D01*
X148626812Y-78783608D01*
X148512686Y-78849500D01*
X148512683Y-78849502D01*
X148507681Y-78854505D01*
X148446358Y-78887990D01*
X148376666Y-78883006D01*
X148332319Y-78854505D01*
X148327316Y-78849502D01*
X148327314Y-78849500D01*
X148270250Y-78816554D01*
X148213187Y-78783608D01*
X148149539Y-78766554D01*
X148085892Y-78749500D01*
X147954108Y-78749500D01*
X147826812Y-78783608D01*
X147712686Y-78849500D01*
X147712683Y-78849502D01*
X147619502Y-78942683D01*
X147619500Y-78942686D01*
X147553608Y-79056812D01*
X147535848Y-79123096D01*
X147519500Y-79184108D01*
X147519500Y-79315892D01*
X147536019Y-79377544D01*
X147553608Y-79443187D01*
X147562448Y-79458498D01*
X147619500Y-79557314D01*
X147619502Y-79557316D01*
X147624182Y-79561996D01*
X147628056Y-79566049D01*
X147632491Y-79570904D01*
X147632761Y-79571350D01*
X147734127Y-79682174D01*
X147734424Y-79682499D01*
X147734895Y-79683014D01*
X147734897Y-79683017D01*
X147734951Y-79683076D01*
X147734972Y-79683119D01*
X147750782Y-79704702D01*
X147759535Y-79719862D01*
X147759537Y-79719864D01*
X147863769Y-79824096D01*
X147864160Y-79824488D01*
X147865912Y-79826255D01*
X147929416Y-79895685D01*
X147933398Y-79899940D01*
X147933758Y-79900316D01*
X147937638Y-79904281D01*
X147954234Y-79915370D01*
X147963025Y-79924240D01*
X147964157Y-79926337D01*
X147964376Y-79926119D01*
X148303195Y-80264936D01*
X148303204Y-80264946D01*
X148307534Y-80269276D01*
X148307535Y-80269277D01*
X148368138Y-80329880D01*
X148368140Y-80329881D01*
X148368467Y-80330208D01*
X148379967Y-80340294D01*
X149293954Y-81254281D01*
X149327439Y-81315604D01*
X149330273Y-81341962D01*
X149330273Y-82981099D01*
X149310588Y-83048138D01*
X149257784Y-83093893D01*
X149203792Y-83101991D01*
X149203792Y-83104773D01*
X149195665Y-83104773D01*
X149063881Y-83104773D01*
X148936587Y-83138881D01*
X148936586Y-83138881D01*
X148936584Y-83138882D01*
X148936583Y-83138882D01*
X148817840Y-83207439D01*
X148749940Y-83223912D01*
X148683913Y-83201059D01*
X148668159Y-83187733D01*
X148638453Y-83158027D01*
X148638451Y-83158025D01*
X148581387Y-83125079D01*
X148524324Y-83092133D01*
X148423784Y-83065194D01*
X148397029Y-83058025D01*
X148265245Y-83058025D01*
X148137950Y-83092133D01*
X148090239Y-83119679D01*
X148023823Y-83158025D01*
X148023821Y-83158026D01*
X148023814Y-83158031D01*
X148020691Y-83160427D01*
X148017587Y-83161626D01*
X148016786Y-83162089D01*
X148016713Y-83161963D01*
X147955518Y-83185612D01*
X147887075Y-83171563D01*
X147857538Y-83149721D01*
X147838904Y-83131087D01*
X147838902Y-83131085D01*
X147774484Y-83093893D01*
X147724775Y-83065193D01*
X147657884Y-83047270D01*
X147597480Y-83031085D01*
X147465696Y-83031085D01*
X147338402Y-83065193D01*
X147338401Y-83065193D01*
X147338399Y-83065194D01*
X147338398Y-83065194D01*
X147220850Y-83133061D01*
X147152950Y-83149534D01*
X147086923Y-83126681D01*
X147071169Y-83113355D01*
X147057316Y-83099502D01*
X147057314Y-83099500D01*
X146997893Y-83065193D01*
X146943187Y-83033608D01*
X146879539Y-83016554D01*
X146815892Y-82999500D01*
X146684108Y-82999500D01*
X146556812Y-83033608D01*
X146442686Y-83099500D01*
X146442683Y-83099502D01*
X146349502Y-83192683D01*
X146349500Y-83192686D01*
X146283608Y-83306812D01*
X146249500Y-83434108D01*
X146249500Y-83565896D01*
X146266412Y-83629013D01*
X146267922Y-83634651D01*
X146270979Y-83652679D01*
X146276950Y-83668344D01*
X146278593Y-83674474D01*
X146278595Y-83674481D01*
X146283606Y-83693182D01*
X146283607Y-83693184D01*
X146283608Y-83693186D01*
X146286944Y-83698965D01*
X146295418Y-83716784D01*
X146412393Y-84023609D01*
X146417882Y-84093263D01*
X146384841Y-84154827D01*
X146384209Y-84155463D01*
X120224181Y-110315491D01*
X120162858Y-110348976D01*
X120093166Y-110343992D01*
X120037233Y-110302120D01*
X120012816Y-110236656D01*
X120012500Y-110227810D01*
X120012500Y-110070274D01*
X119973591Y-109874670D01*
X119973590Y-109874669D01*
X119973590Y-109874665D01*
X119973588Y-109874660D01*
X119897269Y-109690407D01*
X119897262Y-109690394D01*
X119786460Y-109524569D01*
X119786457Y-109524565D01*
X119645434Y-109383542D01*
X119645430Y-109383539D01*
X119479605Y-109272737D01*
X119479592Y-109272730D01*
X119295339Y-109196411D01*
X119295329Y-109196408D01*
X119099725Y-109157500D01*
X119099723Y-109157500D01*
X118900277Y-109157500D01*
X118900275Y-109157500D01*
X118704670Y-109196408D01*
X118704660Y-109196411D01*
X118520407Y-109272730D01*
X118520394Y-109272737D01*
X118354569Y-109383539D01*
X118354565Y-109383542D01*
X118213542Y-109524565D01*
X118213539Y-109524569D01*
X118102737Y-109690394D01*
X118102730Y-109690407D01*
X118026411Y-109874660D01*
X118026408Y-109874670D01*
X117987500Y-110070274D01*
X117987500Y-110070277D01*
X117987500Y-110269723D01*
X117987500Y-110269725D01*
X117987499Y-110269725D01*
X118026408Y-110465329D01*
X118026411Y-110465339D01*
X118102730Y-110649592D01*
X118102737Y-110649605D01*
X118213539Y-110815430D01*
X118213542Y-110815434D01*
X118358876Y-110960768D01*
X118357480Y-110962163D01*
X118391694Y-111012396D01*
X118393563Y-111082241D01*
X118357374Y-111142008D01*
X118294617Y-111172722D01*
X118273694Y-111174500D01*
X117627147Y-111174500D01*
X117544360Y-111196682D01*
X117541566Y-111198296D01*
X117541564Y-111198296D01*
X117532489Y-111203537D01*
X117470138Y-111239535D01*
X117364867Y-111344805D01*
X117360418Y-111348494D01*
X117346118Y-111354652D01*
X117319139Y-111371114D01*
X116243241Y-111716163D01*
X116238441Y-111718160D01*
X116238258Y-111717721D01*
X116211540Y-111727085D01*
X116164668Y-111736408D01*
X116164662Y-111736410D01*
X115980407Y-111812730D01*
X115980394Y-111812737D01*
X115814569Y-111923539D01*
X115814565Y-111923542D01*
X115673542Y-112064565D01*
X115673539Y-112064569D01*
X115562737Y-112230394D01*
X115562730Y-112230407D01*
X115486411Y-112414660D01*
X115486408Y-112414670D01*
X115447500Y-112610274D01*
X115447500Y-112610277D01*
X115447500Y-112809723D01*
X115447500Y-112809725D01*
X115447499Y-112809725D01*
X109050502Y-112809725D01*
X109050502Y-110269725D01*
X115447499Y-110269725D01*
X115486408Y-110465329D01*
X115486411Y-110465339D01*
X115562730Y-110649592D01*
X115562737Y-110649605D01*
X115673539Y-110815430D01*
X115673542Y-110815434D01*
X115814565Y-110956457D01*
X115814569Y-110956460D01*
X115980394Y-111067262D01*
X115980407Y-111067269D01*
X116164660Y-111143588D01*
X116164665Y-111143590D01*
X116164669Y-111143590D01*
X116164670Y-111143591D01*
X116360274Y-111182500D01*
X116360277Y-111182500D01*
X116559725Y-111182500D01*
X116691324Y-111156322D01*
X116755335Y-111143590D01*
X116939599Y-111067266D01*
X117105431Y-110956460D01*
X117246460Y-110815431D01*
X117357266Y-110649599D01*
X117433590Y-110465335D01*
X117446322Y-110401324D01*
X117472500Y-110269725D01*
X117472500Y-110070274D01*
X117433591Y-109874670D01*
X117433590Y-109874669D01*
X117433590Y-109874665D01*
X117433588Y-109874660D01*
X117357269Y-109690407D01*
X117357262Y-109690394D01*
X117246460Y-109524569D01*
X117246457Y-109524565D01*
X117105434Y-109383542D01*
X117105430Y-109383539D01*
X116939605Y-109272737D01*
X116939592Y-109272730D01*
X116755339Y-109196411D01*
X116755329Y-109196408D01*
X116559725Y-109157500D01*
X116559723Y-109157500D01*
X116360277Y-109157500D01*
X116360275Y-109157500D01*
X116164670Y-109196408D01*
X116164660Y-109196411D01*
X115980407Y-109272730D01*
X115980394Y-109272737D01*
X115814569Y-109383539D01*
X115814565Y-109383542D01*
X115673542Y-109524565D01*
X115673539Y-109524569D01*
X115562737Y-109690394D01*
X115562730Y-109690407D01*
X115486411Y-109874660D01*
X115486408Y-109874670D01*
X115447500Y-110070274D01*
X115447500Y-110070277D01*
X115447500Y-110269723D01*
X115447500Y-110269725D01*
X115447499Y-110269725D01*
X109050502Y-110269725D01*
X109050502Y-107729725D01*
X115447499Y-107729725D01*
X115486408Y-107925329D01*
X115486411Y-107925339D01*
X115562730Y-108109592D01*
X115562737Y-108109605D01*
X115673539Y-108275430D01*
X115673542Y-108275434D01*
X115814565Y-108416457D01*
X115814569Y-108416460D01*
X115980394Y-108527262D01*
X115980407Y-108527269D01*
X116164660Y-108603588D01*
X116164665Y-108603590D01*
X116164669Y-108603590D01*
X116164670Y-108603591D01*
X116360274Y-108642500D01*
X116360277Y-108642500D01*
X116559725Y-108642500D01*
X116691324Y-108616322D01*
X116755335Y-108603590D01*
X116939599Y-108527266D01*
X117105431Y-108416460D01*
X117246460Y-108275431D01*
X117357266Y-108109599D01*
X117433590Y-107925335D01*
X117472500Y-107729725D01*
X117987499Y-107729725D01*
X118026408Y-107925329D01*
X118026411Y-107925339D01*
X118102730Y-108109592D01*
X118102737Y-108109605D01*
X118213539Y-108275430D01*
X118213542Y-108275434D01*
X118354565Y-108416457D01*
X118354569Y-108416460D01*
X118520394Y-108527262D01*
X118520407Y-108527269D01*
X118704660Y-108603588D01*
X118704665Y-108603590D01*
X118704669Y-108603590D01*
X118704670Y-108603591D01*
X118900274Y-108642500D01*
X118900277Y-108642500D01*
X119099725Y-108642500D01*
X119231324Y-108616322D01*
X119295335Y-108603590D01*
X119479599Y-108527266D01*
X119645431Y-108416460D01*
X119786460Y-108275431D01*
X119897266Y-108109599D01*
X119973590Y-107925335D01*
X120012500Y-107729723D01*
X120012500Y-107530277D01*
X120012500Y-107530274D01*
X119973591Y-107334670D01*
X119973590Y-107334669D01*
X119973590Y-107334665D01*
X119973588Y-107334660D01*
X119897269Y-107150407D01*
X119897262Y-107150394D01*
X119786460Y-106984569D01*
X119786457Y-106984565D01*
X119645434Y-106843542D01*
X119645430Y-106843539D01*
X119479605Y-106732737D01*
X119479592Y-106732730D01*
X119295339Y-106656411D01*
X119295329Y-106656408D01*
X119099725Y-106617500D01*
X119099723Y-106617500D01*
X118900277Y-106617500D01*
X118900275Y-106617500D01*
X118704670Y-106656408D01*
X118704660Y-106656411D01*
X118520407Y-106732730D01*
X118520394Y-106732737D01*
X118354569Y-106843539D01*
X118354565Y-106843542D01*
X118213542Y-106984565D01*
X118213539Y-106984569D01*
X118102737Y-107150394D01*
X118102730Y-107150407D01*
X118026411Y-107334660D01*
X118026408Y-107334670D01*
X117987500Y-107530274D01*
X117987500Y-107530277D01*
X117987500Y-107729723D01*
X117987500Y-107729725D01*
X117987499Y-107729725D01*
X117472500Y-107729725D01*
X117472500Y-107729723D01*
X117472500Y-107530277D01*
X117472500Y-107530274D01*
X117433591Y-107334670D01*
X117433590Y-107334669D01*
X117433590Y-107334665D01*
X117433588Y-107334660D01*
X117357269Y-107150407D01*
X117357262Y-107150394D01*
X117246460Y-106984569D01*
X117246457Y-106984565D01*
X117105434Y-106843542D01*
X117105430Y-106843539D01*
X116939605Y-106732737D01*
X116939592Y-106732730D01*
X116755339Y-106656411D01*
X116755329Y-106656408D01*
X116559725Y-106617500D01*
X116559723Y-106617500D01*
X116360277Y-106617500D01*
X116360275Y-106617500D01*
X116164670Y-106656408D01*
X116164660Y-106656411D01*
X115980407Y-106732730D01*
X115980394Y-106732737D01*
X115814569Y-106843539D01*
X115814565Y-106843542D01*
X115673542Y-106984565D01*
X115673539Y-106984569D01*
X115562737Y-107150394D01*
X115562730Y-107150407D01*
X115486411Y-107334660D01*
X115486408Y-107334670D01*
X115447500Y-107530274D01*
X115447500Y-107530277D01*
X115447500Y-107729723D01*
X115447500Y-107729725D01*
X115447499Y-107729725D01*
X109050502Y-107729725D01*
X109050502Y-104990678D01*
X115198000Y-104990678D01*
X115198000Y-105189321D01*
X115229075Y-105385520D01*
X115229075Y-105385523D01*
X115290457Y-105574437D01*
X115380641Y-105751432D01*
X115407730Y-105788715D01*
X115407731Y-105788716D01*
X115970504Y-105225942D01*
X115986619Y-105286081D01*
X116053498Y-105401920D01*
X116148080Y-105496502D01*
X116263919Y-105563381D01*
X116324057Y-105579494D01*
X115761283Y-106142268D01*
X115761283Y-106142269D01*
X115798567Y-106169358D01*
X115975562Y-106259542D01*
X116164477Y-106320924D01*
X116360679Y-106352000D01*
X116559321Y-106352000D01*
X116755520Y-106320924D01*
X116755523Y-106320924D01*
X116944437Y-106259542D01*
X117121425Y-106169362D01*
X117158716Y-106142268D01*
X116595942Y-105579494D01*
X116656081Y-105563381D01*
X116771920Y-105496502D01*
X116866502Y-105401920D01*
X116933381Y-105286081D01*
X116949495Y-105225942D01*
X117512268Y-105788715D01*
X117539362Y-105751425D01*
X117619515Y-105594117D01*
X117667489Y-105543321D01*
X117735310Y-105526526D01*
X117801445Y-105549063D01*
X117840485Y-105594117D01*
X117920641Y-105751432D01*
X117947730Y-105788715D01*
X117947731Y-105788716D01*
X118510504Y-105225942D01*
X118526619Y-105286081D01*
X118593498Y-105401920D01*
X118688080Y-105496502D01*
X118803919Y-105563381D01*
X118864057Y-105579494D01*
X118301283Y-106142268D01*
X118301283Y-106142269D01*
X118338567Y-106169358D01*
X118515562Y-106259542D01*
X118704477Y-106320924D01*
X118900679Y-106352000D01*
X119099321Y-106352000D01*
X119295520Y-106320924D01*
X119295523Y-106320924D01*
X119484437Y-106259542D01*
X119661425Y-106169362D01*
X119698716Y-106142268D01*
X119135942Y-105579494D01*
X119196081Y-105563381D01*
X119311920Y-105496502D01*
X119406502Y-105401920D01*
X119473381Y-105286081D01*
X119489495Y-105225942D01*
X120052268Y-105788715D01*
X120079362Y-105751425D01*
X120169542Y-105574437D01*
X120230924Y-105385523D01*
X120230924Y-105385520D01*
X120262000Y-105189321D01*
X120262000Y-104990678D01*
X120230924Y-104794479D01*
X120230924Y-104794476D01*
X120169542Y-104605562D01*
X120079358Y-104428567D01*
X120052268Y-104391283D01*
X119489494Y-104954057D01*
X119473381Y-104893919D01*
X119406502Y-104778080D01*
X119311920Y-104683498D01*
X119196081Y-104616619D01*
X119135942Y-104600504D01*
X119698716Y-104037731D01*
X119698715Y-104037730D01*
X119661432Y-104010641D01*
X119484437Y-103920457D01*
X119295522Y-103859075D01*
X119099321Y-103828000D01*
X118900679Y-103828000D01*
X118704479Y-103859075D01*
X118704476Y-103859075D01*
X118515562Y-103920457D01*
X118338564Y-104010643D01*
X118301283Y-104037729D01*
X118301282Y-104037730D01*
X118864058Y-104600504D01*
X118803919Y-104616619D01*
X118688080Y-104683498D01*
X118593498Y-104778080D01*
X118526619Y-104893919D01*
X118510504Y-104954057D01*
X117947730Y-104391282D01*
X117947729Y-104391283D01*
X117920643Y-104428564D01*
X117840485Y-104585882D01*
X117792510Y-104636678D01*
X117724689Y-104653473D01*
X117658554Y-104630935D01*
X117619515Y-104585882D01*
X117539358Y-104428567D01*
X117512268Y-104391283D01*
X116949494Y-104954057D01*
X116933381Y-104893919D01*
X116866502Y-104778080D01*
X116771920Y-104683498D01*
X116656081Y-104616619D01*
X116595942Y-104600504D01*
X117158716Y-104037731D01*
X117158715Y-104037730D01*
X117121432Y-104010641D01*
X116944437Y-103920457D01*
X116755522Y-103859075D01*
X116559321Y-103828000D01*
X116360679Y-103828000D01*
X116164479Y-103859075D01*
X116164476Y-103859075D01*
X115975562Y-103920457D01*
X115798564Y-104010643D01*
X115761283Y-104037729D01*
X115761282Y-104037730D01*
X116324058Y-104600504D01*
X116263919Y-104616619D01*
X116148080Y-104683498D01*
X116053498Y-104778080D01*
X115986619Y-104893919D01*
X115970504Y-104954057D01*
X115407730Y-104391282D01*
X115407729Y-104391283D01*
X115380643Y-104428564D01*
X115290457Y-104605562D01*
X115229075Y-104794476D01*
X115229075Y-104794479D01*
X115198000Y-104990678D01*
X109050502Y-104990678D01*
X109050501Y-84509725D01*
X115447499Y-84509725D01*
X115486408Y-84705329D01*
X115486411Y-84705339D01*
X115562730Y-84889592D01*
X115562737Y-84889605D01*
X115673539Y-85055430D01*
X115673542Y-85055434D01*
X115814565Y-85196457D01*
X115814569Y-85196460D01*
X115980394Y-85307262D01*
X115980407Y-85307269D01*
X116164660Y-85383588D01*
X116164665Y-85383590D01*
X116164669Y-85383590D01*
X116164670Y-85383591D01*
X116360274Y-85422500D01*
X116360277Y-85422500D01*
X116559725Y-85422500D01*
X116691324Y-85396322D01*
X116755335Y-85383590D01*
X116939599Y-85307266D01*
X117105431Y-85196460D01*
X117246460Y-85055431D01*
X117357266Y-84889599D01*
X117433590Y-84705335D01*
X117472500Y-84509725D01*
X117987499Y-84509725D01*
X118026408Y-84705329D01*
X118026411Y-84705339D01*
X118102730Y-84889592D01*
X118102737Y-84889605D01*
X118213539Y-85055430D01*
X118213542Y-85055434D01*
X118354565Y-85196457D01*
X118354569Y-85196460D01*
X118520394Y-85307262D01*
X118520407Y-85307269D01*
X118704660Y-85383588D01*
X118704665Y-85383590D01*
X118704669Y-85383590D01*
X118704670Y-85383591D01*
X118900274Y-85422500D01*
X118900277Y-85422500D01*
X119099725Y-85422500D01*
X119231324Y-85396322D01*
X119295335Y-85383590D01*
X119479599Y-85307266D01*
X119645431Y-85196460D01*
X119786460Y-85055431D01*
X119897266Y-84889599D01*
X119973590Y-84705335D01*
X120012500Y-84509723D01*
X120012500Y-84310277D01*
X120012500Y-84310274D01*
X119973591Y-84114670D01*
X119973590Y-84114669D01*
X119973590Y-84114665D01*
X119954030Y-84067442D01*
X119897269Y-83930407D01*
X119897262Y-83930394D01*
X119786460Y-83764569D01*
X119786457Y-83764565D01*
X119645434Y-83623542D01*
X119645430Y-83623539D01*
X119479605Y-83512737D01*
X119479592Y-83512730D01*
X119295339Y-83436411D01*
X119295329Y-83436408D01*
X119099725Y-83397500D01*
X119099723Y-83397500D01*
X118900277Y-83397500D01*
X118900275Y-83397500D01*
X118704670Y-83436408D01*
X118704660Y-83436411D01*
X118520407Y-83512730D01*
X118520394Y-83512737D01*
X118354569Y-83623539D01*
X118354565Y-83623542D01*
X118213542Y-83764565D01*
X118213539Y-83764569D01*
X118102737Y-83930394D01*
X118102730Y-83930407D01*
X118026411Y-84114660D01*
X118026408Y-84114670D01*
X117987500Y-84310274D01*
X117987500Y-84310277D01*
X117987500Y-84509723D01*
X117987500Y-84509725D01*
X117987499Y-84509725D01*
X117472500Y-84509725D01*
X117472500Y-84509723D01*
X117472500Y-84310277D01*
X117472500Y-84310274D01*
X117433591Y-84114670D01*
X117433590Y-84114669D01*
X117433590Y-84114665D01*
X117414030Y-84067442D01*
X117357269Y-83930407D01*
X117357262Y-83930394D01*
X117246460Y-83764569D01*
X117246457Y-83764565D01*
X117105434Y-83623542D01*
X117105430Y-83623539D01*
X116939605Y-83512737D01*
X116939592Y-83512730D01*
X116755339Y-83436411D01*
X116755329Y-83436408D01*
X116559725Y-83397500D01*
X116559723Y-83397500D01*
X116360277Y-83397500D01*
X116360275Y-83397500D01*
X116164670Y-83436408D01*
X116164660Y-83436411D01*
X115980407Y-83512730D01*
X115980394Y-83512737D01*
X115814569Y-83623539D01*
X115814565Y-83623542D01*
X115673542Y-83764565D01*
X115673539Y-83764569D01*
X115562737Y-83930394D01*
X115562730Y-83930407D01*
X115486411Y-84114660D01*
X115486408Y-84114670D01*
X115447500Y-84310274D01*
X115447500Y-84310277D01*
X115447500Y-84509723D01*
X115447500Y-84509725D01*
X115447499Y-84509725D01*
X109050501Y-84509725D01*
X109050501Y-81969725D01*
X115447499Y-81969725D01*
X115486408Y-82165329D01*
X115486411Y-82165339D01*
X115562730Y-82349592D01*
X115562737Y-82349605D01*
X115673539Y-82515430D01*
X115673542Y-82515434D01*
X115814565Y-82656457D01*
X115814569Y-82656460D01*
X115980394Y-82767262D01*
X115980407Y-82767269D01*
X116164660Y-82843588D01*
X116164665Y-82843590D01*
X116164669Y-82843590D01*
X116164670Y-82843591D01*
X116360274Y-82882500D01*
X116360277Y-82882500D01*
X116559725Y-82882500D01*
X116691324Y-82856322D01*
X116755335Y-82843590D01*
X116939599Y-82767266D01*
X117105431Y-82656460D01*
X117246460Y-82515431D01*
X117357266Y-82349599D01*
X117433590Y-82165335D01*
X117472500Y-81969725D01*
X117987499Y-81969725D01*
X118026408Y-82165329D01*
X118026411Y-82165339D01*
X118102730Y-82349592D01*
X118102737Y-82349605D01*
X118213539Y-82515430D01*
X118213542Y-82515434D01*
X118354565Y-82656457D01*
X118354569Y-82656460D01*
X118520394Y-82767262D01*
X118520407Y-82767269D01*
X118704660Y-82843588D01*
X118704665Y-82843590D01*
X118704669Y-82843590D01*
X118704670Y-82843591D01*
X118900274Y-82882500D01*
X118900277Y-82882500D01*
X119099725Y-82882500D01*
X119231324Y-82856322D01*
X119295335Y-82843590D01*
X119479599Y-82767266D01*
X119645431Y-82656460D01*
X119786460Y-82515431D01*
X119897266Y-82349599D01*
X119973590Y-82165335D01*
X120012500Y-81969723D01*
X120012500Y-81770277D01*
X120012500Y-81770274D01*
X119973591Y-81574670D01*
X119973590Y-81574669D01*
X119973590Y-81574665D01*
X119903751Y-81406057D01*
X119897269Y-81390407D01*
X119897262Y-81390394D01*
X119786460Y-81224569D01*
X119786457Y-81224565D01*
X119645434Y-81083542D01*
X119645430Y-81083539D01*
X119479605Y-80972737D01*
X119479592Y-80972730D01*
X119295339Y-80896411D01*
X119295329Y-80896408D01*
X119099725Y-80857500D01*
X119099723Y-80857500D01*
X118900277Y-80857500D01*
X118900275Y-80857500D01*
X118704670Y-80896408D01*
X118704660Y-80896411D01*
X118520407Y-80972730D01*
X118520394Y-80972737D01*
X118354569Y-81083539D01*
X118354565Y-81083542D01*
X118213542Y-81224565D01*
X118213539Y-81224569D01*
X118102737Y-81390394D01*
X118102730Y-81390407D01*
X118026411Y-81574660D01*
X118026408Y-81574670D01*
X117987500Y-81770274D01*
X117987500Y-81770277D01*
X117987500Y-81969723D01*
X117987500Y-81969725D01*
X117987499Y-81969725D01*
X117472500Y-81969725D01*
X117472500Y-81969723D01*
X117472500Y-81770277D01*
X117472500Y-81770274D01*
X117433591Y-81574670D01*
X117433590Y-81574669D01*
X117433590Y-81574665D01*
X117363751Y-81406057D01*
X117357269Y-81390407D01*
X117357262Y-81390394D01*
X117246460Y-81224569D01*
X117246457Y-81224565D01*
X117105434Y-81083542D01*
X117105430Y-81083539D01*
X116939605Y-80972737D01*
X116939592Y-80972730D01*
X116755339Y-80896411D01*
X116755329Y-80896408D01*
X116559725Y-80857500D01*
X116559723Y-80857500D01*
X116360277Y-80857500D01*
X116360275Y-80857500D01*
X116164670Y-80896408D01*
X116164660Y-80896411D01*
X115980407Y-80972730D01*
X115980394Y-80972737D01*
X115814569Y-81083539D01*
X115814565Y-81083542D01*
X115673542Y-81224565D01*
X115673539Y-81224569D01*
X115562737Y-81390394D01*
X115562730Y-81390407D01*
X115486411Y-81574660D01*
X115486408Y-81574670D01*
X115447500Y-81770274D01*
X115447500Y-81770277D01*
X115447500Y-81969723D01*
X115447500Y-81969725D01*
X115447499Y-81969725D01*
X109050501Y-81969725D01*
X109050500Y-74150678D01*
X115198000Y-74150678D01*
X115198000Y-74349321D01*
X115229075Y-74545520D01*
X115229075Y-74545523D01*
X115290457Y-74734437D01*
X115380641Y-74911432D01*
X115407730Y-74948715D01*
X115407731Y-74948716D01*
X115970504Y-74385942D01*
X115986619Y-74446081D01*
X116053498Y-74561920D01*
X116148080Y-74656502D01*
X116263919Y-74723381D01*
X116324057Y-74739495D01*
X115761283Y-75302268D01*
X115761283Y-75302269D01*
X115798567Y-75329358D01*
X115975562Y-75419542D01*
X116164477Y-75480924D01*
X116360737Y-75512009D01*
X116366176Y-75514587D01*
X116372193Y-75514382D01*
X116397381Y-75529380D01*
X116423872Y-75541938D01*
X116427054Y-75547048D01*
X116432226Y-75550128D01*
X116445307Y-75576363D01*
X116460803Y-75601250D01*
X116460717Y-75607269D01*
X116463403Y-75612656D01*
X116460223Y-75641800D01*
X116459805Y-75671112D01*
X116456478Y-75676128D01*
X116455826Y-75682114D01*
X116437391Y-75704916D01*
X116421195Y-75729345D01*
X116414714Y-75732967D01*
X116411900Y-75736449D01*
X116383112Y-75750633D01*
X116380314Y-75752198D01*
X116379785Y-75752373D01*
X116243241Y-75796164D01*
X116235650Y-75800095D01*
X116226322Y-75803184D01*
X116222276Y-75803322D01*
X116211540Y-75807085D01*
X116164668Y-75816408D01*
X116164662Y-75816410D01*
X115980407Y-75892730D01*
X115980394Y-75892737D01*
X115814569Y-76003539D01*
X115814565Y-76003542D01*
X115673542Y-76144565D01*
X115673539Y-76144569D01*
X115562737Y-76310394D01*
X115562730Y-76310407D01*
X115486411Y-76494660D01*
X115486408Y-76494670D01*
X115447500Y-76690274D01*
X115447500Y-76690277D01*
X115447500Y-76889723D01*
X115447500Y-76889725D01*
X115447499Y-76889725D01*
X115486408Y-77085329D01*
X115486411Y-77085339D01*
X115562730Y-77269592D01*
X115562737Y-77269605D01*
X115673539Y-77435430D01*
X115673542Y-77435434D01*
X115814565Y-77576457D01*
X115814569Y-77576460D01*
X115980394Y-77687262D01*
X115980407Y-77687269D01*
X116164660Y-77763588D01*
X116164665Y-77763590D01*
X116164669Y-77763590D01*
X116164670Y-77763591D01*
X116360274Y-77802500D01*
X116360277Y-77802500D01*
X116559725Y-77802500D01*
X116691324Y-77776322D01*
X116755335Y-77763590D01*
X116939599Y-77687266D01*
X117105431Y-77576460D01*
X117246460Y-77435431D01*
X117357266Y-77269599D01*
X117433590Y-77085335D01*
X117442858Y-77038739D01*
X117452386Y-77012775D01*
X117451412Y-77012354D01*
X117453828Y-77006768D01*
X117453835Y-77006757D01*
X117798883Y-75930858D01*
X117805960Y-75919261D01*
X117808129Y-75909297D01*
X117829277Y-75881049D01*
X117848513Y-75861814D01*
X117909838Y-75828332D01*
X117936190Y-75825500D01*
X118233246Y-75825500D01*
X118300285Y-75845185D01*
X118346040Y-75897989D01*
X118355984Y-75967147D01*
X118326959Y-76030703D01*
X118320927Y-76037181D01*
X118213542Y-76144565D01*
X118213539Y-76144569D01*
X118102737Y-76310394D01*
X118102730Y-76310407D01*
X118026411Y-76494660D01*
X118026408Y-76494670D01*
X117987500Y-76690274D01*
X117987500Y-76690277D01*
X117987500Y-76889723D01*
X117987500Y-76889725D01*
X117987499Y-76889725D01*
X118026408Y-77085329D01*
X118026411Y-77085339D01*
X118102730Y-77269592D01*
X118102737Y-77269605D01*
X118213539Y-77435430D01*
X118213542Y-77435434D01*
X118240927Y-77462819D01*
X118274412Y-77524142D01*
X118269428Y-77593834D01*
X118227556Y-77649767D01*
X118162092Y-77674184D01*
X118153246Y-77674500D01*
X117747147Y-77674500D01*
X117664359Y-77696682D01*
X117590138Y-77739534D01*
X117368953Y-77960719D01*
X117319140Y-77991113D01*
X116243241Y-78336163D01*
X116238441Y-78338160D01*
X116238258Y-78337721D01*
X116211540Y-78347085D01*
X116164668Y-78356408D01*
X116164662Y-78356410D01*
X115980407Y-78432730D01*
X115980394Y-78432737D01*
X115814569Y-78543539D01*
X115814565Y-78543542D01*
X115673542Y-78684565D01*
X115673539Y-78684569D01*
X115562737Y-78850394D01*
X115562730Y-78850407D01*
X115486411Y-79034660D01*
X115486408Y-79034670D01*
X115447500Y-79230274D01*
X115447500Y-79230277D01*
X115447500Y-79429723D01*
X115447500Y-79429725D01*
X115447499Y-79429725D01*
X115486408Y-79625329D01*
X115486411Y-79625339D01*
X115562730Y-79809592D01*
X115562737Y-79809605D01*
X115673539Y-79975430D01*
X115673542Y-79975434D01*
X115814565Y-80116457D01*
X115814569Y-80116460D01*
X115980394Y-80227262D01*
X115980407Y-80227269D01*
X116081825Y-80269277D01*
X116164665Y-80303590D01*
X116164669Y-80303590D01*
X116164670Y-80303591D01*
X116360274Y-80342500D01*
X116360277Y-80342500D01*
X116559725Y-80342500D01*
X116691324Y-80316322D01*
X116755335Y-80303590D01*
X116939599Y-80227266D01*
X117105431Y-80116460D01*
X117246460Y-79975431D01*
X117357266Y-79809599D01*
X117433590Y-79625335D01*
X117442858Y-79578739D01*
X117452386Y-79552775D01*
X117451412Y-79552354D01*
X117453828Y-79546768D01*
X117453835Y-79546757D01*
X117798883Y-78470858D01*
X117805959Y-78459262D01*
X117808127Y-78449301D01*
X117829274Y-78421051D01*
X117888510Y-78361817D01*
X117949834Y-78328333D01*
X117976190Y-78325500D01*
X118273694Y-78325500D01*
X118340733Y-78345185D01*
X118386488Y-78397989D01*
X118396432Y-78467147D01*
X118367407Y-78530703D01*
X118358762Y-78539118D01*
X118358876Y-78539232D01*
X118213542Y-78684565D01*
X118213539Y-78684569D01*
X118102737Y-78850394D01*
X118102730Y-78850407D01*
X118026411Y-79034660D01*
X118026408Y-79034670D01*
X117987500Y-79230274D01*
X117987500Y-79230277D01*
X117987500Y-79429723D01*
X117987500Y-79429725D01*
X117987499Y-79429725D01*
X118026408Y-79625329D01*
X118026411Y-79625339D01*
X118102730Y-79809592D01*
X118102737Y-79809605D01*
X118213539Y-79975430D01*
X118213542Y-79975434D01*
X118354565Y-80116457D01*
X118354569Y-80116460D01*
X118520394Y-80227262D01*
X118520407Y-80227269D01*
X118621825Y-80269277D01*
X118704665Y-80303590D01*
X118704669Y-80303590D01*
X118704670Y-80303591D01*
X118900274Y-80342500D01*
X118900277Y-80342500D01*
X119099725Y-80342500D01*
X119231324Y-80316322D01*
X119295335Y-80303590D01*
X119479599Y-80227266D01*
X119645431Y-80116460D01*
X119786460Y-79975431D01*
X119897266Y-79809599D01*
X119973590Y-79625335D01*
X119992873Y-79528389D01*
X120002087Y-79502025D01*
X120011693Y-79433779D01*
X120012500Y-79429723D01*
X120012500Y-79429707D01*
X120012795Y-79426723D01*
X120013408Y-79421594D01*
X120017069Y-79395585D01*
X120167235Y-78328741D01*
X120196072Y-78265102D01*
X120202331Y-78258359D01*
X122295872Y-76164819D01*
X122357195Y-76131334D01*
X122383553Y-76128500D01*
X132270351Y-76128500D01*
X132337390Y-76148185D01*
X132383145Y-76200989D01*
X132393089Y-76270147D01*
X132364064Y-76333703D01*
X132306346Y-76371160D01*
X132299348Y-76373283D01*
X132286158Y-76377284D01*
X131972939Y-76507024D01*
X131972934Y-76507026D01*
X131673960Y-76666831D01*
X131673942Y-76666842D01*
X131392069Y-76855184D01*
X131392055Y-76855194D01*
X131129985Y-77070269D01*
X130890269Y-77309985D01*
X130675194Y-77572055D01*
X130675184Y-77572069D01*
X130486842Y-77853942D01*
X130486831Y-77853960D01*
X130327026Y-78152934D01*
X130327024Y-78152939D01*
X130197284Y-78466158D01*
X130098870Y-78790589D01*
X130032729Y-79123098D01*
X130013741Y-79315891D01*
X129999500Y-79460488D01*
X129999500Y-79799512D01*
X130001960Y-79824488D01*
X130032729Y-80136901D01*
X130098870Y-80469410D01*
X130197284Y-80793841D01*
X130327024Y-81107060D01*
X130327026Y-81107065D01*
X130486831Y-81406039D01*
X130486842Y-81406057D01*
X130675184Y-81687930D01*
X130675194Y-81687944D01*
X130890269Y-81950014D01*
X131129985Y-82189730D01*
X131129990Y-82189734D01*
X131129991Y-82189735D01*
X131392061Y-82404810D01*
X131673949Y-82593162D01*
X131673958Y-82593167D01*
X131673960Y-82593168D01*
X131972934Y-82752973D01*
X131972936Y-82752973D01*
X131972942Y-82752977D01*
X132286160Y-82882716D01*
X132610586Y-82981129D01*
X132943096Y-83047270D01*
X133280488Y-83080500D01*
X133280491Y-83080500D01*
X133619509Y-83080500D01*
X133619512Y-83080500D01*
X133956904Y-83047270D01*
X134289414Y-82981129D01*
X134613840Y-82882716D01*
X134927058Y-82752977D01*
X135226051Y-82593162D01*
X135507939Y-82404810D01*
X135770009Y-82189735D01*
X136009735Y-81950009D01*
X136224810Y-81687939D01*
X136413162Y-81406051D01*
X136572977Y-81107058D01*
X136702716Y-80793840D01*
X136801129Y-80469414D01*
X136867270Y-80136904D01*
X136900500Y-79799512D01*
X136900500Y-79460488D01*
X136867270Y-79123096D01*
X136801129Y-78790586D01*
X136702716Y-78466160D01*
X136572977Y-78152942D01*
X136413162Y-77853949D01*
X136224810Y-77572061D01*
X136009735Y-77309991D01*
X136009734Y-77309990D01*
X136009730Y-77309985D01*
X135770014Y-77070269D01*
X135507944Y-76855194D01*
X135507943Y-76855193D01*
X135507939Y-76855190D01*
X135226051Y-76666838D01*
X135226046Y-76666835D01*
X135226039Y-76666831D01*
X134927065Y-76507026D01*
X134927060Y-76507024D01*
X134911307Y-76500499D01*
X134828964Y-76466391D01*
X134613841Y-76377284D01*
X134604046Y-76374313D01*
X134593653Y-76371160D01*
X134535215Y-76332863D01*
X134506759Y-76269051D01*
X134517319Y-76199984D01*
X134563543Y-76147590D01*
X134629649Y-76128500D01*
X146398423Y-76128500D01*
X146401077Y-76129279D01*
X146403763Y-76128615D01*
X146434413Y-76139068D01*
X146465462Y-76148185D01*
X146468072Y-76150547D01*
X146469893Y-76151168D01*
X146493738Y-76173772D01*
X146495546Y-76175408D01*
X146584825Y-76288626D01*
X146586825Y-76290405D01*
X146591821Y-76296699D01*
X146592975Y-76299546D01*
X146594177Y-76301161D01*
X146594556Y-76300871D01*
X146599498Y-76307311D01*
X146599500Y-76307314D01*
X146692686Y-76400500D01*
X146806814Y-76466392D01*
X146934108Y-76500500D01*
X146934110Y-76500500D01*
X147065890Y-76500500D01*
X147065892Y-76500500D01*
X147193186Y-76466392D01*
X147307314Y-76400500D01*
X147400500Y-76307314D01*
X147466392Y-76193186D01*
X147500500Y-76065892D01*
X147500500Y-75934108D01*
X147466392Y-75806814D01*
X147400500Y-75692686D01*
X147307314Y-75599500D01*
X147250250Y-75566554D01*
X147193187Y-75533608D01*
X147121433Y-75514382D01*
X147065892Y-75499500D01*
X147065891Y-75499500D01*
X147063142Y-75499500D01*
X147055965Y-75499292D01*
X147050193Y-75498957D01*
X147050192Y-75498957D01*
X146953870Y-75493372D01*
X146904289Y-75490498D01*
X146879373Y-75486481D01*
X146845856Y-75477500D01*
X146845853Y-75477500D01*
X146680065Y-75477500D01*
X146613550Y-75473644D01*
X146606126Y-75473322D01*
X146605467Y-75473303D01*
X146598098Y-75473197D01*
X146576468Y-75477500D01*
X145874519Y-75477500D01*
X145807480Y-75457815D01*
X145761725Y-75405011D01*
X145751781Y-75335853D01*
X145767131Y-75291501D01*
X145809460Y-75218186D01*
X145843162Y-75092405D01*
X145879527Y-75032746D01*
X145942374Y-75002217D01*
X145962937Y-75000500D01*
X146065890Y-75000500D01*
X146065892Y-75000500D01*
X146193186Y-74966392D01*
X146307314Y-74900500D01*
X146400500Y-74807314D01*
X146466392Y-74693186D01*
X146500500Y-74565892D01*
X146500500Y-74434108D01*
X146466392Y-74306814D01*
X146400500Y-74192686D01*
X146307314Y-74099500D01*
X146233380Y-74056814D01*
X146193187Y-74033608D01*
X146127557Y-74016023D01*
X146065892Y-73999500D01*
X145934108Y-73999500D01*
X145934102Y-73999500D01*
X145872438Y-74016023D01*
X145866644Y-74017575D01*
X145847988Y-74020686D01*
X145830853Y-74027164D01*
X145824873Y-74028767D01*
X145824871Y-74028768D01*
X145806817Y-74033606D01*
X145806812Y-74033608D01*
X145802231Y-74036253D01*
X145784103Y-74044843D01*
X145465082Y-74165484D01*
X145421222Y-74173500D01*
X145081872Y-74173500D01*
X145066616Y-74174500D01*
X144951024Y-74174500D01*
X144868239Y-74196682D01*
X144868238Y-74196682D01*
X144795751Y-74238531D01*
X144795752Y-74238532D01*
X144794012Y-74239536D01*
X144712181Y-74321368D01*
X144650858Y-74354853D01*
X144581166Y-74349869D01*
X144525233Y-74307997D01*
X144500816Y-74242533D01*
X144500500Y-74233687D01*
X144500500Y-74184110D01*
X144500500Y-74184108D01*
X144466392Y-74056814D01*
X144400500Y-73942686D01*
X144307314Y-73849500D01*
X144215824Y-73796678D01*
X144193187Y-73783608D01*
X144129539Y-73766554D01*
X144065892Y-73749500D01*
X143934108Y-73749500D01*
X143934102Y-73749500D01*
X143870979Y-73766413D01*
X143870980Y-73766414D01*
X143865350Y-73767922D01*
X143847319Y-73770980D01*
X143831657Y-73776950D01*
X143825508Y-73778598D01*
X143825506Y-73778597D01*
X143806816Y-73783606D01*
X143806809Y-73783609D01*
X143801032Y-73786945D01*
X143783211Y-73795420D01*
X143465975Y-73916365D01*
X143421802Y-73924500D01*
X143207147Y-73924500D01*
X143124360Y-73946682D01*
X143105292Y-73957692D01*
X143105290Y-73957693D01*
X143050141Y-73989533D01*
X143050135Y-73989537D01*
X142651492Y-74388181D01*
X142590169Y-74421666D01*
X142563811Y-74424500D01*
X136324249Y-74424500D01*
X136257210Y-74404815D01*
X136211455Y-74352011D01*
X136201511Y-74282853D01*
X136230536Y-74219297D01*
X136289314Y-74181523D01*
X136292156Y-74180725D01*
X136546664Y-74112530D01*
X136546664Y-74112529D01*
X136546675Y-74112527D01*
X136900171Y-73983865D01*
X137241108Y-73824883D01*
X137566892Y-73636792D01*
X137875043Y-73421022D01*
X138163215Y-73179217D01*
X138429217Y-72913215D01*
X138671022Y-72625043D01*
X138886792Y-72316892D01*
X139074883Y-71991108D01*
X139233865Y-71650171D01*
X139362527Y-71296675D01*
X139459890Y-70933310D01*
X139525213Y-70562843D01*
X139558000Y-70188091D01*
X139558000Y-69811909D01*
X139525213Y-69437157D01*
X139459890Y-69066690D01*
X139362527Y-68703325D01*
X139233865Y-68349829D01*
X139074883Y-68008892D01*
X138997766Y-67875321D01*
X145149500Y-67875321D01*
X145149500Y-69624678D01*
X145164032Y-69697735D01*
X145164033Y-69697739D01*
X145164034Y-69697740D01*
X145219399Y-69780601D01*
X145266256Y-69811909D01*
X145302260Y-69835966D01*
X145302264Y-69835967D01*
X145375321Y-69850499D01*
X145375324Y-69850500D01*
X145375326Y-69850500D01*
X147124676Y-69850500D01*
X147124677Y-69850499D01*
X147197740Y-69835966D01*
X147280601Y-69780601D01*
X147335966Y-69697740D01*
X147350500Y-69624674D01*
X147350500Y-67875326D01*
X147350500Y-67875323D01*
X147350499Y-67875321D01*
X147335967Y-67802264D01*
X147335966Y-67802260D01*
X147328063Y-67790432D01*
X147280601Y-67719399D01*
X147197740Y-67664034D01*
X147197739Y-67664033D01*
X147197735Y-67664032D01*
X147124677Y-67649500D01*
X147124674Y-67649500D01*
X145375326Y-67649500D01*
X145375323Y-67649500D01*
X145302264Y-67664032D01*
X145302260Y-67664033D01*
X145219399Y-67719399D01*
X145164033Y-67802260D01*
X145164032Y-67802264D01*
X145149500Y-67875321D01*
X138997766Y-67875321D01*
X138886792Y-67683108D01*
X138671022Y-67374957D01*
X138671021Y-67374956D01*
X138671017Y-67374950D01*
X138429214Y-67086782D01*
X138163217Y-66820785D01*
X137875049Y-66578982D01*
X137566898Y-66363212D01*
X137566895Y-66363210D01*
X137566892Y-66363208D01*
X137470104Y-66307328D01*
X137241114Y-66175120D01*
X137241098Y-66175112D01*
X136900188Y-66016142D01*
X136900180Y-66016139D01*
X136900178Y-66016138D01*
X136900171Y-66016135D01*
X136546675Y-65887473D01*
X136546674Y-65887472D01*
X136546664Y-65887469D01*
X136183317Y-65790112D01*
X136183320Y-65790112D01*
X136183310Y-65790110D01*
X136183304Y-65790108D01*
X136183300Y-65790108D01*
X135812848Y-65724787D01*
X135438092Y-65692000D01*
X135438091Y-65692000D01*
X135061909Y-65692000D01*
X135061908Y-65692000D01*
X134687152Y-65724787D01*
X134687150Y-65724787D01*
X134316699Y-65790108D01*
X134316682Y-65790112D01*
X133953335Y-65887469D01*
X133779981Y-65950565D01*
X133599829Y-66016135D01*
X133599825Y-66016136D01*
X133599819Y-66016139D01*
X133599811Y-66016142D01*
X133258901Y-66175112D01*
X133258885Y-66175120D01*
X132933116Y-66363203D01*
X132933101Y-66363212D01*
X132624950Y-66578982D01*
X132336782Y-66820785D01*
X132070785Y-67086782D01*
X131828982Y-67374950D01*
X131613212Y-67683101D01*
X131613203Y-67683116D01*
X131425120Y-68008885D01*
X131425112Y-68008901D01*
X131266142Y-68349811D01*
X131266139Y-68349819D01*
X131137469Y-68703335D01*
X131040112Y-69066682D01*
X131040108Y-69066699D01*
X130974787Y-69437150D01*
X130974787Y-69437152D01*
X130942000Y-69811907D01*
X130942000Y-70188092D01*
X130974787Y-70562847D01*
X130974787Y-70562849D01*
X131040108Y-70933300D01*
X131040112Y-70933317D01*
X131137469Y-71296664D01*
X131137472Y-71296674D01*
X131137473Y-71296675D01*
X131266135Y-71650171D01*
X131266138Y-71650178D01*
X131266139Y-71650180D01*
X131266142Y-71650188D01*
X131425112Y-71991098D01*
X131425120Y-71991114D01*
X131613203Y-72316883D01*
X131613212Y-72316898D01*
X131828982Y-72625049D01*
X131956545Y-72777072D01*
X132070783Y-72913215D01*
X132336785Y-73179217D01*
X132439332Y-73265264D01*
X132624950Y-73421017D01*
X132624956Y-73421021D01*
X132624957Y-73421022D01*
X132933108Y-73636792D01*
X133258892Y-73824883D01*
X133372537Y-73877877D01*
X133599811Y-73983857D01*
X133599815Y-73983858D01*
X133599829Y-73983865D01*
X133953325Y-74112527D01*
X133953331Y-74112528D01*
X133953335Y-74112530D01*
X134207844Y-74180725D01*
X134267505Y-74217090D01*
X134298034Y-74279937D01*
X134289739Y-74349312D01*
X134245254Y-74403190D01*
X134178702Y-74424465D01*
X134175751Y-74424500D01*
X121718347Y-74424500D01*
X121635559Y-74446682D01*
X121561338Y-74489535D01*
X121561335Y-74489537D01*
X120912692Y-75138181D01*
X120851369Y-75171666D01*
X120825011Y-75174500D01*
X120131593Y-75174500D01*
X120064554Y-75154815D01*
X120018799Y-75102011D01*
X120008855Y-75032853D01*
X120031275Y-74977615D01*
X120079356Y-74911435D01*
X120169542Y-74734437D01*
X120230924Y-74545523D01*
X120230924Y-74545520D01*
X120262000Y-74349321D01*
X120262000Y-74150678D01*
X120230924Y-73954479D01*
X120230924Y-73954476D01*
X120169542Y-73765562D01*
X120079358Y-73588567D01*
X120052268Y-73551283D01*
X119489494Y-74114056D01*
X119473381Y-74053919D01*
X119406502Y-73938080D01*
X119311920Y-73843498D01*
X119196081Y-73776619D01*
X119135942Y-73760504D01*
X119698716Y-73197731D01*
X119698715Y-73197730D01*
X119661432Y-73170641D01*
X119484437Y-73080457D01*
X119295522Y-73019075D01*
X119099321Y-72988000D01*
X118900679Y-72988000D01*
X118704479Y-73019075D01*
X118704476Y-73019075D01*
X118515562Y-73080457D01*
X118338564Y-73170643D01*
X118301283Y-73197729D01*
X118301282Y-73197730D01*
X118864058Y-73760504D01*
X118803919Y-73776619D01*
X118688080Y-73843498D01*
X118593498Y-73938080D01*
X118526619Y-74053919D01*
X118510505Y-74114057D01*
X117947730Y-73551282D01*
X117947729Y-73551283D01*
X117920643Y-73588564D01*
X117840485Y-73745882D01*
X117792510Y-73796678D01*
X117724689Y-73813473D01*
X117658554Y-73790935D01*
X117619515Y-73745882D01*
X117539358Y-73588567D01*
X117512268Y-73551283D01*
X116949495Y-74114057D01*
X116933381Y-74053919D01*
X116866502Y-73938080D01*
X116771920Y-73843498D01*
X116656081Y-73776619D01*
X116595942Y-73760504D01*
X117158716Y-73197731D01*
X117158715Y-73197730D01*
X117121432Y-73170641D01*
X116944437Y-73080457D01*
X116755522Y-73019075D01*
X116559321Y-72988000D01*
X116360679Y-72988000D01*
X116164479Y-73019075D01*
X116164476Y-73019075D01*
X115975562Y-73080457D01*
X115798564Y-73170643D01*
X115761283Y-73197729D01*
X115761282Y-73197730D01*
X116324058Y-73760504D01*
X116263919Y-73776619D01*
X116148080Y-73843498D01*
X116053498Y-73938080D01*
X115986619Y-74053919D01*
X115970504Y-74114057D01*
X115407730Y-73551282D01*
X115407729Y-73551283D01*
X115380643Y-73588564D01*
X115290457Y-73765562D01*
X115229075Y-73954476D01*
X115229075Y-73954479D01*
X115198000Y-74150678D01*
X109050500Y-74150678D01*
X109050500Y-63003244D01*
X109050670Y-62996755D01*
X109067687Y-62672047D01*
X109069044Y-62659139D01*
X109119401Y-62341201D01*
X109122094Y-62328525D01*
X109205416Y-62017564D01*
X109209425Y-62005229D01*
X109324784Y-61704707D01*
X109330059Y-61692860D01*
X109330060Y-61692859D01*
X109364472Y-61625321D01*
X145149500Y-61625321D01*
X145149500Y-63374678D01*
X145164032Y-63447735D01*
X145164033Y-63447739D01*
X145164034Y-63447740D01*
X145219399Y-63530601D01*
X145302260Y-63585966D01*
X145302264Y-63585967D01*
X145375321Y-63600499D01*
X145375324Y-63600500D01*
X145375326Y-63600500D01*
X145812048Y-63600500D01*
X145858304Y-63609450D01*
X147457222Y-64252314D01*
X147498645Y-64279682D01*
X149338181Y-66119218D01*
X149371666Y-66180541D01*
X149374500Y-66206899D01*
X149374500Y-75885976D01*
X149374500Y-75984848D01*
X149379327Y-76002861D01*
X149400090Y-76080350D01*
X149432405Y-76136321D01*
X149449526Y-76165975D01*
X149449528Y-76165977D01*
X154508181Y-81224630D01*
X154541666Y-81285953D01*
X154544500Y-81312311D01*
X154544500Y-82411416D01*
X154538740Y-82448769D01*
X154386049Y-82932104D01*
X154382267Y-82945299D01*
X154381951Y-82946523D01*
X154378942Y-82959617D01*
X154378153Y-82966484D01*
X154377606Y-82966421D01*
X154374729Y-82988008D01*
X154369500Y-83007523D01*
X154369500Y-83007525D01*
X154369500Y-83152475D01*
X154384228Y-83207439D01*
X154407017Y-83292488D01*
X154479488Y-83418011D01*
X154479490Y-83418013D01*
X154479491Y-83418015D01*
X154581985Y-83520509D01*
X154581986Y-83520510D01*
X154581988Y-83520511D01*
X154707511Y-83592982D01*
X154707512Y-83592982D01*
X154707515Y-83592984D01*
X154847525Y-83630500D01*
X154847528Y-83630500D01*
X154992472Y-83630500D01*
X154992475Y-83630500D01*
X155132485Y-83592984D01*
X155258015Y-83520509D01*
X155360509Y-83418015D01*
X155432984Y-83292485D01*
X155470500Y-83152475D01*
X155470500Y-83007525D01*
X155458941Y-82964390D01*
X155455463Y-82945877D01*
X155453947Y-82932096D01*
X155453946Y-82932093D01*
X155453946Y-82932091D01*
X155301260Y-82448770D01*
X155295500Y-82411417D01*
X155295500Y-81055979D01*
X155295500Y-81055977D01*
X155269910Y-80960474D01*
X155220475Y-80874850D01*
X155150562Y-80804937D01*
X153806113Y-79460488D01*
X160749500Y-79460488D01*
X160749500Y-79799512D01*
X160751960Y-79824488D01*
X160782729Y-80136901D01*
X160848870Y-80469410D01*
X160947284Y-80793841D01*
X161077024Y-81107060D01*
X161077026Y-81107065D01*
X161236831Y-81406039D01*
X161236842Y-81406057D01*
X161425184Y-81687930D01*
X161425194Y-81687944D01*
X161640269Y-81950014D01*
X161879985Y-82189730D01*
X161879990Y-82189734D01*
X161879991Y-82189735D01*
X162142061Y-82404810D01*
X162423949Y-82593162D01*
X162423958Y-82593167D01*
X162423960Y-82593168D01*
X162722934Y-82752973D01*
X162722936Y-82752973D01*
X162722942Y-82752977D01*
X163036160Y-82882716D01*
X163360586Y-82981129D01*
X163693096Y-83047270D01*
X164030488Y-83080500D01*
X164030491Y-83080500D01*
X164369509Y-83080500D01*
X164369512Y-83080500D01*
X164706904Y-83047270D01*
X165039414Y-82981129D01*
X165363840Y-82882716D01*
X165677058Y-82752977D01*
X165976051Y-82593162D01*
X166257939Y-82404810D01*
X166520009Y-82189735D01*
X166759735Y-81950009D01*
X166974810Y-81687939D01*
X167163162Y-81406051D01*
X167322977Y-81107058D01*
X167452716Y-80793840D01*
X167551129Y-80469414D01*
X167617270Y-80136904D01*
X167650500Y-79799512D01*
X167650500Y-79460488D01*
X167617270Y-79123096D01*
X167551129Y-78790586D01*
X167452716Y-78466160D01*
X167322977Y-78152942D01*
X167163162Y-77853949D01*
X166974810Y-77572061D01*
X166759735Y-77309991D01*
X166759734Y-77309990D01*
X166759730Y-77309985D01*
X166520014Y-77070269D01*
X166257944Y-76855194D01*
X166257943Y-76855193D01*
X166257939Y-76855190D01*
X165976051Y-76666838D01*
X165976046Y-76666835D01*
X165976039Y-76666831D01*
X165677065Y-76507026D01*
X165677060Y-76507024D01*
X165661307Y-76500499D01*
X165578964Y-76466391D01*
X165363841Y-76377284D01*
X165133185Y-76307316D01*
X165039414Y-76278871D01*
X165039411Y-76278870D01*
X165039410Y-76278870D01*
X164706901Y-76212729D01*
X164469199Y-76189318D01*
X164369512Y-76179500D01*
X164030488Y-76179500D01*
X163939738Y-76188437D01*
X163693098Y-76212729D01*
X163360589Y-76278870D01*
X163036158Y-76377284D01*
X162722939Y-76507024D01*
X162722934Y-76507026D01*
X162423960Y-76666831D01*
X162423942Y-76666842D01*
X162142069Y-76855184D01*
X162142055Y-76855194D01*
X161879985Y-77070269D01*
X161640269Y-77309985D01*
X161425194Y-77572055D01*
X161425184Y-77572069D01*
X161236842Y-77853942D01*
X161236831Y-77853960D01*
X161077026Y-78152934D01*
X161077024Y-78152939D01*
X160947284Y-78466158D01*
X160848870Y-78790589D01*
X160782729Y-79123098D01*
X160763741Y-79315891D01*
X160749500Y-79460488D01*
X153806113Y-79460488D01*
X150161819Y-75816194D01*
X150128334Y-75754871D01*
X150125500Y-75728513D01*
X150125500Y-69948328D01*
X150145185Y-69881289D01*
X150197989Y-69835534D01*
X150267147Y-69825590D01*
X150296960Y-69833770D01*
X150302255Y-69835963D01*
X150302260Y-69835966D01*
X150302264Y-69835966D01*
X150302265Y-69835967D01*
X150375321Y-69850499D01*
X150375324Y-69850500D01*
X150375326Y-69850500D01*
X152124676Y-69850500D01*
X152124677Y-69850499D01*
X152197740Y-69835966D01*
X152250055Y-69801011D01*
X157692500Y-69801011D01*
X157692500Y-70198988D01*
X157727185Y-70595442D01*
X157796291Y-70987357D01*
X157796294Y-70987370D01*
X157899290Y-71371761D01*
X158035412Y-71745750D01*
X158203592Y-72106415D01*
X158203600Y-72106430D01*
X158402576Y-72451067D01*
X158402585Y-72451082D01*
X158630846Y-72777072D01*
X158853739Y-73042705D01*
X160168314Y-71728130D01*
X160229860Y-71805307D01*
X160444693Y-72020140D01*
X160521867Y-72081684D01*
X159207292Y-73396259D01*
X159207293Y-73396260D01*
X159472920Y-73619148D01*
X159798917Y-73847414D01*
X159798932Y-73847423D01*
X160143569Y-74046399D01*
X160143584Y-74046407D01*
X160504249Y-74214587D01*
X160878238Y-74350709D01*
X161262629Y-74453705D01*
X161262642Y-74453708D01*
X161654557Y-74522814D01*
X162051011Y-74557499D01*
X162051014Y-74557500D01*
X162448986Y-74557500D01*
X162448988Y-74557499D01*
X162845442Y-74522814D01*
X163237357Y-74453708D01*
X163237370Y-74453705D01*
X163621761Y-74350709D01*
X163995750Y-74214587D01*
X164356415Y-74046407D01*
X164356430Y-74046399D01*
X164701067Y-73847423D01*
X164701082Y-73847414D01*
X165027079Y-73619148D01*
X165292705Y-73396260D01*
X165292706Y-73396259D01*
X163978131Y-72081685D01*
X164055307Y-72020140D01*
X164270140Y-71805307D01*
X164331685Y-71728131D01*
X165646259Y-73042706D01*
X165646260Y-73042705D01*
X165869148Y-72777079D01*
X166097414Y-72451082D01*
X166097423Y-72451067D01*
X166296399Y-72106430D01*
X166296407Y-72106415D01*
X166464587Y-71745750D01*
X166600709Y-71371761D01*
X166703705Y-70987370D01*
X166703708Y-70987357D01*
X166772814Y-70595442D01*
X166807499Y-70198988D01*
X166807500Y-70198986D01*
X166807500Y-69801014D01*
X166807499Y-69801011D01*
X166772814Y-69404557D01*
X166703708Y-69012642D01*
X166703705Y-69012629D01*
X166600709Y-68628238D01*
X166464587Y-68254249D01*
X166296407Y-67893584D01*
X166296399Y-67893569D01*
X166097423Y-67548932D01*
X166097414Y-67548917D01*
X165869148Y-67222920D01*
X165646260Y-66957293D01*
X165646259Y-66957292D01*
X164331684Y-68271867D01*
X164270140Y-68194693D01*
X164055307Y-67979860D01*
X163978131Y-67918314D01*
X165292706Y-66603739D01*
X165027072Y-66380846D01*
X164701082Y-66152585D01*
X164701067Y-66152576D01*
X164356430Y-65953600D01*
X164356415Y-65953592D01*
X163995750Y-65785412D01*
X163621761Y-65649290D01*
X163237370Y-65546294D01*
X163237357Y-65546291D01*
X162845442Y-65477185D01*
X162448988Y-65442500D01*
X162051011Y-65442500D01*
X161654557Y-65477185D01*
X161262642Y-65546291D01*
X161262629Y-65546294D01*
X160878238Y-65649290D01*
X160504249Y-65785412D01*
X160143584Y-65953592D01*
X160143569Y-65953600D01*
X159798932Y-66152576D01*
X159798917Y-66152585D01*
X159472927Y-66380846D01*
X159207293Y-66603739D01*
X160521868Y-67918314D01*
X160444693Y-67979860D01*
X160229860Y-68194693D01*
X160168314Y-68271868D01*
X158853739Y-66957293D01*
X158630846Y-67222927D01*
X158402585Y-67548917D01*
X158402576Y-67548932D01*
X158203600Y-67893569D01*
X158203592Y-67893584D01*
X158035412Y-68254249D01*
X157899290Y-68628238D01*
X157796294Y-69012629D01*
X157796291Y-69012642D01*
X157727185Y-69404557D01*
X157692500Y-69801011D01*
X152250055Y-69801011D01*
X152280601Y-69780601D01*
X152335966Y-69697740D01*
X152350500Y-69624674D01*
X152350500Y-67875326D01*
X152350500Y-67875323D01*
X152350499Y-67875321D01*
X152335967Y-67802264D01*
X152335966Y-67802260D01*
X152328063Y-67790432D01*
X152280601Y-67719399D01*
X152197740Y-67664034D01*
X152197739Y-67664033D01*
X152197735Y-67664032D01*
X152124677Y-67649500D01*
X152124674Y-67649500D01*
X150375326Y-67649500D01*
X150375323Y-67649500D01*
X150302264Y-67664032D01*
X150296954Y-67666232D01*
X150227485Y-67673701D01*
X150165005Y-67642427D01*
X150129352Y-67582338D01*
X150125500Y-67551671D01*
X150125500Y-65950567D01*
X150125500Y-65950565D01*
X150099910Y-65855062D01*
X150050475Y-65769438D01*
X149980562Y-65699525D01*
X148029682Y-63748645D01*
X148002314Y-63707221D01*
X148002300Y-63707187D01*
X147719273Y-63003246D01*
X147615400Y-62744895D01*
X147359451Y-62108304D01*
X147350500Y-62062047D01*
X147350500Y-61625324D01*
X147350047Y-61623048D01*
X147350047Y-61623045D01*
X147350046Y-61623042D01*
X147345891Y-61602155D01*
X149900000Y-61602155D01*
X149900000Y-62250000D01*
X150816988Y-62250000D01*
X150784075Y-62307007D01*
X150750000Y-62434174D01*
X150750000Y-62565826D01*
X150784075Y-62692993D01*
X150816988Y-62750000D01*
X149900000Y-62750000D01*
X149900000Y-63397844D01*
X149906401Y-63457372D01*
X149906403Y-63457379D01*
X149956645Y-63592086D01*
X149956649Y-63592093D01*
X150042809Y-63707187D01*
X150042812Y-63707190D01*
X150157906Y-63793350D01*
X150157913Y-63793354D01*
X150292620Y-63843596D01*
X150292627Y-63843598D01*
X150352155Y-63849999D01*
X150352172Y-63850000D01*
X151000000Y-63850000D01*
X151000000Y-62933012D01*
X151057007Y-62965925D01*
X151184174Y-63000000D01*
X151315826Y-63000000D01*
X151442993Y-62965925D01*
X151500000Y-62933012D01*
X151500000Y-63850000D01*
X152147828Y-63850000D01*
X152147844Y-63849999D01*
X152207372Y-63843598D01*
X152207379Y-63843596D01*
X152342086Y-63793354D01*
X152342093Y-63793350D01*
X152457187Y-63707190D01*
X152457190Y-63707187D01*
X152543350Y-63592093D01*
X152543354Y-63592086D01*
X152593596Y-63457379D01*
X152593598Y-63457372D01*
X152599999Y-63397844D01*
X152600000Y-63397827D01*
X152600000Y-62750000D01*
X151683012Y-62750000D01*
X151715925Y-62692993D01*
X151750000Y-62565826D01*
X151750000Y-62434174D01*
X151715925Y-62307007D01*
X151683012Y-62250000D01*
X152600000Y-62250000D01*
X152600000Y-61602172D01*
X152599999Y-61602155D01*
X152593598Y-61542627D01*
X152593596Y-61542620D01*
X152543354Y-61407913D01*
X152543350Y-61407906D01*
X152457190Y-61292812D01*
X152457187Y-61292809D01*
X152342093Y-61206649D01*
X152342086Y-61206645D01*
X152207379Y-61156403D01*
X152207372Y-61156401D01*
X152147844Y-61150000D01*
X151500000Y-61150000D01*
X151500000Y-62066988D01*
X151442993Y-62034075D01*
X151315826Y-62000000D01*
X151184174Y-62000000D01*
X151057007Y-62034075D01*
X151000000Y-62066988D01*
X151000000Y-61150000D01*
X150352155Y-61150000D01*
X150292627Y-61156401D01*
X150292620Y-61156403D01*
X150157913Y-61206645D01*
X150157906Y-61206649D01*
X150042812Y-61292809D01*
X150042809Y-61292812D01*
X149956649Y-61407906D01*
X149956645Y-61407913D01*
X149906403Y-61542620D01*
X149906401Y-61542627D01*
X149900000Y-61602155D01*
X147345891Y-61602155D01*
X147335967Y-61552264D01*
X147335966Y-61552260D01*
X147280601Y-61469399D01*
X147197740Y-61414034D01*
X147197739Y-61414033D01*
X147197735Y-61414032D01*
X147124677Y-61399500D01*
X147124674Y-61399500D01*
X145375326Y-61399500D01*
X145375323Y-61399500D01*
X145302264Y-61414032D01*
X145302260Y-61414033D01*
X145219399Y-61469399D01*
X145164033Y-61552260D01*
X145164032Y-61552264D01*
X145149500Y-61625321D01*
X109364472Y-61625321D01*
X109476214Y-61406014D01*
X109482680Y-61394815D01*
X109658015Y-61124823D01*
X109665630Y-61114342D01*
X109868229Y-60864153D01*
X109876896Y-60854528D01*
X110104528Y-60626896D01*
X110114153Y-60618229D01*
X110364342Y-60415630D01*
X110374823Y-60408015D01*
X110644815Y-60232680D01*
X110656014Y-60226214D01*
X110942868Y-60080054D01*
X110954707Y-60074784D01*
X111255236Y-59959422D01*
X111267564Y-59955416D01*
X111578525Y-59872094D01*
X111591201Y-59869401D01*
X111909141Y-59819043D01*
X111922045Y-59817687D01*
X112246756Y-59800669D01*
X112253246Y-59800500D01*
X112297595Y-59800500D01*
X166952405Y-59800500D01*
X166996754Y-59800500D01*
X167003243Y-59800669D01*
G37*
%TD.AperFunction*%
%TD*%
%TA.AperFunction,Conductor*%
%TO.N,+3.3V*%
G36*
X155044699Y-82489191D02*
G01*
X155047583Y-82493940D01*
X155210315Y-83009062D01*
X155209539Y-83017983D01*
X155202682Y-83023743D01*
X155201478Y-83024054D01*
X154922320Y-83080530D01*
X154917680Y-83080530D01*
X154684553Y-83033366D01*
X154638520Y-83024053D01*
X154631092Y-83019054D01*
X154629373Y-83010266D01*
X154629680Y-83009075D01*
X154792417Y-82493939D01*
X154798177Y-82487083D01*
X154803574Y-82485764D01*
X155036426Y-82485764D01*
X155044699Y-82489191D01*
G37*
%TD.AperFunction*%
%TD*%
%TA.AperFunction,Conductor*%
%TO.N,+3.3V*%
G36*
X147098038Y-62152435D02*
G01*
X147104364Y-62158773D01*
X147104405Y-62158875D01*
X147786545Y-63855479D01*
X147786452Y-63864434D01*
X147783963Y-63868117D01*
X147618117Y-64033963D01*
X147609844Y-64037390D01*
X147605479Y-64036545D01*
X145908875Y-63354405D01*
X145902478Y-63348140D01*
X145902385Y-63339185D01*
X146247438Y-62503782D01*
X146253761Y-62497447D01*
X147089085Y-62152426D01*
X147098038Y-62152435D01*
G37*
%TD.AperFunction*%
%TD*%
%TA.AperFunction,Conductor*%
%TO.N,/SPI1_MISO*%
G36*
X145210534Y-74826570D02*
G01*
X145341043Y-75020239D01*
X145342824Y-75029014D01*
X145342810Y-75029085D01*
X145296837Y-75257560D01*
X145291846Y-75264995D01*
X145283059Y-75266722D01*
X145281964Y-75266446D01*
X144938089Y-75161893D01*
X144933219Y-75158972D01*
X144839551Y-75065304D01*
X144836124Y-75057031D01*
X144839551Y-75048758D01*
X144841549Y-75047156D01*
X145194567Y-74823227D01*
X145203386Y-74821690D01*
X145210534Y-74826570D01*
G37*
%TD.AperFunction*%
%TD*%
%TA.AperFunction,Conductor*%
%TO.N,/SPI1_MISO*%
G36*
X117476371Y-78212606D02*
G01*
X117479293Y-78214737D01*
X117575262Y-78310706D01*
X117578689Y-78318979D01*
X117578130Y-78322552D01*
X117210541Y-79468731D01*
X117204751Y-79475562D01*
X117197130Y-79476636D01*
X116466980Y-79332227D01*
X116459529Y-79327260D01*
X116457772Y-79323019D01*
X116313363Y-78592867D01*
X116315120Y-78584088D01*
X116321267Y-78579458D01*
X117467447Y-78211869D01*
X117476371Y-78212606D01*
G37*
%TD.AperFunction*%
%TD*%
%TA.AperFunction,Conductor*%
%TO.N,/SPI1_MOSI*%
G36*
X146598763Y-75728716D02*
G01*
X147035405Y-75754029D01*
X147043466Y-75757929D01*
X147046408Y-75766386D01*
X147046212Y-75767947D01*
X147001934Y-75995201D01*
X146996988Y-76002666D01*
X146996929Y-76002706D01*
X146801117Y-76132918D01*
X146792330Y-76134645D01*
X146785452Y-76130420D01*
X146678824Y-75995201D01*
X146588917Y-75881186D01*
X146586404Y-75873941D01*
X146586404Y-75740397D01*
X146589831Y-75732124D01*
X146598104Y-75728697D01*
X146598763Y-75728716D01*
G37*
%TD.AperFunction*%
%TD*%
%TA.AperFunction,Conductor*%
%TO.N,/SPI1_MOSI*%
G36*
X119832617Y-78077519D02*
G01*
X119926638Y-78171540D01*
X119930065Y-78179813D01*
X119929951Y-78181444D01*
X119749081Y-79466412D01*
X119744534Y-79474127D01*
X119735864Y-79476367D01*
X119735225Y-79476259D01*
X119004063Y-79331650D01*
X118996612Y-79326683D01*
X118996596Y-79326660D01*
X118583987Y-78707424D01*
X118582253Y-78698641D01*
X118587237Y-78691201D01*
X118588461Y-78690490D01*
X119412260Y-78276745D01*
X119417511Y-78275500D01*
X119558775Y-78275500D01*
X119558777Y-78275500D01*
X119660035Y-78233557D01*
X119737534Y-78156058D01*
X119737533Y-78156058D01*
X119816072Y-78077518D01*
X119824344Y-78074092D01*
X119832617Y-78077519D01*
G37*
%TD.AperFunction*%
%TD*%
%TA.AperFunction,Conductor*%
%TO.N,/ADC1_IN7*%
G36*
X150625147Y-79290714D02*
G01*
X150655783Y-79296879D01*
X150663218Y-79301870D01*
X150665175Y-79308373D01*
X150664535Y-79614106D01*
X150661108Y-79622355D01*
X150566578Y-79716885D01*
X150558305Y-79720312D01*
X150550188Y-79717039D01*
X150550028Y-79716885D01*
X150288128Y-79464629D01*
X150284547Y-79456421D01*
X150286491Y-79449740D01*
X150414947Y-79255852D01*
X150422372Y-79250849D01*
X150427006Y-79250845D01*
X150625147Y-79290714D01*
G37*
%TD.AperFunction*%
%TD*%
%TA.AperFunction,Conductor*%
%TO.N,/ADC1_IN7*%
G36*
X150827624Y-133394997D02*
G01*
X152001029Y-134037119D01*
X152006641Y-134044097D01*
X152005676Y-134053000D01*
X152005144Y-134053877D01*
X151542696Y-134746958D01*
X151535254Y-134751938D01*
X151535233Y-134751942D01*
X150720013Y-134913122D01*
X150711233Y-134911365D01*
X150706266Y-134903913D01*
X150706046Y-134901885D01*
X150675246Y-133405502D01*
X150678502Y-133397160D01*
X150686703Y-133393563D01*
X150686944Y-133393561D01*
X150822007Y-133393561D01*
X150827624Y-133394997D01*
G37*
%TD.AperFunction*%
%TD*%
%TA.AperFunction,Conductor*%
%TO.N,/SPI2_MOSI*%
G36*
X119914657Y-111491501D02*
G01*
X120008329Y-111585173D01*
X120008809Y-111586333D01*
X120009848Y-111587042D01*
X120010470Y-111590343D01*
X120011756Y-111593446D01*
X120011508Y-111595841D01*
X120010554Y-111600402D01*
X120009911Y-111602484D01*
X119974500Y-111687974D01*
X119974500Y-111771560D01*
X119974252Y-111773956D01*
X119749727Y-112847331D01*
X119744679Y-112854727D01*
X119736005Y-112856413D01*
X119004063Y-112711650D01*
X118996612Y-112706683D01*
X118996596Y-112706660D01*
X118584339Y-112087952D01*
X118582604Y-112079167D01*
X118587588Y-112071727D01*
X118589302Y-112070783D01*
X119249524Y-111776513D01*
X119254287Y-111775500D01*
X119554798Y-111775500D01*
X119554800Y-111775500D01*
X119656058Y-111733557D01*
X119733557Y-111656058D01*
X119733556Y-111656058D01*
X119898114Y-111491499D01*
X119906384Y-111488074D01*
X119914657Y-111491501D01*
G37*
%TD.AperFunction*%
%TD*%
%TA.AperFunction,Conductor*%
%TO.N,/SPI2_MOSI*%
G36*
X147536288Y-83533568D02*
G01*
X147730800Y-83664646D01*
X147735746Y-83672111D01*
X147734646Y-83679739D01*
X147538903Y-84056734D01*
X147532049Y-84062498D01*
X147523128Y-84061727D01*
X147520246Y-84059616D01*
X147427319Y-83966689D01*
X147424590Y-83962396D01*
X147291011Y-83593127D01*
X147291419Y-83584183D01*
X147298033Y-83578147D01*
X147299702Y-83577679D01*
X147527503Y-83531842D01*
X147536288Y-83533568D01*
G37*
%TD.AperFunction*%
%TD*%
%TA.AperFunction,Conductor*%
%TO.N,/SPI2_SCK*%
G36*
X146981678Y-83546029D02*
G01*
X146989103Y-83551032D01*
X146990815Y-83559822D01*
X146990281Y-83561662D01*
X146827872Y-83987664D01*
X146821723Y-83994174D01*
X146816940Y-83995196D01*
X146683060Y-83995196D01*
X146674787Y-83991769D01*
X146672128Y-83987664D01*
X146509718Y-83561662D01*
X146509972Y-83552711D01*
X146516482Y-83546562D01*
X146518311Y-83546031D01*
X146747675Y-83499472D01*
X146752325Y-83499472D01*
X146981678Y-83546029D01*
G37*
%TD.AperFunction*%
%TD*%
%TA.AperFunction,Conductor*%
%TO.N,/SPI2_SCK*%
G36*
X117476371Y-111592606D02*
G01*
X117479293Y-111594737D01*
X117575262Y-111690706D01*
X117578689Y-111698979D01*
X117578130Y-111702552D01*
X117210541Y-112848731D01*
X117204751Y-112855562D01*
X117197130Y-112856636D01*
X116466980Y-112712227D01*
X116459529Y-112707260D01*
X116457772Y-112703019D01*
X116313363Y-111972867D01*
X116315120Y-111964088D01*
X116321267Y-111959458D01*
X117467447Y-111591869D01*
X117476371Y-111592606D01*
G37*
%TD.AperFunction*%
%TD*%
%TA.AperFunction,Conductor*%
%TO.N,/SPI1_SCK*%
G36*
X143947288Y-74009972D02*
G01*
X143953437Y-74016482D01*
X143953971Y-74018322D01*
X144000527Y-74247672D01*
X144000527Y-74252328D01*
X143953971Y-74481677D01*
X143948967Y-74489103D01*
X143940177Y-74490815D01*
X143938337Y-74490281D01*
X143512336Y-74327871D01*
X143505826Y-74321722D01*
X143504804Y-74316939D01*
X143504804Y-74183060D01*
X143508231Y-74174787D01*
X143512334Y-74172129D01*
X143938337Y-74009718D01*
X143947288Y-74009972D01*
G37*
%TD.AperFunction*%
%TD*%
%TA.AperFunction,Conductor*%
%TO.N,/SPI1_SCK*%
G36*
X117476371Y-75672606D02*
G01*
X117479293Y-75674737D01*
X117575262Y-75770706D01*
X117578689Y-75778979D01*
X117578130Y-75782552D01*
X117210541Y-76928731D01*
X117204751Y-76935562D01*
X117197130Y-76936636D01*
X116466980Y-76792227D01*
X116459529Y-76787260D01*
X116457772Y-76783019D01*
X116313363Y-76052867D01*
X116315120Y-76044088D01*
X116321267Y-76039458D01*
X117467447Y-75671869D01*
X117476371Y-75672606D01*
G37*
%TD.AperFunction*%
%TD*%
%TA.AperFunction,Conductor*%
%TO.N,/SPI1_NSS*%
G36*
X145947309Y-74259948D02*
G01*
X145953441Y-74266475D01*
X145953963Y-74268285D01*
X146000527Y-74497672D01*
X146000527Y-74502328D01*
X145953974Y-74731661D01*
X145948970Y-74739087D01*
X145940180Y-74740799D01*
X145938327Y-74740260D01*
X145511323Y-74576876D01*
X145504821Y-74570719D01*
X145503804Y-74565949D01*
X145503804Y-74432084D01*
X145507231Y-74423811D01*
X145511364Y-74421140D01*
X145938361Y-74259669D01*
X145947309Y-74259948D01*
G37*
%TD.AperFunction*%
%TD*%
%TA.AperFunction,Conductor*%
%TO.N,/SPI1_NSS*%
G36*
X119161714Y-76047855D02*
G01*
X120368635Y-76529764D01*
X120372568Y-76532357D01*
X120467374Y-76627163D01*
X120470801Y-76635436D01*
X120467374Y-76643709D01*
X120466102Y-76644810D01*
X119433211Y-77416211D01*
X119424532Y-77418416D01*
X119416836Y-77413838D01*
X119416490Y-77413350D01*
X119001998Y-76794744D01*
X119000240Y-76785963D01*
X119145906Y-76056429D01*
X119150886Y-76048989D01*
X119159670Y-76047248D01*
X119161714Y-76047855D01*
G37*
%TD.AperFunction*%
%TD*%
%TA.AperFunction,Conductor*%
%TO.N,/SPI2_NSS*%
G36*
X120020357Y-114135801D02*
G01*
X120115262Y-114230706D01*
X120118689Y-114238979D01*
X120118130Y-114242552D01*
X119750541Y-115388731D01*
X119744751Y-115395562D01*
X119737130Y-115396636D01*
X119006980Y-115252227D01*
X118999529Y-115247260D01*
X118997772Y-115243019D01*
X118853363Y-114512867D01*
X118855120Y-114504088D01*
X118861267Y-114499458D01*
X119531451Y-114284524D01*
X119535024Y-114283966D01*
X119796332Y-114283966D01*
X119796334Y-114283966D01*
X119897592Y-114242023D01*
X119975091Y-114164524D01*
X119975090Y-114164524D01*
X120003814Y-114135799D01*
X120012084Y-114132374D01*
X120020357Y-114135801D01*
G37*
%TD.AperFunction*%
%TD*%
%TA.AperFunction,Conductor*%
%TO.N,/SPI2_NSS*%
G36*
X148931727Y-83473075D02*
G01*
X148933406Y-83473999D01*
X149128499Y-83603254D01*
X149131791Y-83606546D01*
X149261046Y-83801639D01*
X149262758Y-83810428D01*
X149257754Y-83817855D01*
X149256075Y-83818779D01*
X148840005Y-84005166D01*
X148831054Y-84005420D01*
X148826949Y-84002761D01*
X148732284Y-83908096D01*
X148728857Y-83899823D01*
X148729879Y-83895040D01*
X148860591Y-83603254D01*
X148916266Y-83478969D01*
X148922776Y-83472821D01*
X148931727Y-83473075D01*
G37*
%TD.AperFunction*%
%TD*%
%TA.AperFunction,Conductor*%
%TO.N,/ADC1_IN11*%
G36*
X145321272Y-133829208D02*
G01*
X145321655Y-133829575D01*
X145418092Y-133926012D01*
X145421519Y-133934285D01*
X145420270Y-133939546D01*
X144775519Y-135220381D01*
X144768738Y-135226230D01*
X144759807Y-135225571D01*
X144759313Y-135225307D01*
X143923526Y-134753098D01*
X143918008Y-134746044D01*
X143918001Y-134746019D01*
X143688767Y-133914131D01*
X143689873Y-133905245D01*
X143696939Y-133899743D01*
X143699509Y-133899336D01*
X145312853Y-133826160D01*
X145321272Y-133829208D01*
G37*
%TD.AperFunction*%
%TD*%
%TA.AperFunction,Conductor*%
%TO.N,/ADC1_IN11*%
G36*
X148254803Y-79296681D02*
G01*
X148262237Y-79301672D01*
X148264135Y-79309322D01*
X148232687Y-79622052D01*
X148229319Y-79629154D01*
X148134854Y-79723619D01*
X148126581Y-79727046D01*
X148118308Y-79723619D01*
X148117948Y-79723243D01*
X147821293Y-79398908D01*
X147818238Y-79390490D01*
X147822029Y-79382378D01*
X147823383Y-79381311D01*
X148015240Y-79252023D01*
X148024014Y-79250243D01*
X148254803Y-79296681D01*
G37*
%TD.AperFunction*%
%TD*%
%TA.AperFunction,Conductor*%
%TO.N,/ADC1_IN10*%
G36*
X147807476Y-133842969D02*
G01*
X147807906Y-133843378D01*
X147903923Y-133939395D01*
X147907350Y-133947668D01*
X147905760Y-133953557D01*
X147173005Y-135211494D01*
X147165880Y-135216918D01*
X147157006Y-135215715D01*
X147156406Y-135215341D01*
X146463337Y-134753402D01*
X146458354Y-134745964D01*
X146296799Y-133929602D01*
X146298554Y-133920822D01*
X146306005Y-133915855D01*
X146307677Y-133915647D01*
X147799041Y-133839966D01*
X147807476Y-133842969D01*
G37*
%TD.AperFunction*%
%TD*%
%TA.AperFunction,Conductor*%
%TO.N,/ADC1_IN10*%
G36*
X149055084Y-79296738D02*
G01*
X149062519Y-79301729D01*
X149064445Y-79309059D01*
X149041901Y-79618003D01*
X149038505Y-79625425D01*
X148943995Y-79719935D01*
X148935722Y-79723362D01*
X148927449Y-79719935D01*
X148927250Y-79719731D01*
X148837425Y-79625425D01*
X148621685Y-79398922D01*
X148618461Y-79390569D01*
X148622089Y-79382382D01*
X148623610Y-79381158D01*
X148815240Y-79252023D01*
X148824014Y-79250243D01*
X149055084Y-79296738D01*
G37*
%TD.AperFunction*%
%TD*%
%TA.AperFunction,Conductor*%
%TO.N,/OPAMP1_VINP*%
G36*
X151415814Y-79288748D02*
G01*
X151452062Y-79296107D01*
X151459488Y-79301111D01*
X151461200Y-79309901D01*
X151460781Y-79311427D01*
X151312196Y-79737350D01*
X151306235Y-79744033D01*
X151301149Y-79745196D01*
X151167281Y-79745196D01*
X151159008Y-79741769D01*
X151156469Y-79737968D01*
X150980228Y-79311886D01*
X150980233Y-79302932D01*
X150986568Y-79296603D01*
X150988704Y-79295951D01*
X151217675Y-79249472D01*
X151222325Y-79249472D01*
X151415814Y-79288748D01*
G37*
%TD.AperFunction*%
%TD*%
%TA.AperFunction,Conductor*%
%TO.N,/OPAMP1_VINP*%
G36*
X152729062Y-133868147D02*
G01*
X154232045Y-133915895D01*
X154240205Y-133919583D01*
X154243367Y-133927961D01*
X154243150Y-133929860D01*
X154081650Y-134745937D01*
X154076683Y-134753388D01*
X154076662Y-134753402D01*
X153383421Y-135215455D01*
X153374636Y-135217192D01*
X153367196Y-135212208D01*
X153366922Y-135211776D01*
X153087933Y-134750707D01*
X152622735Y-133981899D01*
X152621384Y-133973047D01*
X152624470Y-133967571D01*
X152720473Y-133871568D01*
X152728745Y-133868142D01*
X152729062Y-133868147D01*
G37*
%TD.AperFunction*%
%TD*%
%TA.AperFunction,Conductor*%
%TO.N,/SPI2_MISO*%
G36*
X148327039Y-83556878D02*
G01*
X148334501Y-83561829D01*
X148334548Y-83561899D01*
X148463510Y-83756552D01*
X148465222Y-83765342D01*
X148460218Y-83772768D01*
X148460131Y-83772824D01*
X148330392Y-83857135D01*
X148324017Y-83859025D01*
X148310672Y-83859025D01*
X148245347Y-83886085D01*
X148209417Y-83900967D01*
X148209414Y-83900969D01*
X148110949Y-83999433D01*
X148109053Y-84000969D01*
X148105698Y-84003150D01*
X148096894Y-84004786D01*
X148091048Y-84001614D01*
X147996317Y-83906883D01*
X147992890Y-83898610D01*
X147993211Y-83895887D01*
X148083323Y-83520650D01*
X148088586Y-83513409D01*
X148096941Y-83511902D01*
X148327039Y-83556878D01*
G37*
%TD.AperFunction*%
%TD*%
%TA.AperFunction,Conductor*%
%TO.N,/SPI2_MISO*%
G36*
X117476371Y-114132606D02*
G01*
X117479293Y-114134737D01*
X117575262Y-114230706D01*
X117578689Y-114238979D01*
X117578130Y-114242552D01*
X117210541Y-115388731D01*
X117204751Y-115395562D01*
X117197130Y-115396636D01*
X116466980Y-115252227D01*
X116459529Y-115247260D01*
X116457772Y-115243019D01*
X116313363Y-114512867D01*
X116315120Y-114504088D01*
X116321267Y-114499458D01*
X117467447Y-114131869D01*
X117476371Y-114132606D01*
G37*
%TD.AperFunction*%
%TD*%
%TA.AperFunction,Conductor*%
%TO.N,/ADC1_IN9*%
G36*
X149855385Y-79296798D02*
G01*
X149862820Y-79301789D01*
X149864766Y-79308774D01*
X149851548Y-79614391D01*
X149848132Y-79622158D01*
X149753595Y-79716695D01*
X149745322Y-79720122D01*
X149737049Y-79716695D01*
X149422085Y-79398931D01*
X149418696Y-79390644D01*
X149422160Y-79382386D01*
X149423852Y-79380997D01*
X149615243Y-79252023D01*
X149624017Y-79250243D01*
X149855385Y-79296798D01*
G37*
%TD.AperFunction*%
%TD*%
%TA.AperFunction,Conductor*%
%TO.N,/ADC1_IN9*%
G36*
X150139652Y-133509350D02*
G01*
X150142515Y-133511451D01*
X150238548Y-133607484D01*
X150241975Y-133615757D01*
X150241436Y-133619267D01*
X149836812Y-134905824D01*
X149831061Y-134912688D01*
X149823380Y-134913791D01*
X149006978Y-134752227D01*
X148999527Y-134747260D01*
X148997772Y-134743021D01*
X148988301Y-134695166D01*
X148836208Y-133926617D01*
X148837963Y-133917838D01*
X148844174Y-133913187D01*
X149280257Y-133776039D01*
X149283767Y-133775500D01*
X149554798Y-133775500D01*
X149554800Y-133775500D01*
X149656058Y-133733557D01*
X149733557Y-133656058D01*
X149733556Y-133656058D01*
X149764473Y-133625140D01*
X149769230Y-133622255D01*
X150130732Y-133508563D01*
X150139652Y-133509350D01*
G37*
%TD.AperFunction*%
%TD*%
M02*
